<svg class="main-svg" xmlns="http://www.w3.org/2000/svg" xmlns:xlink="http://www.w3.org/1999/xlink" width="450" height="500" style="" viewBox="0 0 450 500"><rect x="0" y="0" width="450" height="500" style="fill: rgb(0, 0, 0); fill-opacity: 0;"/><defs id="defs-b71073"><g class="clips"><clipPath id="clipb71073xyplot" class="plotclip"><rect width="332" height="300"/></clipPath><clipPath class="axesclip" id="clipb71073x"><rect x="68" y="0" width="332" height="500"/></clipPath><clipPath class="axesclip" id="clipb71073y"><rect x="0" y="100" width="450" height="300"/></clipPath><clipPath class="axesclip" id="clipb71073xy"><rect x="68" y="100" width="332" height="300"/></clipPath></g><g class="gradients"/></defs><g class="bglayer"><rect class="bg" x="64" y="96" width="340" height="308" style="fill: rgb(0, 0, 0); fill-opacity: 0; stroke-width: 0;"/></g><g class="layer-below"><g class="imagelayer"/><g class="shapelayer"/></g><g class="cartesianlayer"><g class="subplot xy"><g class="layer-subplot"><g class="shapelayer"/><g class="imagelayer"/></g><g class="gridlayer"><g class="x"/><g class="y"><path class="ygrid crisp" transform="translate(0,359.09)" d="M68,0h332" style="stroke: rgb(255, 255, 255); stroke-opacity: 1; stroke-width: 20px;"/><path class="ygrid crisp" transform="translate(0,318.18)" d="M68,0h332" style="stroke: rgb(255, 255, 255); stroke-opacity: 1; stroke-width: 20px;"/><path class="ygrid crisp" transform="translate(0,277.27)" d="M68,0h332" style="stroke: rgb(255, 255, 255); stroke-opacity: 1; stroke-width: 20px;"/><path class="ygrid crisp" transform="translate(0,236.36)" d="M68,0h332" style="stroke: rgb(255, 255, 255); stroke-opacity: 1; stroke-width: 20px;"/><path class="ygrid crisp" transform="translate(0,195.45)" d="M68,0h332" style="stroke: rgb(255, 255, 255); stroke-opacity: 1; stroke-width: 20px;"/><path class="ygrid crisp" transform="translate(0,154.55)" d="M68,0h332" style="stroke: rgb(255, 255, 255); stroke-opacity: 1; stroke-width: 20px;"/><path class="ygrid crisp" transform="translate(0,113.64)" d="M68,0h332" style="stroke: rgb(255, 255, 255); stroke-opacity: 1; stroke-width: 20px;"/></g></g><g class="zerolinelayer"/><path class="xlines-below"/><path class="ylines-below"/><g class="overlines-below"/><g class="xaxislayer-below"/><g class="yaxislayer-below"/><g class="overaxes-below"/><g class="plot" transform="translate(68, 100)" clip-path="url('#clipb71073xyplot')"><g class="scatterlayer mlayer"><g class="trace scatter trace1a0983" style="stroke-miterlimit: 2; opacity: 1;"><g class="fills"/><g class="errorbars"><g class="errorbar" style="opacity: 1;"><path class="yerror" d="M31.5,284.18h20m-10,0V285m-10,0h20" style="vector-effect: non-scaling-stroke; stroke-width: 4px; stroke: rgb(47, 79, 79); stroke-opacity: 1;"/></g><g class="errorbar" style="opacity: 1;"><path class="yerror" d="M114.5,206.86h20m-10,0V210m-10,0h20" style="vector-effect: non-scaling-stroke; stroke-width: 4px; stroke: rgb(47, 79, 79); stroke-opacity: 1;"/></g><g class="errorbar" style="opacity: 1;"><path class="yerror" d="M197.5,126.78h20m-10,0V167.67m-10,0h20" style="vector-effect: non-scaling-stroke; stroke-width: 4px; stroke: rgb(47, 79, 79); stroke-opacity: 1;"/></g><g class="errorbar" style="opacity: 1;"><path class="yerror" d="M280.5,33.6h20m-10,0V80.32m-10,0h20" style="vector-effect: non-scaling-stroke; stroke-width: 4px; stroke: rgb(47, 79, 79); stroke-opacity: 1;"/></g></g><g class="lines"/><g class="points"><path class="point" transform="translate(41.5,284.65)" d="M5,0A5,5 0 1,1 0,-5A5,5 0 0,1 5,0Z" style="opacity: 1; stroke-width: 0px; fill: rgb(47, 79, 79); fill-opacity: 1;"/><path class="point" transform="translate(124.5,207.54)" d="M5,0A5,5 0 1,1 0,-5A5,5 0 0,1 5,0Z" style="opacity: 1; stroke-width: 0px; fill: rgb(47, 79, 79); fill-opacity: 1;"/><path class="point" transform="translate(207.5,134.39)" d="M5,0A5,5 0 1,1 0,-5A5,5 0 0,1 5,0Z" style="opacity: 1; stroke-width: 0px; fill: rgb(47, 79, 79); fill-opacity: 1;"/><path class="point" transform="translate(290.5,52.61)" d="M5,0A5,5 0 1,1 0,-5A5,5 0 0,1 5,0Z" style="opacity: 1; stroke-width: 0px; fill: rgb(47, 79, 79); fill-opacity: 1;"/></g><g class="text"/></g><g class="trace scatter trace3396ff" style="stroke-miterlimit: 2; opacity: 1;"><g class="fills"/><g class="errorbars"><g class="errorbar" style="opacity: 1;"><path class="yerror" d="M14.899999999999999,241.36h20m-10,0V252.27m-10,0h20" style="vector-effect: non-scaling-stroke; stroke-width: 4px; stroke: rgb(148, 0, 211); stroke-opacity: 1;"/></g><g class="errorbar" style="opacity: 1;"><path class="yerror" d="M97.9,134.73h20m-10,0V168.27m-10,0h20" style="vector-effect: non-scaling-stroke; stroke-width: 4px; stroke: rgb(148, 0, 211); stroke-opacity: 1;"/></g><g class="errorbar" style="opacity: 1;"><path class="yerror" d="M180.9,178.07h20m-10,0V213.41m-10,0h20" style="vector-effect: non-scaling-stroke; stroke-width: 4px; stroke: rgb(148, 0, 211); stroke-opacity: 1;"/></g><g class="errorbar" style="opacity: 1;"><path class="yerror" d="M263.9,45.9h20m-10,0V121.9m-10,0h20" style="vector-effect: non-scaling-stroke; stroke-width: 4px; stroke: rgb(148, 0, 211); stroke-opacity: 1;"/></g></g><g class="lines"/><g class="points"><path class="point" transform="translate(24.9,245.59)" d="M6.5,0L0,6.5L-6.5,0L0,-6.5Z" style="opacity: 1; stroke-width: 0px; fill: rgb(148, 0, 211); fill-opacity: 1;"/><path class="point" transform="translate(107.9,157.63)" d="M6.5,0L0,6.5L-6.5,0L0,-6.5Z" style="opacity: 1; stroke-width: 0px; fill: rgb(148, 0, 211); fill-opacity: 1;"/><path class="point" transform="translate(190.9,198.43)" d="M6.5,0L0,6.5L-6.5,0L0,-6.5Z" style="opacity: 1; stroke-width: 0px; fill: rgb(148, 0, 211); fill-opacity: 1;"/><path class="point" transform="translate(273.9,89.62)" d="M6.5,0L0,6.5L-6.5,0L0,-6.5Z" style="opacity: 1; stroke-width: 0px; fill: rgb(148, 0, 211); fill-opacity: 1;"/></g><g class="text"/></g></g></g><g class="overplot"/><path class="xlines-above crisp" style="fill: none; stroke-width: 1px; stroke: rgb(0, 0, 0); stroke-opacity: 1;" d="M63,404.5H405M63,95.5H405"/><path class="ylines-above crisp" style="fill: none; stroke-width: 1px; stroke: rgb(0, 0, 0); stroke-opacity: 1;" d="M63.5,96V404M404.5,96V404"/><g class="overlines-above"/><g class="xaxislayer-above"><g class="xtick"><text text-anchor="middle" x="0" y="441" transform="translate(109.5,0)" style="font-family: 'Times New Roman'; font-size: 30px; fill: rgb(0, 0, 0); fill-opacity: 1; white-space: pre;">Cpp</text></g><g class="xtick"><text text-anchor="middle" x="0" y="441" transform="translate(192.5,0)" style="font-family: 'Times New Roman'; font-size: 30px; fill: rgb(0, 0, 0); fill-opacity: 1; white-space: pre;">Py</text></g><g class="xtick"><text text-anchor="middle" x="0" y="441" transform="translate(275.5,0)" style="font-family: 'Times New Roman'; font-size: 30px; fill: rgb(0, 0, 0); fill-opacity: 1; white-space: pre;">Cppy</text></g><g class="xtick"><text text-anchor="middle" x="0" y="441" transform="translate(358.5,0)" style="font-family: 'Times New Roman'; font-size: 30px; fill: rgb(0, 0, 0); fill-opacity: 1; white-space: pre;">Pyy</text></g></g><g class="yaxislayer-above"><g class="ytick"><text text-anchor="end" x="57" y="10.5" transform="translate(0,400)" style="font-family: 'Times New Roman'; font-size: 30px; fill: rgb(0, 0, 0); fill-opacity: 1; white-space: pre;">0</text></g><g class="ytick"><text text-anchor="end" x="57" y="10.5" transform="translate(0,359.09)" style="font-family: 'Times New Roman'; font-size: 30px; fill: rgb(0, 0, 0); fill-opacity: 1; white-space: pre;">30</text></g><g class="ytick"><text text-anchor="end" x="57" y="10.5" transform="translate(0,318.18)" style="font-family: 'Times New Roman'; font-size: 30px; fill: rgb(0, 0, 0); fill-opacity: 1; white-space: pre;">60</text></g><g class="ytick"><text text-anchor="end" x="57" y="10.5" transform="translate(0,277.27)" style="font-family: 'Times New Roman'; font-size: 30px; fill: rgb(0, 0, 0); fill-opacity: 1; white-space: pre;">90</text></g><g class="ytick"><text text-anchor="end" x="57" y="10.5" transform="translate(0,236.36)" style="font-family: 'Times New Roman'; font-size: 30px; fill: rgb(0, 0, 0); fill-opacity: 1; white-space: pre;">120</text></g><g class="ytick"><text text-anchor="end" x="57" y="10.5" transform="translate(0,195.45)" style="font-family: 'Times New Roman'; font-size: 30px; fill: rgb(0, 0, 0); fill-opacity: 1; white-space: pre;">150</text></g><g class="ytick"><text text-anchor="end" x="57" y="10.5" transform="translate(0,154.55)" style="font-family: 'Times New Roman'; font-size: 30px; fill: rgb(0, 0, 0); fill-opacity: 1; white-space: pre;">180</text></g><g class="ytick"><text text-anchor="end" x="57" y="10.5" transform="translate(0,113.64)" style="font-family: 'Times New Roman'; font-size: 30px; fill: rgb(0, 0, 0); fill-opacity: 1; white-space: pre;">210</text></g></g><g class="overaxes-above"/></g></g><g class="polarlayer"/><g class="ternarylayer"/><g class="geolayer"/><g class="funnelarealayer"/><g class="pielayer"/><g class="treemaplayer"/><g class="sunburstlayer"/><g class="glimages"/><defs id="topdefs-b71073"><g class="clips"/><clipPath id="legendb71073"><rect width="252" height="52" x="0" y="0"/></clipPath></defs><g class="layer-above"><g class="imagelayer"/><g class="shapelayer"/></g><g class="infolayer"><g class="legend" pointer-events="all" transform="translate(68, 40.000000000000014)"><rect class="bg" shape-rendering="crispEdges" style="stroke: rgb(143, 188, 143); stroke-opacity: 1; fill: rgb(0, 0, 0); fill-opacity: 0; stroke-width: 0px;" width="252" height="52" x="0" y="0"/><g class="scrollbox" transform="translate(0, 0)" clip-path="url('#legendb71073')"><g class="groups"><g class="traces" style="opacity: 1;" transform="translate(0, 26)"><text class="legendtext" text-anchor="start" x="40" y="11.7" style="font-family: 'Times New Roman'; font-size: 30px; fill: rgb(0, 0, 0); fill-opacity: 1; white-space: pre;">Memory</text><g class="layers" style="opacity: 1;"><g class="legendfill"/><g class="legendlines"/><g class="legendsymbols"><g class="legendpoints"><path class="scatterpts" transform="translate(20,0)" d="M5,0A5,5 0 1,1 0,-5A5,5 0 0,1 5,0Z" style="opacity: 1; stroke-width: 0px; fill: rgb(47, 79, 79); fill-opacity: 1;"/></g></g></g><rect class="legendtoggle" x="0" y="-21" width="145.828125" height="42" style="fill: rgb(0, 0, 0); fill-opacity: 0;"/></g><g class="traces" style="opacity: 1;" transform="translate(148.328125, 26)"><text class="legendtext" text-anchor="start" x="40" y="11.7" style="font-family: 'Times New Roman'; font-size: 30px; fill: rgb(0, 0, 0); fill-opacity: 1; white-space: pre;">CPU</text><g class="layers" style="opacity: 1;"><g class="legendfill"/><g class="legendlines"/><g class="legendsymbols"><g class="legendpoints"><path class="scatterpts" transform="translate(20,0)" d="M6.5,0L0,6.5L-6.5,0L0,-6.5Z" style="opacity: 1; stroke-width: 0px; fill: rgb(148, 0, 211); fill-opacity: 1;"/></g></g></g><rect class="legendtoggle" x="0" y="-21" width="100.859375" height="42" style="fill: rgb(0, 0, 0); fill-opacity: 0;"/></g></g></g><rect class="scrollbar" rx="20" ry="3" width="0" height="0" style="fill: rgb(128, 139, 164); fill-opacity: 1;" x="0" y="0"/></g><g class="g-gtitle"/><g class="g-xtitle"/><g class="g-ytitle"/></g></svg>