<svg class="main-svg" xmlns="http://www.w3.org/2000/svg" xmlns:xlink="http://www.w3.org/1999/xlink" width="450" height="500" style="" viewBox="0 0 450 500"><rect x="0" y="0" width="450" height="500" style="fill: rgb(0, 0, 0); fill-opacity: 0;"/><defs id="defs-57b2c5"><g class="clips"><clipPath id="clip57b2c5xyplot" class="plotclip"><rect width="296" height="300"/></clipPath><clipPath class="axesclip" id="clip57b2c5x"><rect x="104" y="0" width="296" height="500"/></clipPath><clipPath class="axesclip" id="clip57b2c5y"><rect x="0" y="100" width="450" height="300"/></clipPath><clipPath class="axesclip" id="clip57b2c5xy"><rect x="104" y="100" width="296" height="300"/></clipPath></g><g class="gradients"/></defs><g class="bglayer"><rect class="bg" x="100" y="96" width="304" height="308" style="fill: rgb(0, 0, 0); fill-opacity: 0; stroke-width: 0;"/></g><g class="layer-below"><g class="imagelayer"/><g class="shapelayer"/></g><g class="cartesianlayer"><g class="subplot xy"><g class="layer-subplot"><g class="shapelayer"/><g class="imagelayer"/></g><g class="gridlayer"><g class="x"/><g class="y"><path class="ygrid crisp" transform="translate(0,367.75)" d="M104,0h296" style="stroke: rgb(255, 255, 255); stroke-opacity: 1; stroke-width: 20px;"/><path class="ygrid crisp" transform="translate(0,313.93)" d="M104,0h296" style="stroke: rgb(255, 255, 255); stroke-opacity: 1; stroke-width: 20px;"/><path class="ygrid crisp" transform="translate(0,260.11)" d="M104,0h296" style="stroke: rgb(255, 255, 255); stroke-opacity: 1; stroke-width: 20px;"/><path class="ygrid crisp" transform="translate(0,206.3)" d="M104,0h296" style="stroke: rgb(255, 255, 255); stroke-opacity: 1; stroke-width: 20px;"/><path class="ygrid crisp" transform="translate(0,152.48)" d="M104,0h296" style="stroke: rgb(255, 255, 255); stroke-opacity: 1; stroke-width: 20px;"/></g></g><g class="zerolinelayer"/><path class="xlines-below"/><path class="ylines-below"/><g class="overlines-below"/><g class="xaxislayer-below"/><g class="yaxislayer-below"/><g class="overaxes-below"/><g class="plot" transform="translate(104, 100)" clip-path="url('#clip57b2c5xyplot')"><g class="scatterlayer mlayer"><g class="trace scatter trace234f80" style="stroke-miterlimit: 2; opacity: 1;"><g class="fills"/><g class="errorbars"><g class="errorbar" style="opacity: 1;"><path class="yerror" d="M64,251.84h20m-10,0V285m-10,0h20" style="vector-effect: non-scaling-stroke; stroke-width: 4px; stroke: rgb(47, 79, 79); stroke-opacity: 1;"/></g><g class="errorbar" style="opacity: 1;"><path class="yerror" d="M212,168.54h20m-10,0V222.82m-10,0h20" style="vector-effect: non-scaling-stroke; stroke-width: 4px; stroke: rgb(47, 79, 79); stroke-opacity: 1;"/></g></g><g class="lines"/><g class="points"><path class="point" transform="translate(74,266.79)" d="M5,0A5,5 0 1,1 0,-5A5,5 0 0,1 5,0Z" style="opacity: 1; stroke-width: 0px; fill: rgb(47, 79, 79); fill-opacity: 1;"/><path class="point" transform="translate(222,190.01)" d="M5,0A5,5 0 1,1 0,-5A5,5 0 0,1 5,0Z" style="opacity: 1; stroke-width: 0px; fill: rgb(47, 79, 79); fill-opacity: 1;"/></g><g class="text"/></g><g class="trace scatter trace61b32f" style="stroke-miterlimit: 2; opacity: 1;"><g class="fills"/><g class="errorbars"><g class="errorbar" style="opacity: 1;"><path class="yerror" d="M64,252.43h20m-10,0V270.42m-10,0h20" style="vector-effect: non-scaling-stroke; stroke-width: 4px; stroke: rgb(148, 0, 211); stroke-opacity: 1;"/></g><g class="errorbar" style="opacity: 1;"><path class="yerror" d="M212,15h20m-10,0V108.27m-10,0h20" style="vector-effect: non-scaling-stroke; stroke-width: 4px; stroke: rgb(148, 0, 211); stroke-opacity: 1;"/></g></g><g class="lines"/><g class="points"><path class="point" transform="translate(74,263.72)" d="M6.5,0L0,6.5L-6.5,0L0,-6.5Z" style="opacity: 1; stroke-width: 0px; fill: rgb(148, 0, 211); fill-opacity: 1;"/><path class="point" transform="translate(222,52.26)" d="M6.5,0L0,6.5L-6.5,0L0,-6.5Z" style="opacity: 1; stroke-width: 0px; fill: rgb(148, 0, 211); fill-opacity: 1;"/></g><g class="text"/></g></g></g><g class="overplot"/><path class="xlines-above crisp" style="fill: none; stroke-width: 1px; stroke: rgb(0, 0, 0); stroke-opacity: 1;" d="M99,404.5H405M99,95.5H405"/><path class="ylines-above crisp" style="fill: none; stroke-width: 1px; stroke: rgb(0, 0, 0); stroke-opacity: 1;" d="M99.5,96V404M404.5,96V404"/><g class="overlines-above"/><g class="xaxislayer-above"><g class="xtick"><text text-anchor="middle" x="0" y="441" transform="translate(178,0)" style="font-family: 'Times New Roman'; font-size: 30px; fill: rgb(0, 0, 0); fill-opacity: 1; white-space: pre;">Cpp</text></g><g class="xtick"><text text-anchor="middle" x="0" y="441" transform="translate(326,0)" style="font-family: 'Times New Roman'; font-size: 30px; fill: rgb(0, 0, 0); fill-opacity: 1; white-space: pre;">Py</text></g></g><g class="yaxislayer-above"><g class="ytick"><text text-anchor="end" x="93" y="10.5" transform="translate(0,367.75)" style="font-family: 'Times New Roman'; font-size: 30px; fill: rgb(0, 0, 0); fill-opacity: 1; white-space: pre;">30</text></g><g class="ytick"><text text-anchor="end" x="93" y="10.5" transform="translate(0,313.93)" style="font-family: 'Times New Roman'; font-size: 30px; fill: rgb(0, 0, 0); fill-opacity: 1; white-space: pre;">60</text></g><g class="ytick"><text text-anchor="end" x="93" y="10.5" transform="translate(0,260.11)" style="font-family: 'Times New Roman'; font-size: 30px; fill: rgb(0, 0, 0); fill-opacity: 1; white-space: pre;">90</text></g><g class="ytick"><text text-anchor="end" x="93" y="10.5" transform="translate(0,206.3)" style="font-family: 'Times New Roman'; font-size: 30px; fill: rgb(0, 0, 0); fill-opacity: 1; white-space: pre;">120</text></g><g class="ytick"><text text-anchor="end" x="93" y="10.5" transform="translate(0,152.48)" style="font-family: 'Times New Roman'; font-size: 30px; fill: rgb(0, 0, 0); fill-opacity: 1; white-space: pre;">150</text></g></g><g class="overaxes-above"/></g></g><g class="polarlayer"/><g class="ternarylayer"/><g class="geolayer"/><g class="funnelarealayer"/><g class="pielayer"/><g class="treemaplayer"/><g class="sunburstlayer"/><g class="glimages"/><defs id="topdefs-57b2c5"><g class="clips"/><clipPath id="legend57b2c5"><rect width="252" height="52" x="0" y="0"/></clipPath></defs><g class="layer-above"><g class="imagelayer"/><g class="shapelayer"/></g><g class="infolayer"><g class="legend" pointer-events="all" transform="translate(104, 40.000000000000014)"><rect class="bg" shape-rendering="crispEdges" style="stroke: rgb(143, 188, 143); stroke-opacity: 1; fill: rgb(0, 0, 0); fill-opacity: 0; stroke-width: 0px;" width="252" height="52" x="0" y="0"/><g class="scrollbox" transform="translate(0, 0)" clip-path="url('#legend57b2c5')"><g class="groups"><g class="traces" style="opacity: 1;" transform="translate(0, 26)"><text class="legendtext" text-anchor="start" x="40" y="11.7" style="font-family: 'Times New Roman'; font-size: 30px; fill: rgb(0, 0, 0); fill-opacity: 1; white-space: pre;">Memory</text><g class="layers" style="opacity: 1;"><g class="legendfill"/><g class="legendlines"/><g class="legendsymbols"><g class="legendpoints"><path class="scatterpts" transform="translate(20,0)" d="M5,0A5,5 0 1,1 0,-5A5,5 0 0,1 5,0Z" style="opacity: 1; stroke-width: 0px; fill: rgb(47, 79, 79); fill-opacity: 1;"/></g></g></g><rect class="legendtoggle" x="0" y="-21" width="145.828125" height="42" style="fill: rgb(0, 0, 0); fill-opacity: 0;"/></g><g class="traces" style="opacity: 1;" transform="translate(148.328125, 26)"><text class="legendtext" text-anchor="start" x="40" y="11.7" style="font-family: 'Times New Roman'; font-size: 30px; fill: rgb(0, 0, 0); fill-opacity: 1; white-space: pre;">CPU</text><g class="layers" style="opacity: 1;"><g class="legendfill"/><g class="legendlines"/><g class="legendsymbols"><g class="legendpoints"><path class="scatterpts" transform="translate(20,0)" d="M6.5,0L0,6.5L-6.5,0L0,-6.5Z" style="opacity: 1; stroke-width: 0px; fill: rgb(148, 0, 211); fill-opacity: 1;"/></g></g></g><rect class="legendtoggle" x="0" y="-21" width="100.859375" height="42" style="fill: rgb(0, 0, 0); fill-opacity: 0;"/></g></g></g><rect class="scrollbar" rx="20" ry="3" width="0" height="0" style="fill: rgb(128, 139, 164); fill-opacity: 1;" x="0" y="0"/></g><g class="g-gtitle"/><g class="g-xtitle"><text class="xtitle" x="252" y="483.484375" text-anchor="middle" style="font-family: 'Times New Roman'; font-size: 30px; fill: rgb(0, 0, 0); opacity: 1; font-weight: normal; white-space: pre;">Model</text></g><g class="g-ytitle" transform="translate(15,0)"><text class="ytitle" transform="rotate(-90,12,250)" x="12" y="250" text-anchor="middle" style="font-family: 'Times New Roman'; font-size: 30px; fill: rgb(0, 0, 0); opacity: 1; font-weight: normal; white-space: pre;">Megabytes/Seconds</text></g></g></svg>