<svg class="main-svg" xmlns="http://www.w3.org/2000/svg" xmlns:xlink="http://www.w3.org/1999/xlink" width="550" height="500" style="" viewBox="0 0 550 500"><rect x="0" y="0" width="550" height="500" style="fill: rgb(0, 0, 0); fill-opacity: 0;"/><defs id="defs-6aaf35"><g class="clips"><clipPath id="clip6aaf35xyplot" class="plotclip"><rect width="417" height="300"/></clipPath><clipPath class="axesclip" id="clip6aaf35x"><rect x="83" y="0" width="417" height="500"/></clipPath><clipPath class="axesclip" id="clip6aaf35y"><rect x="0" y="100" width="550" height="300"/></clipPath><clipPath class="axesclip" id="clip6aaf35xy"><rect x="83" y="100" width="417" height="300"/></clipPath></g><g class="gradients"/></defs><g class="bglayer"><rect class="bg" x="79" y="96" width="425" height="308" style="fill: rgb(0, 0, 0); fill-opacity: 0; stroke-width: 0;"/></g><g class="layer-below"><g class="imagelayer"/><g class="shapelayer"/></g><g class="cartesianlayer"><g class="subplot xy"><g class="layer-subplot"><g class="shapelayer"/><g class="imagelayer"/></g><g class="gridlayer"><g class="x"/><g class="y"/></g><g class="zerolinelayer"/><path class="xlines-below"/><path class="ylines-below"/><g class="overlines-below"/><g class="xaxislayer-below"/><g class="yaxislayer-below"/><g class="overaxes-below"/><g class="plot" transform="translate(83, 100)" clip-path="url('#clip6aaf35xyplot')"><g class="scatterlayer mlayer"><g class="trace scatter trace10fe21" style="stroke-miterlimit: 2; opacity: 1;"><g class="fills"/><g class="errorbars"/><g class="lines"><path class="js-line" d="M0.62,290.44L14.17,290.52L15.4,286.22L25.25,283.26L26.49,283.19L28.95,282.59L30.18,275.04L40.04,267.93L41.27,267.48L43.73,265.7L44.96,254.15L54.82,240.96L56.05,239.78L58.52,237.04L59.75,218.74L67.14,204.15L68.37,204.37L69.6,200.37L70.83,198.96L73.3,195.19L74.53,168L75.76,170.44L76.99,166.22L78.23,162.44L79.46,161.93L85.62,152.44L86.85,150.74L88.08,148.67L89.31,135.78L90.55,115.11L91.78,119.56L93.01,118.22L94.24,118.67L95.47,119.04L96.7,116.07L97.94,118.15L99.17,118.07L100.4,113.19L101.63,112.67L102.86,116L104.1,82.07L105.33,105.33L106.56,90.67L107.79,80.74L109.02,92.15L110.26,91.56L111.49,89.33L112.72,90.07L113.95,92.07L115.18,90.37L116.42,92.74L117.65,88.44L118.88,76.81L120.11,78.07L121.34,81.63L123.81,65.63L125.04,71.33L127.5,52.89L128.73,62.52L129.97,66.59L131.2,65.48L132.43,67.26L133.66,55.85L134.89,56.3L136.13,64.37L137.36,50.59L138.59,55.33L139.82,38.81L141.05,46.07L142.29,55.04L143.52,53.56L144.75,58.59L145.98,53.78L147.21,50L148.44,37.7L149.68,52.59L150.91,55.04L152.14,34L153.37,43.41L154.6,43.26L155.84,47.85L157.07,42L158.3,45.26L159.53,49.93L160.76,48.15L162,46.74L163.23,49.26L164.46,56.44L165.69,53.56L168.16,28.44L169.39,46.67L170.62,47.48L171.85,52.89L173.08,54.74L174.31,55.04L175.55,54.89L176.78,32.52L178.01,41.93L179.24,44.96L180.47,38.15L181.71,44.22L182.94,48.89L184.17,37.63L185.4,47.04L186.63,35.41L187.87,45.33L189.1,39.7L190.33,51.19L191.56,30.67L192.79,47.04L194.03,29.7L195.26,42.07L196.49,36.96L197.72,43.33L198.95,25.11L200.18,27.56L201.42,47.11L202.65,46.96L203.88,24.59L205.11,44.52L206.34,33.19L207.58,38.22L208.81,35.63L210.04,40.15L211.27,34.96L213.74,40.74L214.97,19.04L216.2,22.67L217.43,30.07L218.66,27.93L219.9,38.22L221.13,29.78L222.36,32.81L223.59,43.78L224.82,33.48L226.05,38.67L227.29,30.81L228.52,32.81L229.75,30.67L230.98,21.26L232.21,25.56L235.91,36.52L237.14,31.7L238.37,17.85L239.61,24.22L240.84,30.96L242.07,32.44L243.3,37.04L244.53,24.37L245.77,30.81L247,30.52L248.23,23.48L249.46,26.89L250.69,25.85L251.92,31.7L253.16,15.93L254.39,31.78L255.62,32L256.85,29.78L258.08,29.56L259.32,23.78L260.55,31.41L261.78,27.85L263.01,36.37L264.24,32.3L265.48,35.04L266.71,32.67L267.94,27.48L269.17,34.44L270.4,21.85L271.64,30L272.87,16.74L274.1,23.7L275.33,12L276.56,32.3L277.79,23.7L279.03,32.3L280.26,36.3L281.49,12.59L282.72,25.48L283.95,19.56L285.19,28.59L286.42,22.44L287.65,15.85L288.88,24.22L290.11,21.85L291.35,12.67L293.81,29.56L295.04,20.07L296.27,13.04L297.51,20L298.74,20.89L299.97,23.93L301.2,28.52L302.43,23.7L303.66,20.59L304.9,30.44L306.13,28.81L307.36,2.67L308.59,22.74L309.82,19.85L311.06,15.04L312.29,18.22L313.52,25.11L314.75,21.33L315.98,26.07L317.22,21.56L318.45,20.15L319.68,20.96L320.91,21.19L322.14,23.11L323.38,14.96L324.61,20.74L325.84,16.81L327.07,24.07L328.3,16.89L329.53,19.11L332,24.22L333.23,22.3L334.46,13.41L335.69,26.74L336.93,20.52L338.16,22.59L339.39,0.67L340.62,15.78L344.32,20.44L345.55,19.48L346.78,25.48L348.01,19.26L349.25,24.07L350.48,19.93L351.71,9.04L352.94,20.96L354.17,11.93L355.4,20.81L357.87,26.67L359.1,26.22L360.33,22L361.56,20.96L362.8,16.59L364.03,24.22L365.26,30L366.49,23.56L367.72,4.3L368.96,27.93L370.19,8.89L371.42,25.7L372.65,5.48L373.88,24.07L375.12,22.67L376.35,16.44L377.58,25.48L378.81,11.56L380.04,10.96L381.27,15.48L382.51,10.96L383.74,18.15L384.97,12.74L386.2,23.7L387.43,14.07L388.67,21.78L389.9,19.56L391.13,19.48L392.36,19.48L393.59,28.3L394.83,9.41L396.06,22.37L397.29,27.04L398.52,27.78L399.75,9.11L400.99,20.3L402.22,1.19L403.45,7.11L404.68,18.3L405.91,19.63L408.38,23.56L409.61,15.63L413.3,31.04L414.54,19.93" style="vector-effect: non-scaling-stroke; fill: none; stroke: rgb(47, 79, 79); stroke-opacity: 1; stroke-width: 3px; opacity: 1;"/></g><g class="points"/><g class="text"/></g><g class="trace scatter trace3e98b3" style="stroke-miterlimit: 2; opacity: 1;"><g class="fills"/><g class="errorbars"/><g class="lines"><path class="js-line" d="M0.62,290L14.17,290L15.4,285.26L28.95,280.44L30.18,273.33L41.27,264.74L42.5,264.22L43.73,262.89L44.96,250.81L53.59,238.59L54.82,237.11L58.52,231.56L59.75,212.44L60.98,211.56L62.21,209.19L64.68,201.78L65.91,200.89L73.3,188.52L74.53,178.74L75.76,169.63L76.99,174.3L78.23,154.3L79.46,158.89L83.15,155.33L84.39,152.15L85.62,150.74L86.85,150.96L88.08,147.19L89.31,139.11L90.55,130.44L91.78,116.3L93.01,118.22L94.24,107.19L95.47,115.26L96.7,113.63L97.94,119.7L99.17,114.59L100.4,112.52L101.63,114.3L102.86,111.78L104.1,101.41L107.79,85.19L109.02,95.48L110.26,97.41L111.49,89.78L112.72,88.81L113.95,94.96L115.18,86.81L116.42,92.67L117.65,87.33L118.88,70.22L120.11,84.59L121.34,70.67L122.57,61.11L123.81,70L126.27,74.96L127.5,75.85L128.73,74.67L129.97,79.04L131.2,71.33L132.43,69.85L133.66,65.7L134.89,52.3L137.36,64.81L138.59,61.56L139.82,45.26L141.05,62.3L145.98,63.11L147.21,60.37L148.44,49.56L149.68,60.44L150.91,47.19L152.14,52.89L153.37,52.15L154.6,50.07L155.84,46.59L157.07,51.78L158.3,56.15L159.53,55.78L162,49.56L163.23,45.93L164.46,53.78L165.69,31.78L168.16,44.74L169.39,46.3L170.62,40.22L171.85,38.52L173.08,49.19L174.31,46.37L175.55,50.15L176.78,34.74L178.01,43.7L179.24,34.3L180.47,46.44L181.71,37.11L182.94,34L184.17,43.41L185.4,32.74L186.63,35.56L187.87,25.7L189.1,35.56L190.33,38.37L191.56,34.15L192.79,35.48L194.03,34.59L195.26,35.19L196.49,40.37L198.95,44.22L200.18,39.19L201.42,46.37L202.65,28.15L203.88,40.59L205.11,43.11L207.58,25.41L208.81,32.74L210.04,25.7L211.27,23.56L213.74,38.44L214.97,18.22L216.2,35.63L217.43,28.74L218.66,28L219.9,36.44L221.13,28.22L222.36,38.44L223.59,19.26L224.82,27.48L226.05,31.26L227.29,38.37L228.52,33.48L229.75,41.04L230.98,15.48L232.21,39.7L233.45,39.41L234.68,23.93L237.14,30.44L238.37,30.44L239.61,22L240.84,28.44L242.07,30.96L243.3,28.81L244.53,37.26L245.77,25.48L247,27.41L248.23,32.96L249.46,28.89L250.69,34.15L251.92,9.63L253.16,33.48L254.39,32.74L255.62,28.22L256.85,25.48L258.08,35.56L259.32,29.26L260.55,16.89L261.78,32.52L263.01,31.48L264.24,13.04L265.48,21.63L266.71,32.15L267.94,17.48L269.17,30.59L270.4,22.3L271.64,31.33L272.87,19.19L274.1,14.52L275.33,20.74L276.56,29.48L277.79,14.96L280.26,28.89L281.49,21.11L282.72,34.89L283.95,33.11L285.19,33.85L286.42,23.11L287.65,27.41L288.88,15.26L291.35,18.74L292.58,26.67L293.81,29.48L295.04,19.85L296.27,34.22L297.51,25.63L298.74,28.89L299.97,-2.81L301.2,22.67L302.43,12.59L303.66,25.19L304.9,13.78L307.36,31.04L308.59,13.19L309.82,25.11L311.06,20.44L313.52,22.22L314.75,20.52L315.98,26L317.22,26.22L318.45,-0.15L319.68,19.78L320.91,25.33L322.14,25.48L323.38,20.52L324.61,25.11L327.07,17.48L328.3,18L329.53,27.04L330.77,22.3L332,10.74L333.23,16.89L334.46,17.85L335.69,12.67L336.93,25.19L338.16,18.81L339.39,18.3L340.62,15.26L341.85,13.85L343.09,22.96L344.32,12.44L345.55,14.96L346.78,23.63L348.01,18.89L349.25,25.11L350.48,9.48L351.71,20.74L352.94,19.11L354.17,11.04L355.4,27.41L357.87,8.67L359.1,18.74L360.33,9.78L361.56,16.37L362.8,6.89L364.03,20.3L365.26,19.56L366.49,17.26L367.72,9.7L368.96,8.67L370.19,21.63L371.42,18.22L372.65,15.41L373.88,23.48L375.12,28.52L376.35,21.19L377.58,28.3L378.81,30.59L381.27,1.85L382.51,21.7L383.74,24.3L384.97,11.48L386.2,17.85L387.43,9.26L388.67,10.96L389.9,17.04L392.36,18.67L393.59,22.89L394.83,15.63L396.06,25.11L398.52,14.81L399.75,25.04L400.99,17.56L402.22,2.07L403.45,25.56L404.68,1.11L405.91,24.37L407.14,32.3L408.38,19.11L409.61,25.78L410.84,10.37L412.07,21.78L413.3,19.33L414.54,22.74" style="vector-effect: non-scaling-stroke; fill: none; stroke: rgb(143, 188, 143); stroke-opacity: 1; stroke-width: 3px; opacity: 1; stroke-dasharray: 3px, 3px;"/></g><g class="points"/><g class="text"/></g><g class="trace scatter traceae44fd" style="stroke-miterlimit: 2; opacity: 1;"><g class="fills"/><g class="errorbars"/><g class="lines"><path class="js-line" d="M0.62,289.26L11.7,289.26L12.94,285.93L17.86,282.67L19.09,282.3L22.79,281.56L24.02,280.89L25.25,276.3L26.49,274.74L30.18,270.52L31.41,269.63L36.34,266.15L37.57,258.52L42.5,248.44L43.73,246.81L48.66,240.44L49.89,227.93L56.05,209.26L57.28,207.93L60.98,200.74L62.21,181.41L65.91,167.19L67.14,165.41L70.83,160.67L72.07,156.67L73.3,155.85L74.53,145.33L75.76,141.19L76.99,119.85L79.46,130.81L80.69,129.93L81.92,129.78L83.15,128.15L84.39,124.15L85.62,124.96L86.85,106.37L88.08,109.7L90.55,95.48L91.78,95.19L93.01,92.37L94.24,95.63L95.47,97.48L96.7,96.89L97.94,93.78L99.17,81.78L100.4,83.19L101.63,68.37L102.86,74.74L104.1,73.19L105.33,72.96L106.56,75.93L107.79,77.56L109.02,74.81L110.26,75.93L111.49,63.41L112.72,63.93L113.95,52.44L115.18,65.11L116.42,50.67L117.65,60.52L118.88,60.37L120.11,62.37L121.34,60.22L122.57,60.37L123.81,54.44L125.04,62L126.27,43.33L127.5,40.52L128.73,57.63L129.97,43.26L131.2,52.15L132.43,58L133.66,40L134.89,57.11L136.13,59.33L138.59,40.96L139.82,50.3L141.05,25.48L142.29,40.37L143.52,51.85L144.75,48.37L145.98,52.96L147.21,48L148.44,46.3L149.68,35.85L150.91,43.04L152.14,32.81L153.37,37.19L154.6,49.26L155.84,50.37L157.07,30.07L158.3,41.48L159.53,43.93L162,33.11L163.23,39.26L164.46,34.96L165.69,44.37L166.92,27.7L168.16,22.81L169.39,39.48L170.62,36.67L173.08,43.48L174.31,34.89L175.55,31.33L176.78,31.04L178.01,21.11L179.24,31.85L180.47,31.78L181.71,21.7L182.94,37.04L184.17,34.67L185.4,38.07L186.63,30.37L187.87,28.52L189.1,29.63L190.33,29.7L191.56,32L192.79,36.3L194.03,26.07L195.26,25.63L196.49,27.56L197.72,32.3L198.95,33.85L200.18,39.33L201.42,16L202.65,31.11L203.88,25.56L205.11,35.63L206.34,37.63L207.58,31.11L208.81,16.3L210.04,33.19L211.27,26.22L212.5,27.33L213.74,35.41L214.97,24.81L216.2,24.22L217.43,10.81L218.66,28.81L219.9,21.04L221.13,32.81L222.36,35.48L223.59,27.85L224.82,33.93L226.05,20.15L227.29,18.81L228.52,31.41L229.75,18.67L230.98,26.44L232.21,13.85L233.45,20.07L234.68,33.33L235.91,30.74L237.14,29.7L238.37,21.7L239.61,23.63L240.84,18.15L242.07,16.96L243.3,30L244.53,27.7L245.77,15.85L247,21.85L248.23,17.56L249.46,27.26L250.69,18.81L251.92,23.19L253.16,20.3L254.39,30.3L255.62,16.67L256.85,25.7L258.08,12.44L260.55,21.33L261.78,25.26L263.01,5.78L264.24,24.67L265.48,28.07L266.71,17.63L267.94,31.93L269.17,22.59L270.4,32.37L271.64,11.33L272.87,16L274.1,16.07L275.33,18.81L276.56,29.78L279.03,13.26L280.26,24.44L281.49,29.63L282.72,24L283.95,7.63L285.19,5.11L286.42,26.81L287.65,30.89L290.11,35.11L291.35,9.11L293.81,28L295.04,8.44L296.27,29.33L297.51,13.56L298.74,29.26L299.97,18.59L301.2,23.78L302.43,19.26L303.66,27.7L304.9,12.81L306.13,15.85L307.36,21.78L308.59,23.78L309.82,6.3L311.06,26.15L312.29,22.15L313.52,22.52L314.75,18.3L315.98,15.78L317.22,18.15L318.45,0.89L319.68,18.37L320.91,20.96L322.14,11.93L323.38,24.37L324.61,7.56L327.07,24.67L328.3,12.22L332,25.41L333.23,16.15L334.46,17.26L335.69,16.15L336.93,-8.3L338.16,30.67L339.39,34.81L340.62,21.41L341.85,24.37L343.09,4.15L345.55,27.85L346.78,24L348.01,23.33L349.25,21.63L350.48,25.41L351.71,11.7L352.94,8.59L354.17,19.56L355.4,25.78L356.64,15.7L359.1,1.56L360.33,16.81L361.56,20.07L362.8,19.33L364.03,6L365.26,17.78L366.49,11.7L367.72,20.59L368.96,12.07L370.19,15.26L371.42,13.19L372.65,22.52L373.88,6.89L375.12,20.44L376.35,25.04L377.58,4.44L378.81,10.22L380.04,25.93L381.27,26.07L382.51,17.33L383.74,21.56L384.97,0.3L386.2,23.56L387.43,28.22L388.67,31.19L389.9,11.26L391.13,22.74L392.36,22.96L394.83,4.59L396.06,23.11L397.29,29.19L398.52,22.67L399.75,14.59L400.99,16.3L402.22,27.04L403.45,16.96L404.68,21.48L405.91,18.15L407.14,17.33L408.38,21.7L410.84,10.22L412.07,18.59L413.3,-10L414.54,26.44" style="vector-effect: non-scaling-stroke; fill: none; stroke: rgb(148, 0, 211); stroke-opacity: 1; stroke-width: 3px; opacity: 1; stroke-dasharray: 9px, 9px;"/></g><g class="points"/><g class="text"/></g><g class="trace scatter trace4071f5" style="stroke-miterlimit: 2; opacity: 1;"><g class="fills"/><g class="errorbars"/><g class="lines"><path class="js-line" d="M0.62,289.63L11.7,289.63L12.94,288.15L14.17,284.81L15.4,283.93L21.56,280.37L22.79,279.93L24.02,279.7L25.25,277.48L26.49,275.19L27.72,270.96L32.65,264.67L33.88,263.19L36.34,261.48L37.57,258.22L40.04,251.26L41.27,244.81L44.96,236.96L46.2,233.93L48.66,230.37L49.89,226.59L53.59,212L54.82,204L56.05,201.93L57.28,198.37L59.75,190.74L60.98,188.96L64.68,175.33L65.91,174.89L67.14,162.3L68.37,165.41L69.6,152L70.83,152.96L72.07,148.89L73.3,147.48L75.76,139.93L76.99,135.93L78.23,135.48L79.46,129.63L81.92,117.93L83.15,115.11L88.08,107.48L89.31,111.48L90.55,99.63L91.78,103.41L94.24,96.22L95.47,96.44L99.17,79.11L100.4,82.89L101.63,80.67L102.86,80.22L104.1,84.44L105.33,74.37L106.56,78.3L107.79,87.63L109.02,76.3L110.26,83.56L111.49,69.11L112.72,69.85L113.95,48.96L115.18,70.37L116.42,69.26L117.65,65.7L118.88,63.26L120.11,69.11L121.34,58.67L122.57,57.41L123.81,56.74L125.04,53.26L127.5,50.22L128.73,52.74L129.97,50.52L131.2,51.7L132.43,46.07L133.66,53.41L134.89,39.93L136.13,54.44L137.36,37.7L138.59,46L139.82,53.41L141.05,47.41L142.29,54.37L143.52,42L144.75,41.56L145.98,45.63L147.21,44.81L148.44,47.63L149.68,49.26L150.91,53.04L153.37,37.26L154.6,44.37L155.84,17.48L157.07,38.15L158.3,38.3L159.53,43.56L160.76,41.93L162,31.26L163.23,43.78L164.46,42.74L165.69,44.52L166.92,39.85L168.16,28.37L169.39,44.22L170.62,36.15L171.85,39.26L173.08,33.41L174.31,38.52L175.55,26.89L176.78,42.81L178.01,32.67L179.24,43.48L180.47,43.41L181.71,36.89L182.94,39.33L184.17,43.78L185.4,39.26L186.63,24.37L187.87,39.7L189.1,39.56L191.56,26.67L192.79,41.93L194.03,29.85L195.26,44.67L196.49,30.15L197.72,35.63L198.95,26.81L200.18,31.19L202.65,37.7L203.88,36.37L205.11,29.48L206.34,35.04L207.58,30.67L208.81,42.07L210.04,39.7L211.27,26.22L213.74,42.52L214.97,38L216.2,34.74L217.43,21.11L218.66,39.85L219.9,39.78L221.13,18.74L222.36,22.96L223.59,27.26L224.82,24.96L226.05,20.44L227.29,31.78L228.52,34.15L229.75,27.93L230.98,24.74L232.21,24.44L233.45,22.07L234.68,24.74L235.91,18.59L237.14,22.59L239.61,33.19L240.84,30.37L242.07,24.81L243.3,35.78L244.53,14.44L245.77,30.52L247,29.26L248.23,33.7L249.46,7.56L250.69,21.41L251.92,18.89L253.16,28.37L254.39,34.96L255.62,24.15L258.08,37.56L259.32,29.26L260.55,32.89L261.78,31.11L263.01,22.3L264.24,26.52L265.48,28.59L266.71,5.93L267.94,24.3L269.17,27.04L270.4,27.48L271.64,33.41L272.87,12.96L274.1,32.22L275.33,12.67L276.56,9.26L279.03,24.59L280.26,16.67L281.49,31.7L282.72,22.74L283.95,30.74L285.19,19.78L286.42,8.07L287.65,25.56L288.88,13.04L290.11,27.41L291.35,12.59L292.58,27.11L293.81,8.15L295.04,24.07L296.27,25.33L297.51,23.48L298.74,26.37L299.97,18.59L301.2,22.15L302.43,31.11L303.66,34.89L304.9,6.15L306.13,18.81L307.36,21.04L308.59,21.48L309.82,18.44L311.06,22.15L312.29,30.15L313.52,22.96L314.75,21.7L315.98,19.48L317.22,31.19L318.45,23.33L319.68,25.11L320.91,27.48L322.14,21.41L323.38,18.81L324.61,30.96L332,15.41L333.23,23.33L334.46,12.74L335.69,14.15L336.93,22.3L338.16,21.33L339.39,30.37L340.62,5.7L341.85,29.7L343.09,22.22L344.32,21.7L345.55,15.11L346.78,-6.59L348.01,20.52L349.25,19.63L350.48,15.93L351.71,19.19L352.94,18.37L354.17,25.04L355.4,26L356.64,28.59L357.87,6.22L359.1,22.74L360.33,21.78L361.56,15.26L362.8,21.04L364.03,11.63L365.26,27.04L366.49,20.37L367.72,6.67L368.96,22.15L370.19,27.48L371.42,0.89L372.65,25.56L373.88,23.78L375.12,14.37L376.35,21.78L377.58,15.85L378.81,-4.74L380.04,13.7L381.27,25.7L382.51,17.41L383.74,22.96L384.97,8.3L387.43,23.48L388.67,7.04L389.9,23.11L391.13,25.78L392.36,25.93L393.59,23.04L394.83,24.44L396.06,10.15L398.52,24.15L399.75,15.33L400.99,16.44L402.22,8.07L403.45,21.26L404.68,14.89L405.91,4.96L407.14,20.96L408.38,29.56L409.61,9.19L410.84,-0.52L412.07,21.93L413.3,15.11L414.54,18.74" style="vector-effect: non-scaling-stroke; fill: none; stroke: rgb(255, 0, 0); stroke-opacity: 1; stroke-width: 3px; opacity: 1; stroke-dasharray: 9px, 3px, 3px, 3px;"/></g><g class="points"/><g class="text"/></g></g></g><g class="overplot"/><path class="xlines-above crisp" style="fill: none; stroke-width: 1px; stroke: rgb(0, 0, 0); stroke-opacity: 1;" d="M78,404.5H505M78,95.5H505"/><path class="ylines-above crisp" style="fill: none; stroke-width: 1px; stroke: rgb(0, 0, 0); stroke-opacity: 1;" d="M78.5,96V404M504.5,96V404"/><g class="overlines-above"/><g class="xaxislayer-above"><g class="xtick"><text text-anchor="middle" x="0" y="441" transform="translate(83.62,0)" style="font-family: 'Times New Roman'; font-size: 30px; fill: rgb(0, 0, 0); fill-opacity: 1; white-space: pre;">0</text></g><g class="xtick"><text text-anchor="middle" x="0" y="441" transform="translate(206.81,0)" style="font-family: 'Times New Roman'; font-size: 30px; fill: rgb(0, 0, 0); fill-opacity: 1; white-space: pre;">100</text></g><g class="xtick"><text text-anchor="middle" x="0" y="441" transform="translate(330,0)" style="font-family: 'Times New Roman'; font-size: 30px; fill: rgb(0, 0, 0); fill-opacity: 1; white-space: pre;">200</text></g><g class="xtick"><text text-anchor="middle" x="0" y="441" transform="translate(453.19,0)" style="font-family: 'Times New Roman'; font-size: 30px; fill: rgb(0, 0, 0); fill-opacity: 1; white-space: pre;">300</text></g></g><g class="yaxislayer-above"><g class="ytick"><text text-anchor="end" x="72" y="10.5" transform="translate(0,400)" style="font-family: 'Times New Roman'; font-size: 30px; fill: rgb(0, 0, 0); fill-opacity: 1; white-space: pre;">1000</text></g><g class="ytick"><text text-anchor="end" x="72" y="10.5" transform="translate(0,325.93)" style="font-family: 'Times New Roman'; font-size: 30px; fill: rgb(0, 0, 0); fill-opacity: 1; white-space: pre;">2000</text></g><g class="ytick"><text text-anchor="end" x="72" y="10.5" transform="translate(0,251.85)" style="font-family: 'Times New Roman'; font-size: 30px; fill: rgb(0, 0, 0); fill-opacity: 1; white-space: pre;">3000</text></g><g class="ytick"><text text-anchor="end" x="72" y="10.5" transform="translate(0,177.78)" style="font-family: 'Times New Roman'; font-size: 30px; fill: rgb(0, 0, 0); fill-opacity: 1; white-space: pre;">4000</text></g><g class="ytick"><text text-anchor="end" x="72" y="10.5" transform="translate(0,103.7)" style="font-family: 'Times New Roman'; font-size: 30px; fill: rgb(0, 0, 0); fill-opacity: 1; white-space: pre;">5000</text></g></g><g class="overaxes-above"/></g></g><g class="polarlayer"/><g class="ternarylayer"/><g class="geolayer"/><g class="funnelarealayer"/><g class="pielayer"/><g class="treemaplayer"/><g class="sunburstlayer"/><g class="glimages"/><defs id="topdefs-6aaf35"><g class="clips"/><clipPath id="legend6aaf35"><rect width="374" height="52" x="0" y="0"/></clipPath></defs><g class="layer-above"><g class="imagelayer"/><g class="shapelayer"/></g><g class="infolayer"><g class="legend" pointer-events="all" transform="translate(95.51, 40.000000000000014)"><rect class="bg" shape-rendering="crispEdges" style="stroke: rgb(143, 188, 143); stroke-opacity: 1; fill: rgb(0, 0, 0); fill-opacity: 0; stroke-width: 0px;" width="374" height="52" x="0" y="0"/><g class="scrollbox" transform="translate(0, 0)" clip-path="url('#legend6aaf35')"><g class="groups"><g class="traces" style="opacity: 1;" transform="translate(0, 26)"><text class="legendtext" text-anchor="start" x="40" y="11.7" style="font-family: 'Times New Roman'; font-size: 30px; fill: rgb(0, 0, 0); fill-opacity: 1; white-space: pre;">Cpp</text><g class="layers" style="opacity: 1;"><g class="legendfill"/><g class="legendlines"><path class="js-line" d="M5,0h30" style="fill: none; stroke: rgb(47, 79, 79); stroke-opacity: 1; stroke-width: 3px;"/></g><g class="legendsymbols"><g class="legendpoints"/></g></g><rect class="legendtoggle" x="0" y="-21" width="92.515625" height="42" style="fill: rgb(0, 0, 0); fill-opacity: 0;"/></g><g class="traces" style="opacity: 1;" transform="translate(95.015625, 26)"><text class="legendtext" text-anchor="start" x="40" y="11.7" style="font-family: 'Times New Roman'; font-size: 30px; fill: rgb(0, 0, 0); fill-opacity: 1; white-space: pre;">Py</text><g class="layers" style="opacity: 1;"><g class="legendfill"/><g class="legendlines"><path class="js-line" d="M5,0h30" style="fill: none; stroke: rgb(143, 188, 143); stroke-opacity: 1; stroke-dasharray: 3px, 3px; stroke-width: 3px;"/></g><g class="legendsymbols"><g class="legendpoints"/></g></g><rect class="legendtoggle" x="0" y="-21" width="74.1875" height="42" style="fill: rgb(0, 0, 0); fill-opacity: 0;"/></g><g class="traces" style="opacity: 1;" transform="translate(171.703125, 26)"><text class="legendtext" text-anchor="start" x="40" y="11.7" style="font-family: 'Times New Roman'; font-size: 30px; fill: rgb(0, 0, 0); fill-opacity: 1; white-space: pre;">Cppy</text><g class="layers" style="opacity: 1;"><g class="legendfill"/><g class="legendlines"><path class="js-line" d="M5,0h30" style="fill: none; stroke: rgb(148, 0, 211); stroke-opacity: 1; stroke-dasharray: 9px, 9px; stroke-width: 3px;"/></g><g class="legendsymbols"><g class="legendpoints"/></g></g><rect class="legendtoggle" x="0" y="-21" width="107.515625" height="42" style="fill: rgb(0, 0, 0); fill-opacity: 0;"/></g><g class="traces" style="opacity: 1;" transform="translate(281.71875, 26)"><text class="legendtext" text-anchor="start" x="40" y="11.7" style="font-family: 'Times New Roman'; font-size: 30px; fill: rgb(0, 0, 0); fill-opacity: 1; white-space: pre;">Pyy</text><g class="layers" style="opacity: 1;"><g class="legendfill"/><g class="legendlines"><path class="js-line" d="M5,0h30" style="fill: none; stroke: rgb(255, 0, 0); stroke-opacity: 1; stroke-dasharray: 9px, 3px, 3px, 3px; stroke-width: 3px;"/></g><g class="legendsymbols"><g class="legendpoints"/></g></g><rect class="legendtoggle" x="0" y="-21" width="89.1875" height="42" style="fill: rgb(0, 0, 0); fill-opacity: 0;"/></g></g></g><rect class="scrollbar" rx="20" ry="3" width="0" height="0" style="fill: rgb(128, 139, 164); fill-opacity: 1;" x="0" y="0"/></g><g class="g-gtitle"/><g class="g-xtitle"/><g class="g-ytitle"/></g></svg>