<svg class="main-svg" xmlns="http://www.w3.org/2000/svg" xmlns:xlink="http://www.w3.org/1999/xlink" width="550" height="500" style="" viewBox="0 0 550 500"><rect x="0" y="0" width="550" height="500" style="fill: rgb(0, 0, 0); fill-opacity: 0;"/><defs id="defs-4940e7"><g class="clips"><clipPath id="clip4940e7xyplot" class="plotclip"><rect width="417" height="300"/></clipPath><clipPath class="axesclip" id="clip4940e7x"><rect x="83" y="0" width="417" height="500"/></clipPath><clipPath class="axesclip" id="clip4940e7y"><rect x="0" y="100" width="550" height="300"/></clipPath><clipPath class="axesclip" id="clip4940e7xy"><rect x="83" y="100" width="417" height="300"/></clipPath></g><g class="gradients"/></defs><g class="bglayer"><rect class="bg" x="79" y="96" width="425" height="308" style="fill: rgb(0, 0, 0); fill-opacity: 0; stroke-width: 0;"/></g><g class="layer-below"><g class="imagelayer"/><g class="shapelayer"/></g><g class="cartesianlayer"><g class="subplot xy"><g class="layer-subplot"><g class="shapelayer"/><g class="imagelayer"/></g><g class="gridlayer"><g class="x"/><g class="y"/></g><g class="zerolinelayer"/><path class="xlines-below"/><path class="ylines-below"/><g class="overlines-below"/><g class="xaxislayer-below"/><g class="yaxislayer-below"/><g class="overaxes-below"/><g class="plot" transform="translate(83, 100)" clip-path="url('#clip4940e7xyplot')"><g class="scatterlayer mlayer"><g class="trace scatter trace899e98" style="stroke-miterlimit: 2; opacity: 1;"><g class="fills"/><g class="errorbars"/><g class="lines"><path class="js-line" d="M0.62,290.44L14.17,290.52L15.4,286.22L25.25,283.26L26.49,283.19L28.95,282.59L30.18,275.04L40.04,267.93L41.27,267.48L43.73,265.7L44.96,254.15L54.82,240.96L56.05,239.78L58.52,237.04L59.75,218.74L67.14,204.15L68.37,204.37L69.6,200.37L70.83,198.96L73.3,195.19L74.53,168L75.76,170.44L76.99,166.22L78.23,162.44L79.46,161.93L85.62,152.44L86.85,150.74L88.08,148.67L89.31,135.78L90.55,115.11L91.78,119.56L93.01,118.22L94.24,118.67L95.47,119.04L96.7,116.07L97.94,118.15L99.17,118.07L100.4,113.19L101.63,112.67L102.86,116L104.1,82.07L105.33,105.33L106.56,90.67L107.79,80.74L109.02,92.15L110.26,91.56L111.49,89.33L112.72,90.07L113.95,92.07L115.18,90.37L116.42,92.74L117.65,88.44L118.88,76.81L120.11,78.07L121.34,81.63L123.81,65.63L125.04,71.33L127.5,52.89L128.73,62.52L129.97,66.59L131.2,65.48L132.43,67.26L133.66,55.85L134.89,56.3L136.13,64.37L137.36,50.59L138.59,55.33L139.82,38.81L141.05,46.07L142.29,55.04L143.52,53.56L144.75,58.59L145.98,53.78L147.21,50L148.44,37.7L149.68,52.59L150.91,55.04L152.14,34L153.37,43.41L154.6,43.26L155.84,47.85L157.07,42L158.3,45.26L159.53,49.93L160.76,48.15L162,46.74L163.23,49.26L164.46,56.44L165.69,53.56L168.16,28.44L169.39,46.67L170.62,47.48L171.85,52.89L173.08,54.74L174.31,55.04L175.55,54.89L176.78,32.52L178.01,41.93L179.24,44.96L180.47,38.15L181.71,44.22L182.94,48.89L184.17,37.63L185.4,47.04L186.63,35.41L187.87,45.33L189.1,39.7L190.33,51.19L191.56,30.67L192.79,47.04L194.03,29.7L195.26,42.07L196.49,36.96L197.72,43.33L198.95,25.11L200.18,27.56L201.42,47.11L202.65,46.96L203.88,24.59L205.11,44.52L206.34,33.19L207.58,38.22L208.81,35.63L210.04,40.15L211.27,34.96L213.74,40.74L214.97,19.04L216.2,22.67L217.43,30.07L218.66,27.93L219.9,38.22L221.13,29.78L222.36,32.81L223.59,43.78L224.82,33.48L226.05,38.67L227.29,30.81L228.52,32.81L229.75,30.67L230.98,21.26L232.21,25.56L235.91,36.52L237.14,31.7L238.37,17.85L239.61,24.22L240.84,30.96L242.07,32.44L243.3,37.04L244.53,24.37L245.77,30.81L247,30.52L248.23,23.48L249.46,26.89L250.69,25.85L251.92,31.7L253.16,15.93L254.39,31.78L255.62,32L256.85,29.78L258.08,29.56L259.32,23.78L260.55,31.41L261.78,27.85L263.01,36.37L264.24,32.3L265.48,35.04L266.71,32.67L267.94,27.48L269.17,34.44L270.4,21.85L271.64,30L272.87,16.74L274.1,23.7L275.33,12L276.56,32.3L277.79,23.7L279.03,32.3L280.26,36.3L281.49,12.59L282.72,25.48L283.95,19.56L285.19,28.59L286.42,22.44L287.65,15.85L288.88,24.22L290.11,21.85L291.35,12.67L293.81,29.56L295.04,20.07L296.27,13.04L297.51,20L298.74,20.89L299.97,23.93L301.2,28.52L302.43,23.7L303.66,20.59L304.9,30.44L306.13,28.81L307.36,2.67L308.59,22.74L309.82,19.85L311.06,15.04L312.29,18.22L313.52,25.11L314.75,21.33L315.98,26.07L317.22,21.56L318.45,20.15L319.68,20.96L320.91,21.19L322.14,23.11L323.38,14.96L324.61,20.74L325.84,16.81L327.07,24.07L328.3,16.89L329.53,19.11L332,24.22L333.23,22.3L334.46,13.41L335.69,26.74L336.93,20.52L338.16,22.59L339.39,0.67L340.62,15.78L344.32,20.44L345.55,19.48L346.78,25.48L348.01,19.26L349.25,24.07L350.48,19.93L351.71,9.04L352.94,20.96L354.17,11.93L355.4,20.81L357.87,26.67L359.1,26.22L360.33,22L361.56,20.96L362.8,16.59L364.03,24.22L365.26,30L366.49,23.56L367.72,4.3L368.96,27.93L370.19,8.89L371.42,25.7L372.65,5.48L373.88,24.07L375.12,22.67L376.35,16.44L377.58,25.48L378.81,11.56L380.04,10.96L381.27,15.48L382.51,10.96L383.74,18.15L384.97,12.74L386.2,23.7L387.43,14.07L388.67,21.78L389.9,19.56L391.13,19.48L392.36,19.48L393.59,28.3L394.83,9.41L396.06,22.37L397.29,27.04L398.52,27.78L399.75,9.11L400.99,20.3L402.22,1.19L403.45,7.11L404.68,18.3L405.91,19.63L408.38,23.56L409.61,15.63L413.3,31.04L414.54,19.93" style="vector-effect: non-scaling-stroke; fill: none; stroke: rgb(47, 79, 79); stroke-opacity: 1; stroke-width: 3px; opacity: 1;"/></g><g class="points"/><g class="text"/></g><g class="trace scatter trace7ce9d7" style="stroke-miterlimit: 2; opacity: 1;"><g class="fills"/><g class="errorbars"/><g class="lines"><path class="js-line" d="M0.62,290L14.17,290L15.4,285.26L28.95,280.44L30.18,273.33L41.27,264.74L42.5,264.22L43.73,262.89L44.96,250.81L53.59,238.59L54.82,237.11L58.52,231.56L59.75,212.44L60.98,211.56L62.21,209.19L64.68,201.78L65.91,200.89L73.3,188.52L74.53,178.74L75.76,169.63L76.99,174.3L78.23,154.3L79.46,158.89L83.15,155.33L84.39,152.15L85.62,150.74L86.85,150.96L88.08,147.19L89.31,139.11L90.55,130.44L91.78,116.3L93.01,118.22L94.24,107.19L95.47,115.26L96.7,113.63L97.94,119.7L99.17,114.59L100.4,112.52L101.63,114.3L102.86,111.78L104.1,101.41L107.79,85.19L109.02,95.48L110.26,97.41L111.49,89.78L112.72,88.81L113.95,94.96L115.18,86.81L116.42,92.67L117.65,87.33L118.88,70.22L120.11,84.59L121.34,70.67L122.57,61.11L123.81,70L126.27,74.96L127.5,75.85L128.73,74.67L129.97,79.04L131.2,71.33L132.43,69.85L133.66,65.7L134.89,52.3L137.36,64.81L138.59,61.56L139.82,45.26L141.05,62.3L145.98,63.11L147.21,60.37L148.44,49.56L149.68,60.44L150.91,47.19L152.14,52.89L153.37,52.15L154.6,50.07L155.84,46.59L157.07,51.78L158.3,56.15L159.53,55.78L162,49.56L163.23,45.93L164.46,53.78L165.69,31.78L168.16,44.74L169.39,46.3L170.62,40.22L171.85,38.52L173.08,49.19L174.31,46.37L175.55,50.15L176.78,34.74L178.01,43.7L179.24,34.3L180.47,46.44L181.71,37.11L182.94,34L184.17,43.41L185.4,32.74L186.63,35.56L187.87,25.7L189.1,35.56L190.33,38.37L191.56,34.15L192.79,35.48L194.03,34.59L195.26,35.19L196.49,40.37L198.95,44.22L200.18,39.19L201.42,46.37L202.65,28.15L203.88,40.59L205.11,43.11L207.58,25.41L208.81,32.74L210.04,25.7L211.27,23.56L213.74,38.44L214.97,18.22L216.2,35.63L217.43,28.74L218.66,28L219.9,36.44L221.13,28.22L222.36,38.44L223.59,19.26L224.82,27.48L226.05,31.26L227.29,38.37L228.52,33.48L229.75,41.04L230.98,15.48L232.21,39.7L233.45,39.41L234.68,23.93L237.14,30.44L238.37,30.44L239.61,22L240.84,28.44L242.07,30.96L243.3,28.81L244.53,37.26L245.77,25.48L247,27.41L248.23,32.96L249.46,28.89L250.69,34.15L251.92,9.63L253.16,33.48L254.39,32.74L255.62,28.22L256.85,25.48L258.08,35.56L259.32,29.26L260.55,16.89L261.78,32.52L263.01,31.48L264.24,13.04L265.48,21.63L266.71,32.15L267.94,17.48L269.17,30.59L270.4,22.3L271.64,31.33L272.87,19.19L274.1,14.52L275.33,20.74L276.56,29.48L277.79,14.96L280.26,28.89L281.49,21.11L282.72,34.89L283.95,33.11L285.19,33.85L286.42,23.11L287.65,27.41L288.88,15.26L291.35,18.74L292.58,26.67L293.81,29.48L295.04,19.85L296.27,34.22L297.51,25.63L298.74,28.89L299.97,-2.81L301.2,22.67L302.43,12.59L303.66,25.19L304.9,13.78L307.36,31.04L308.59,13.19L309.82,25.11L311.06,20.44L313.52,22.22L314.75,20.52L315.98,26L317.22,26.22L318.45,-0.15L319.68,19.78L320.91,25.33L322.14,25.48L323.38,20.52L324.61,25.11L327.07,17.48L328.3,18L329.53,27.04L330.77,22.3L332,10.74L333.23,16.89L334.46,17.85L335.69,12.67L336.93,25.19L338.16,18.81L339.39,18.3L340.62,15.26L341.85,13.85L343.09,22.96L344.32,12.44L345.55,14.96L346.78,23.63L348.01,18.89L349.25,25.11L350.48,9.48L351.71,20.74L352.94,19.11L354.17,11.04L355.4,27.41L357.87,8.67L359.1,18.74L360.33,9.78L361.56,16.37L362.8,6.89L364.03,20.3L365.26,19.56L366.49,17.26L367.72,9.7L368.96,8.67L370.19,21.63L371.42,18.22L372.65,15.41L373.88,23.48L375.12,28.52L376.35,21.19L377.58,28.3L378.81,30.59L381.27,1.85L382.51,21.7L383.74,24.3L384.97,11.48L386.2,17.85L387.43,9.26L388.67,10.96L389.9,17.04L392.36,18.67L393.59,22.89L394.83,15.63L396.06,25.11L398.52,14.81L399.75,25.04L400.99,17.56L402.22,2.07L403.45,25.56L404.68,1.11L405.91,24.37L407.14,32.3L408.38,19.11L409.61,25.78L410.84,10.37L412.07,21.78L413.3,19.33L414.54,22.74" style="vector-effect: non-scaling-stroke; fill: none; stroke: rgb(143, 188, 143); stroke-opacity: 1; stroke-width: 3px; opacity: 1; stroke-dasharray: 3px, 3px;"/></g><g class="points"/><g class="text"/></g></g></g><g class="overplot"/><path class="xlines-above crisp" d="M78,404.5H505M78,95.5H505" style="fill: none; stroke-width: 1px; stroke: rgb(0, 0, 0); stroke-opacity: 1;"/><path class="ylines-above crisp" d="M78.5,96V404M504.5,96V404" style="fill: none; stroke-width: 1px; stroke: rgb(0, 0, 0); stroke-opacity: 1;"/><g class="overlines-above"/><g class="xaxislayer-above"><g class="xtick"><text text-anchor="middle" x="0" y="441" transform="translate(83.62,0)" style="font-family: 'Times New Roman'; font-size: 30px; fill: rgb(0, 0, 0); fill-opacity: 1; white-space: pre;">0</text></g><g class="xtick"><text text-anchor="middle" x="0" y="441" transform="translate(206.81,0)" style="font-family: 'Times New Roman'; font-size: 30px; fill: rgb(0, 0, 0); fill-opacity: 1; white-space: pre;">100</text></g><g class="xtick"><text text-anchor="middle" x="0" y="441" transform="translate(330,0)" style="font-family: 'Times New Roman'; font-size: 30px; fill: rgb(0, 0, 0); fill-opacity: 1; white-space: pre;">200</text></g><g class="xtick"><text text-anchor="middle" x="0" y="441" transform="translate(453.19,0)" style="font-family: 'Times New Roman'; font-size: 30px; fill: rgb(0, 0, 0); fill-opacity: 1; white-space: pre;">300</text></g></g><g class="yaxislayer-above"><g class="ytick"><text text-anchor="end" x="72" y="10.5" transform="translate(0,400)" style="font-family: 'Times New Roman'; font-size: 30px; fill: rgb(0, 0, 0); fill-opacity: 1; white-space: pre;">1000</text></g><g class="ytick"><text text-anchor="end" x="72" y="10.5" transform="translate(0,325.93)" style="font-family: 'Times New Roman'; font-size: 30px; fill: rgb(0, 0, 0); fill-opacity: 1; white-space: pre;">2000</text></g><g class="ytick"><text text-anchor="end" x="72" y="10.5" transform="translate(0,251.85)" style="font-family: 'Times New Roman'; font-size: 30px; fill: rgb(0, 0, 0); fill-opacity: 1; white-space: pre;">3000</text></g><g class="ytick"><text text-anchor="end" x="72" y="10.5" transform="translate(0,177.78)" style="font-family: 'Times New Roman'; font-size: 30px; fill: rgb(0, 0, 0); fill-opacity: 1; white-space: pre;">4000</text></g><g class="ytick"><text text-anchor="end" x="72" y="10.5" transform="translate(0,103.7)" style="font-family: 'Times New Roman'; font-size: 30px; fill: rgb(0, 0, 0); fill-opacity: 1; white-space: pre;">5000</text></g></g><g class="overaxes-above"/></g></g><g class="polarlayer"/><g class="ternarylayer"/><g class="geolayer"/><g class="funnelarealayer"/><g class="pielayer"/><g class="treemaplayer"/><g class="sunburstlayer"/><g class="glimages"/><defs id="topdefs-4940e7"><g class="clips"/><clipPath id="legend4940e7"><rect width="172" height="52" x="0" y="0"/></clipPath></defs><g class="layer-above"><g class="imagelayer"/><g class="shapelayer"/></g><g class="infolayer"><g class="legend" pointer-events="all" transform="translate(95.51, 40.000000000000014)"><rect class="bg" shape-rendering="crispEdges" width="172" height="52" x="0" y="0" style="stroke: rgb(143, 188, 143); stroke-opacity: 1; fill: rgb(0, 0, 0); fill-opacity: 0; stroke-width: 0px;"/><g class="scrollbox" transform="translate(0, 0)" clip-path="url('#legend4940e7')"><g class="groups"><g class="traces" transform="translate(0, 26)" style="opacity: 1;"><text class="legendtext" text-anchor="start" x="40" y="11.7" style="font-family: 'Times New Roman'; font-size: 30px; fill: rgb(0, 0, 0); fill-opacity: 1; white-space: pre;">Cpp</text><g class="layers" style="opacity: 1;"><g class="legendfill"/><g class="legendlines"><path class="js-line" d="M5,0h30" style="fill: none; stroke: rgb(47, 79, 79); stroke-opacity: 1; stroke-width: 3px;"/></g><g class="legendsymbols"><g class="legendpoints"/></g></g><rect class="legendtoggle" x="0" y="-21" width="92.515625" height="42" style="fill: rgb(0, 0, 0); fill-opacity: 0;"/></g><g class="traces" transform="translate(95.015625, 26)" style="opacity: 1;"><text class="legendtext" text-anchor="start" x="40" y="11.7" style="font-family: 'Times New Roman'; font-size: 30px; fill: rgb(0, 0, 0); fill-opacity: 1; white-space: pre;">Py</text><g class="layers" style="opacity: 1;"><g class="legendfill"/><g class="legendlines"><path class="js-line" d="M5,0h30" style="fill: none; stroke: rgb(143, 188, 143); stroke-opacity: 1; stroke-dasharray: 3px, 3px; stroke-width: 3px;"/></g><g class="legendsymbols"><g class="legendpoints"/></g></g><rect class="legendtoggle" x="0" y="-21" width="74.1875" height="42" style="fill: rgb(0, 0, 0); fill-opacity: 0;"/></g></g></g><rect class="scrollbar" rx="20" ry="3" width="0" height="0" x="0" y="0" style="fill: rgb(128, 139, 164); fill-opacity: 1;"/></g><g class="g-gtitle"/><g class="g-xtitle"/><g class="g-ytitle"/></g></svg>