<svg class="main-svg" xmlns="http://www.w3.org/2000/svg" xmlns:xlink="http://www.w3.org/1999/xlink" width="400" height="500" style="" viewBox="0 0 400 500"><rect x="0" y="0" width="400" height="500" style="fill: rgb(0, 0, 0); fill-opacity: 0;"/><defs id="defs-98b5e2"><g class="clips"><clipPath id="clip98b5e2xyplot" class="plotclip"><rect width="282" height="300"/></clipPath><clipPath class="axesclip" id="clip98b5e2x"><rect x="68" y="0" width="282" height="500"/></clipPath><clipPath class="axesclip" id="clip98b5e2y"><rect x="0" y="100" width="400" height="300"/></clipPath><clipPath class="axesclip" id="clip98b5e2xy"><rect x="68" y="100" width="282" height="300"/></clipPath></g><g class="gradients"/></defs><g class="bglayer"><rect class="bg" x="64" y="96" width="290" height="308" style="fill: rgb(0, 0, 0); fill-opacity: 0; stroke-width: 0;"/></g><g class="layer-below"><g class="imagelayer"/><g class="shapelayer"/></g><g class="cartesianlayer"><g class="subplot xy"><g class="layer-subplot"><g class="shapelayer"/><g class="imagelayer"/></g><g class="gridlayer"><g class="x"/><g class="y"><path class="ygrid crisp" transform="translate(0,340)" d="M68,0h282" style="stroke: rgb(255, 255, 255); stroke-opacity: 1; stroke-width: 20px;"/><path class="ygrid crisp" transform="translate(0,280)" d="M68,0h282" style="stroke: rgb(255, 255, 255); stroke-opacity: 1; stroke-width: 20px;"/><path class="ygrid crisp" transform="translate(0,220)" d="M68,0h282" style="stroke: rgb(255, 255, 255); stroke-opacity: 1; stroke-width: 20px;"/><path class="ygrid crisp" transform="translate(0,160)" d="M68,0h282" style="stroke: rgb(255, 255, 255); stroke-opacity: 1; stroke-width: 20px;"/></g></g><g class="zerolinelayer"/><path class="xlines-below"/><path class="ylines-below"/><g class="overlines-below"/><g class="xaxislayer-below"/><g class="yaxislayer-below"/><g class="overaxes-below"/><g class="plot" transform="translate(68, 100)" clip-path="url('#clip98b5e2xyplot')"><g class="scatterlayer mlayer"><g class="trace scatter tracef591c0" style="stroke-miterlimit: 2; opacity: 1;"><g class="fills"/><g class="errorbars"><g class="errorbar" style="opacity: 1;"><path class="yerror" d="M10.350000000000001,276.8h20m-10,0V278m-10,0h20" style="vector-effect: non-scaling-stroke; stroke-width: 4px; stroke: rgb(47, 79, 79); stroke-opacity: 1;"/></g><g class="errorbar" style="opacity: 1;"><path class="yerror" d="M131,163.39h20m-10,0V168m-10,0h20" style="vector-effect: non-scaling-stroke; stroke-width: 4px; stroke: rgb(47, 79, 79); stroke-opacity: 1;"/></g><g class="errorbar" style="opacity: 1;"><path class="yerror" d="M251.64999999999998,46h20m-10,0V56m-10,0h20" style="vector-effect: non-scaling-stroke; stroke-width: 4px; stroke: rgb(47, 79, 79); stroke-opacity: 1;"/></g></g><g class="lines"/><g class="points"><path class="point" transform="translate(20.35,277.48)" d="M5,0A5,5 0 1,1 0,-5A5,5 0 0,1 5,0Z" style="opacity: 1; stroke-width: 0px; fill: rgb(47, 79, 79); fill-opacity: 1;"/><path class="point" transform="translate(141,164.39)" d="M5,0A5,5 0 1,1 0,-5A5,5 0 0,1 5,0Z" style="opacity: 1; stroke-width: 0px; fill: rgb(47, 79, 79); fill-opacity: 1;"/><path class="point" transform="translate(261.65,49)" d="M5,0A5,5 0 1,1 0,-5A5,5 0 0,1 5,0Z" style="opacity: 1; stroke-width: 0px; fill: rgb(47, 79, 79); fill-opacity: 1;"/></g><g class="text"/></g><g class="trace scatter tracedbc511" style="stroke-miterlimit: 2; opacity: 1;"><g class="fills"/><g class="errorbars"><g class="errorbar" style="opacity: 1;"><path class="yerror" d="M10.350000000000001,214h20m-10,0V230m-10,0h20" style="vector-effect: non-scaling-stroke; stroke-width: 4px; stroke: rgb(148, 0, 211); stroke-opacity: 1;"/></g><g class="errorbar" style="opacity: 1;"><path class="yerror" d="M131,57.6h20m-10,0V106.8m-10,0h20" style="vector-effect: non-scaling-stroke; stroke-width: 4px; stroke: rgb(148, 0, 211); stroke-opacity: 1;"/></g><g class="errorbar" style="opacity: 1;"><path class="yerror" d="M251.64999999999998,164.75h20m-10,0V192.93m-10,0h20" style="vector-effect: non-scaling-stroke; stroke-width: 4px; stroke: rgb(148, 0, 211); stroke-opacity: 1;"/></g></g><g class="lines"/><g class="points"><path class="point" transform="translate(20.35,220.2)" d="M6.5,0L0,6.5L-6.5,0L0,-6.5Z" style="opacity: 1; stroke-width: 0px; fill: rgb(148, 0, 211); fill-opacity: 1;"/><path class="point" transform="translate(141,91.19)" d="M6.5,0L0,6.5L-6.5,0L0,-6.5Z" style="opacity: 1; stroke-width: 0px; fill: rgb(148, 0, 211); fill-opacity: 1;"/><path class="point" transform="translate(261.65,179.62)" d="M6.5,0L0,6.5L-6.5,0L0,-6.5Z" style="opacity: 1; stroke-width: 0px; fill: rgb(148, 0, 211); fill-opacity: 1;"/></g><g class="text"/></g></g></g><g class="overplot"/><path class="xlines-above crisp" style="fill: none; stroke-width: 1px; stroke: rgb(0, 0, 0); stroke-opacity: 1;" d="M63,404.5H355M63,95.5H355"/><path class="ylines-above crisp" style="fill: none; stroke-width: 1px; stroke: rgb(0, 0, 0); stroke-opacity: 1;" d="M63.5,96V404M354.5,96V404"/><g class="overlines-above"/><g class="xaxislayer-above"><g class="xtick"><text text-anchor="middle" x="0" y="441" transform="translate(88.35,0)" style="font-family: 'Times New Roman'; font-size: 30px; fill: rgb(0, 0, 0); fill-opacity: 1; white-space: pre;">Cpp</text></g><g class="xtick"><text text-anchor="middle" x="0" y="441" transform="translate(209,0)" style="font-family: 'Times New Roman'; font-size: 30px; fill: rgb(0, 0, 0); fill-opacity: 1; white-space: pre;">Py</text></g><g class="xtick"><text text-anchor="middle" x="0" y="441" transform="translate(329.65,0)" style="font-family: 'Times New Roman'; font-size: 30px; fill: rgb(0, 0, 0); fill-opacity: 1; white-space: pre;">Cppy</text></g></g><g class="yaxislayer-above"><g class="ytick"><text text-anchor="end" x="57" y="10.5" transform="translate(0,400)" style="font-family: 'Times New Roman'; font-size: 30px; fill: rgb(0, 0, 0); fill-opacity: 1; white-space: pre;">0</text></g><g class="ytick"><text text-anchor="end" x="57" y="10.5" transform="translate(0,340)" style="font-family: 'Times New Roman'; font-size: 30px; fill: rgb(0, 0, 0); fill-opacity: 1; white-space: pre;">30</text></g><g class="ytick"><text text-anchor="end" x="57" y="10.5" transform="translate(0,280)" style="font-family: 'Times New Roman'; font-size: 30px; fill: rgb(0, 0, 0); fill-opacity: 1; white-space: pre;">60</text></g><g class="ytick"><text text-anchor="end" x="57" y="10.5" transform="translate(0,220)" style="font-family: 'Times New Roman'; font-size: 30px; fill: rgb(0, 0, 0); fill-opacity: 1; white-space: pre;">90</text></g><g class="ytick"><text text-anchor="end" x="57" y="10.5" transform="translate(0,160)" style="font-family: 'Times New Roman'; font-size: 30px; fill: rgb(0, 0, 0); fill-opacity: 1; white-space: pre;">120</text></g><g class="ytick"><text text-anchor="end" x="57" y="10.5" transform="translate(0,100)" style="font-family: 'Times New Roman'; font-size: 30px; fill: rgb(0, 0, 0); fill-opacity: 1; white-space: pre;">150</text></g></g><g class="overaxes-above"/></g></g><g class="polarlayer"/><g class="ternarylayer"/><g class="geolayer"/><g class="funnelarealayer"/><g class="pielayer"/><g class="treemaplayer"/><g class="sunburstlayer"/><g class="glimages"/><defs id="topdefs-98b5e2"><g class="clips"/><clipPath id="legend98b5e2"><rect width="252" height="52" x="0" y="0"/></clipPath></defs><g class="layer-above"><g class="imagelayer"/><g class="shapelayer"/></g><g class="infolayer"><g class="legend" pointer-events="all" transform="translate(82.1, 40.000000000000014)"><rect class="bg" shape-rendering="crispEdges" style="stroke: rgb(143, 188, 143); stroke-opacity: 1; fill: rgb(0, 0, 0); fill-opacity: 0; stroke-width: 0px;" width="252" height="52" x="0" y="0"/><g class="scrollbox" transform="translate(0, 0)" clip-path="url('#legend98b5e2')"><g class="groups"><g class="traces" style="opacity: 1;" transform="translate(0, 26)"><text class="legendtext" text-anchor="start" x="40" y="11.7" style="font-family: 'Times New Roman'; font-size: 30px; fill: rgb(0, 0, 0); fill-opacity: 1; white-space: pre;">Memory</text><g class="layers" style="opacity: 1;"><g class="legendfill"/><g class="legendlines"/><g class="legendsymbols"><g class="legendpoints"><path class="scatterpts" transform="translate(20,0)" d="M5,0A5,5 0 1,1 0,-5A5,5 0 0,1 5,0Z" style="opacity: 1; stroke-width: 0px; fill: rgb(47, 79, 79); fill-opacity: 1;"/></g></g></g><rect class="legendtoggle" x="0" y="-21" width="145.828125" height="42" style="fill: rgb(0, 0, 0); fill-opacity: 0;"/></g><g class="traces" style="opacity: 1;" transform="translate(148.328125, 26)"><text class="legendtext" text-anchor="start" x="40" y="11.7" style="font-family: 'Times New Roman'; font-size: 30px; fill: rgb(0, 0, 0); fill-opacity: 1; white-space: pre;">CPU</text><g class="layers" style="opacity: 1;"><g class="legendfill"/><g class="legendlines"/><g class="legendsymbols"><g class="legendpoints"><path class="scatterpts" transform="translate(20,0)" d="M6.5,0L0,6.5L-6.5,0L0,-6.5Z" style="opacity: 1; stroke-width: 0px; fill: rgb(148, 0, 211); fill-opacity: 1;"/></g></g></g><rect class="legendtoggle" x="0" y="-21" width="100.859375" height="42" style="fill: rgb(0, 0, 0); fill-opacity: 0;"/></g></g></g><rect class="scrollbar" rx="20" ry="3" width="0" height="0" style="fill: rgb(128, 139, 164); fill-opacity: 1;" x="0" y="0"/></g><g class="g-gtitle"/><g class="g-xtitle"/><g class="g-ytitle"/></g></svg>