<?xml version="1.0" encoding="utf-8" standalone="no"?>
<!DOCTYPE svg PUBLIC "-//W3C//DTD SVG 1.1//EN"
  "http://www.w3.org/Graphics/SVG/1.1/DTD/svg11.dtd">
<!-- Created with matplotlib (http://matplotlib.org/) -->
<svg height="453.31125pt" version="1.1" viewBox="0 0 538.465625 453.31125" width="538.465625pt" xmlns="http://www.w3.org/2000/svg" xmlns:xlink="http://www.w3.org/1999/xlink">
 <defs>
  <style type="text/css">
*{stroke-linecap:butt;stroke-linejoin:round;}
  </style>
 </defs>
 <g id="figure_1">
  <g id="patch_1">
   <path d="M 0 453.31125 
L 538.465625 453.31125 
L 538.465625 0 
L 0 0 
z
" style="fill:#ffffff;"/>
  </g>
  <g id="axes_1">
   <g id="patch_2">
    <path d="M 81.365625 398.78 
L 527.765625 398.78 
L 527.765625 10.7 
L 81.365625 10.7 
z
" style="fill:#ffffff;"/>
   </g>
   <g id="PolyCollection_1">
    <defs>
     <path d="M 101.656534 -424.97125 
L 101.656534 -424.97125 
L 102.062758 -424.97125 
L 102.468983 -424.97125 
L 102.875207 -424.97125 
L 103.281432 -424.97125 
L 103.687656 -424.97125 
L 104.093881 -424.97125 
L 104.500105 -424.97125 
L 104.906329 -424.97125 
L 105.312554 -424.97125 
L 105.718778 -424.97125 
L 106.125003 -424.97125 
L 106.531227 -424.97125 
L 106.937451 -424.97125 
L 107.343676 -424.97125 
L 107.7499 -424.97125 
L 108.156125 -424.97125 
L 108.562349 -424.97125 
L 108.968573 -424.97125 
L 109.374798 -424.97125 
L 109.781022 -424.97125 
L 110.187247 -424.97125 
L 110.593471 -424.97125 
L 110.999695 -424.97125 
L 111.40592 -424.97125 
L 111.812144 -424.97125 
L 112.218369 -424.97125 
L 112.624593 -424.97125 
L 113.030817 -424.97125 
L 113.437042 -424.97125 
L 113.843266 -424.97125 
L 114.249491 -424.97125 
L 114.655715 -424.97125 
L 115.061939 -424.97125 
L 115.468164 -424.97125 
L 115.874388 -424.97125 
L 116.280613 -424.97125 
L 116.686837 -424.97125 
L 117.093062 -424.97125 
L 117.499286 -424.97125 
L 117.90551 -424.97125 
L 118.311735 -424.97125 
L 118.717959 -424.97125 
L 119.124184 -424.97125 
L 119.530408 -424.97125 
L 119.936632 -424.97125 
L 120.342857 -424.97125 
L 120.749081 -424.97125 
L 121.155306 -424.97125 
L 121.56153 -424.97125 
L 121.967754 -424.97125 
L 122.373979 -424.97125 
L 122.780203 -424.97125 
L 123.186428 -424.97125 
L 123.592652 -424.97125 
L 123.998876 -424.97125 
L 124.405101 -424.97125 
L 124.811325 -424.97125 
L 125.21755 -424.97125 
L 125.623774 -424.97125 
L 126.029998 -424.97125 
L 126.436223 -424.97125 
L 126.842447 -424.97125 
L 127.248672 -424.97125 
L 127.654896 -424.97125 
L 128.06112 -424.97125 
L 128.467345 -424.97125 
L 128.873569 -424.97125 
L 129.279794 -424.97125 
L 129.686018 -424.97125 
L 130.092243 -424.97125 
L 130.498467 -424.97125 
L 130.904691 -424.97125 
L 131.310916 -424.97125 
L 131.71714 -424.97125 
L 132.123365 -424.97125 
L 132.529589 -424.97125 
L 132.935813 -424.97125 
L 133.342038 -424.97125 
L 133.748262 -424.97125 
L 134.154487 -424.97125 
L 134.560711 -424.97125 
L 134.966935 -424.97125 
L 135.37316 -424.97125 
L 135.779384 -424.97125 
L 136.185609 -424.97125 
L 136.591833 -424.97125 
L 136.998057 -424.97125 
L 137.404282 -424.97125 
L 137.810506 -424.97125 
L 138.216731 -424.97125 
L 138.622955 -424.97125 
L 139.029179 -424.97125 
L 139.435404 -424.97125 
L 139.841628 -424.97125 
L 140.247853 -424.97125 
L 140.654077 -424.97125 
L 141.060301 -424.97125 
L 141.466526 -424.97125 
L 141.87275 -424.97125 
L 142.278975 -424.97125 
L 142.685199 -424.97125 
L 143.091424 -424.97125 
L 143.497648 -424.97125 
L 143.903872 -424.97125 
L 144.310097 -424.97125 
L 144.716321 -424.97125 
L 145.122546 -424.97125 
L 145.52877 -424.97125 
L 145.934994 -424.97125 
L 146.341219 -424.97125 
L 146.747443 -424.97125 
L 147.153668 -424.97125 
L 147.559892 -424.97125 
L 147.966116 -424.97125 
L 148.372341 -424.97125 
L 148.778565 -424.97125 
L 149.18479 -424.97125 
L 149.591014 -424.97125 
L 149.997238 -424.97125 
L 150.403463 -424.97125 
L 150.809687 -424.97125 
L 151.215912 -424.97125 
L 151.622136 -424.97125 
L 152.02836 -424.97125 
L 152.434585 -424.97125 
L 152.840809 -424.97125 
L 153.247034 -424.97125 
L 153.653258 -424.97125 
L 154.059482 -424.97125 
L 154.465707 -424.97125 
L 154.871931 -424.97125 
L 155.278156 -424.97125 
L 155.68438 -424.97125 
L 156.090605 -424.97125 
L 156.496829 -424.97125 
L 156.903053 -424.97125 
L 157.309278 -424.97125 
L 157.715502 -424.97125 
L 158.121727 -424.97125 
L 158.527951 -424.97125 
L 158.934175 -424.97125 
L 159.3404 -424.97125 
L 159.746624 -424.97125 
L 160.152849 -424.97125 
L 160.559073 -424.97125 
L 160.965297 -424.97125 
L 161.371522 -389.69125 
L 161.777746 -389.69125 
L 162.183971 -389.69125 
L 162.590195 -389.69125 
L 162.996419 -389.69125 
L 163.402644 -389.69125 
L 163.808868 -389.69125 
L 164.215093 -389.69125 
L 164.621317 -389.69125 
L 165.027541 -389.69125 
L 165.433766 -389.69125 
L 165.83999 -389.69125 
L 166.246215 -389.69125 
L 166.652439 -389.69125 
L 167.058663 -389.69125 
L 167.464888 -389.69125 
L 167.871112 -389.69125 
L 168.277337 -389.69125 
L 168.683561 -389.69125 
L 169.089786 -389.69125 
L 169.49601 -389.69125 
L 169.902234 -389.69125 
L 170.308459 -389.69125 
L 170.714683 -389.69125 
L 171.120908 -389.69125 
L 171.527132 -389.69125 
L 171.933356 -389.69125 
L 172.339581 -389.69125 
L 172.745805 -389.69125 
L 173.15203 -389.69125 
L 173.558254 -389.69125 
L 173.964478 -389.69125 
L 174.370703 -389.69125 
L 174.776927 -389.69125 
L 175.183152 -389.69125 
L 175.589376 -354.41125 
L 175.9956 -354.41125 
L 176.401825 -354.41125 
L 176.808049 -354.41125 
L 177.214274 -354.41125 
L 177.620498 -354.41125 
L 178.026722 -354.41125 
L 178.432947 -354.41125 
L 178.839171 -354.41125 
L 179.245396 -354.41125 
L 179.65162 -354.41125 
L 180.057844 -354.41125 
L 180.464069 -354.41125 
L 180.870293 -354.41125 
L 181.276518 -354.41125 
L 181.682742 -354.41125 
L 182.088967 -354.41125 
L 182.495191 -354.41125 
L 182.901415 -354.41125 
L 183.30764 -354.41125 
L 183.713864 -354.41125 
L 184.120089 -354.41125 
L 184.526313 -354.41125 
L 184.932537 -354.41125 
L 185.338762 -354.41125 
L 185.744986 -354.41125 
L 186.151211 -354.41125 
L 186.557435 -354.41125 
L 186.963659 -354.41125 
L 187.369884 -354.41125 
L 187.776108 -354.41125 
L 188.182333 -354.41125 
L 188.588557 -354.41125 
L 188.994781 -354.41125 
L 189.401006 -354.41125 
L 189.80723 -354.41125 
L 190.213455 -354.41125 
L 190.619679 -354.41125 
L 191.025903 -354.41125 
L 191.432128 -354.41125 
L 191.838352 -354.41125 
L 192.244577 -354.41125 
L 192.650801 -354.41125 
L 193.057025 -354.41125 
L 193.46325 -354.41125 
L 193.869474 -354.41125 
L 194.275699 -354.41125 
L 194.681923 -354.41125 
L 195.088148 -354.41125 
L 195.494372 -354.41125 
L 195.900596 -354.41125 
L 196.306821 -354.41125 
L 196.713045 -354.41125 
L 197.11927 -354.41125 
L 197.525494 -354.41125 
L 197.931718 -354.41125 
L 198.337943 -354.41125 
L 198.744167 -354.41125 
L 199.150392 -354.41125 
L 199.556616 -354.41125 
L 199.96284 -354.41125 
L 200.369065 -354.41125 
L 200.775289 -354.41125 
L 201.181514 -354.41125 
L 201.587738 -354.41125 
L 201.993962 -354.41125 
L 202.400187 -354.41125 
L 202.806411 -354.41125 
L 203.212636 -354.41125 
L 203.61886 -354.41125 
L 204.025084 -354.41125 
L 204.431309 -354.41125 
L 204.837533 -354.41125 
L 205.243758 -354.41125 
L 205.649982 -354.41125 
L 206.056206 -354.41125 
L 206.462431 -354.41125 
L 206.868655 -354.41125 
L 207.27488 -319.13125 
L 207.681104 -319.13125 
L 208.087329 -319.13125 
L 208.493553 -319.13125 
L 208.899777 -319.13125 
L 209.306002 -319.13125 
L 209.712226 -319.13125 
L 210.118451 -319.13125 
L 210.524675 -319.13125 
L 210.930899 -319.13125 
L 211.337124 -319.13125 
L 211.743348 -319.13125 
L 212.149573 -319.13125 
L 212.555797 -319.13125 
L 212.962021 -319.13125 
L 213.368246 -319.13125 
L 213.77447 -319.13125 
L 214.180695 -319.13125 
L 214.586919 -319.13125 
L 214.993143 -319.13125 
L 215.399368 -319.13125 
L 215.805592 -319.13125 
L 216.211817 -319.13125 
L 216.618041 -319.13125 
L 217.024265 -319.13125 
L 217.43049 -319.13125 
L 217.836714 -319.13125 
L 218.242939 -319.13125 
L 218.649163 -319.13125 
L 219.055387 -319.13125 
L 219.461612 -319.13125 
L 219.867836 -319.13125 
L 220.274061 -319.13125 
L 220.680285 -319.13125 
L 221.08651 -319.13125 
L 221.492734 -319.13125 
L 221.898958 -319.13125 
L 222.305183 -319.13125 
L 222.711407 -319.13125 
L 223.117632 -319.13125 
L 223.523856 -319.13125 
L 223.93008 -319.13125 
L 224.336305 -319.13125 
L 224.742529 -319.13125 
L 225.148754 -319.13125 
L 225.554978 -319.13125 
L 225.961202 -319.13125 
L 226.367427 -319.13125 
L 226.773651 -319.13125 
L 227.179876 -319.13125 
L 227.5861 -319.13125 
L 227.992324 -319.13125 
L 228.398549 -319.13125 
L 228.804773 -319.13125 
L 229.210998 -319.13125 
L 229.617222 -319.13125 
L 230.023446 -319.13125 
L 230.429671 -319.13125 
L 230.835895 -319.13125 
L 231.24212 -319.13125 
L 231.648344 -319.13125 
L 232.054568 -319.13125 
L 232.460793 -319.13125 
L 232.867017 -319.13125 
L 233.273242 -319.13125 
L 233.679466 -319.13125 
L 234.085691 -319.13125 
L 234.491915 -319.13125 
L 234.898139 -319.13125 
L 235.304364 -319.13125 
L 235.710588 -319.13125 
L 236.116813 -319.13125 
L 236.523037 -319.13125 
L 236.929261 -319.13125 
L 237.335486 -319.13125 
L 237.74171 -319.13125 
L 238.147935 -319.13125 
L 238.554159 -319.13125 
L 238.960383 -319.13125 
L 239.366608 -319.13125 
L 239.772832 -319.13125 
L 240.179057 -319.13125 
L 240.585281 -319.13125 
L 240.991505 -319.13125 
L 241.39773 -319.13125 
L 241.803954 -319.13125 
L 242.210179 -319.13125 
L 242.616403 -319.13125 
L 243.022627 -319.13125 
L 243.428852 -319.13125 
L 243.835076 -319.13125 
L 244.241301 -319.13125 
L 244.647525 -319.13125 
L 245.053749 -319.13125 
L 245.459974 -319.13125 
L 245.866198 -319.13125 
L 246.272423 -319.13125 
L 246.678647 -319.13125 
L 247.084872 -319.13125 
L 247.491096 -319.13125 
L 247.89732 -319.13125 
L 248.303545 -319.13125 
L 248.709769 -319.13125 
L 249.115994 -319.13125 
L 249.522218 -319.13125 
L 249.928442 -319.13125 
L 250.334667 -319.13125 
L 250.740891 -319.13125 
L 251.147116 -319.13125 
L 251.55334 -319.13125 
L 251.959564 -319.13125 
L 252.365789 -319.13125 
L 252.772013 -319.13125 
L 253.178238 -319.13125 
L 253.584462 -319.13125 
L 253.990686 -319.13125 
L 254.396911 -319.13125 
L 254.803135 -319.13125 
L 255.20936 -319.13125 
L 255.615584 -319.13125 
L 256.021808 -319.13125 
L 256.428033 -319.13125 
L 256.834257 -319.13125 
L 257.240482 -319.13125 
L 257.646706 -319.13125 
L 258.05293 -319.13125 
L 258.459155 -319.13125 
L 258.865379 -283.85125 
L 259.271604 -283.85125 
L 259.677828 -283.85125 
L 260.084053 -283.85125 
L 260.490277 -283.85125 
L 260.896501 -283.85125 
L 261.302726 -283.85125 
L 261.70895 -283.85125 
L 262.115175 -283.85125 
L 262.521399 -283.85125 
L 262.927623 -283.85125 
L 263.333848 -283.85125 
L 263.740072 -283.85125 
L 264.146297 -283.85125 
L 264.552521 -283.85125 
L 264.958745 -283.85125 
L 265.36497 -283.85125 
L 265.771194 -283.85125 
L 266.177419 -283.85125 
L 266.583643 -283.85125 
L 266.989867 -283.85125 
L 267.396092 -283.85125 
L 267.802316 -283.85125 
L 268.208541 -283.85125 
L 268.614765 -283.85125 
L 269.020989 -283.85125 
L 269.427214 -283.85125 
L 269.833438 -283.85125 
L 270.239663 -283.85125 
L 270.645887 -283.85125 
L 271.052111 -283.85125 
L 271.458336 -283.85125 
L 271.86456 -283.85125 
L 272.270785 -283.85125 
L 272.677009 -283.85125 
L 273.083234 -283.85125 
L 273.489458 -283.85125 
L 273.895682 -283.85125 
L 274.301907 -283.85125 
L 274.708131 -283.85125 
L 275.114356 -283.85125 
L 275.52058 -283.85125 
L 275.926804 -283.85125 
L 276.333029 -248.57125 
L 276.739253 -248.57125 
L 277.145478 -248.57125 
L 277.551702 -248.57125 
L 277.957926 -248.57125 
L 278.364151 -248.57125 
L 278.770375 -248.57125 
L 279.1766 -248.57125 
L 279.582824 -248.57125 
L 279.989048 -248.57125 
L 280.395273 -248.57125 
L 280.801497 -248.57125 
L 281.207722 -248.57125 
L 281.613946 -248.57125 
L 282.02017 -248.57125 
L 282.426395 -248.57125 
L 282.832619 -248.57125 
L 283.238844 -248.57125 
L 283.645068 -248.57125 
L 284.051292 -248.57125 
L 284.457517 -248.57125 
L 284.863741 -248.57125 
L 285.269966 -248.57125 
L 285.67619 -248.57125 
L 286.082415 -248.57125 
L 286.488639 -248.57125 
L 286.894863 -248.57125 
L 287.301088 -248.57125 
L 287.707312 -248.57125 
L 288.113537 -248.57125 
L 288.519761 -248.57125 
L 288.925985 -248.57125 
L 289.33221 -248.57125 
L 289.738434 -248.57125 
L 290.144659 -248.57125 
L 290.550883 -248.57125 
L 290.957107 -248.57125 
L 291.363332 -248.57125 
L 291.769556 -248.57125 
L 292.175781 -248.57125 
L 292.582005 -248.57125 
L 292.988229 -248.57125 
L 293.394454 -248.57125 
L 293.800678 -248.57125 
L 294.206903 -248.57125 
L 294.613127 -248.57125 
L 295.019351 -248.57125 
L 295.425576 -248.57125 
L 295.8318 -248.57125 
L 296.238025 -248.57125 
L 296.644249 -248.57125 
L 297.050473 -248.57125 
L 297.456698 -248.57125 
L 297.862922 -248.57125 
L 298.269147 -248.57125 
L 298.675371 -248.57125 
L 299.081596 -248.57125 
L 299.48782 -248.57125 
L 299.894044 -248.57125 
L 300.300269 -248.57125 
L 300.706493 -248.57125 
L 301.112718 -248.57125 
L 301.518942 -248.57125 
L 301.925166 -248.57125 
L 302.331391 -248.57125 
L 302.737615 -248.57125 
L 303.14384 -248.57125 
L 303.550064 -248.57125 
L 303.956288 -248.57125 
L 304.362513 -248.57125 
L 304.768737 -248.57125 
L 305.174962 -248.57125 
L 305.581186 -248.57125 
L 305.98741 -248.57125 
L 306.393635 -248.57125 
L 306.799859 -248.57125 
L 307.206084 -248.57125 
L 307.612308 -248.57125 
L 308.018532 -248.57125 
L 308.424757 -248.57125 
L 308.830981 -248.57125 
L 309.237206 -248.57125 
L 309.64343 -248.57125 
L 310.049654 -248.57125 
L 310.455879 -248.57125 
L 310.862103 -248.57125 
L 311.268328 -213.29125 
L 311.674552 -213.29125 
L 312.080777 -213.29125 
L 312.487001 -213.29125 
L 312.893225 -213.29125 
L 313.29945 -213.29125 
L 313.705674 -213.29125 
L 314.111899 -213.29125 
L 314.518123 -213.29125 
L 314.924347 -213.29125 
L 315.330572 -213.29125 
L 315.736796 -213.29125 
L 316.143021 -213.29125 
L 316.549245 -213.29125 
L 316.955469 -213.29125 
L 317.361694 -213.29125 
L 317.767918 -213.29125 
L 318.174143 -213.29125 
L 318.580367 -213.29125 
L 318.986591 -213.29125 
L 319.392816 -213.29125 
L 319.79904 -213.29125 
L 320.205265 -213.29125 
L 320.611489 -213.29125 
L 321.017713 -213.29125 
L 321.423938 -213.29125 
L 321.830162 -213.29125 
L 322.236387 -213.29125 
L 322.642611 -213.29125 
L 323.048835 -213.29125 
L 323.45506 -213.29125 
L 323.861284 -213.29125 
L 324.267509 -213.29125 
L 324.673733 -213.29125 
L 325.079958 -213.29125 
L 325.486182 -213.29125 
L 325.892406 -213.29125 
L 326.298631 -213.29125 
L 326.704855 -213.29125 
L 327.11108 -213.29125 
L 327.517304 -213.29125 
L 327.923528 -213.29125 
L 328.329753 -213.29125 
L 328.735977 -213.29125 
L 329.142202 -213.29125 
L 329.548426 -213.29125 
L 329.95465 -213.29125 
L 330.360875 -213.29125 
L 330.767099 -213.29125 
L 331.173324 -213.29125 
L 331.579548 -213.29125 
L 331.985772 -213.29125 
L 332.391997 -213.29125 
L 332.798221 -213.29125 
L 333.204446 -213.29125 
L 333.61067 -213.29125 
L 334.016894 -213.29125 
L 334.423119 -213.29125 
L 334.829343 -213.29125 
L 335.235568 -213.29125 
L 335.641792 -213.29125 
L 336.048016 -213.29125 
L 336.454241 -213.29125 
L 336.860465 -213.29125 
L 337.26669 -213.29125 
L 337.672914 -178.01125 
L 338.079139 -178.01125 
L 338.485363 -178.01125 
L 338.891587 -178.01125 
L 339.297812 -178.01125 
L 339.704036 -178.01125 
L 340.110261 -178.01125 
L 340.516485 -178.01125 
L 340.922709 -178.01125 
L 341.328934 -178.01125 
L 341.735158 -178.01125 
L 342.141383 -178.01125 
L 342.547607 -178.01125 
L 342.953831 -178.01125 
L 343.360056 -178.01125 
L 343.76628 -178.01125 
L 344.172505 -178.01125 
L 344.578729 -178.01125 
L 344.984953 -178.01125 
L 345.391178 -178.01125 
L 345.797402 -178.01125 
L 346.203627 -178.01125 
L 346.609851 -178.01125 
L 347.016075 -178.01125 
L 347.4223 -178.01125 
L 347.828524 -178.01125 
L 348.234749 -178.01125 
L 348.640973 -178.01125 
L 349.047197 -178.01125 
L 349.453422 -178.01125 
L 349.859646 -178.01125 
L 350.265871 -178.01125 
L 350.672095 -178.01125 
L 351.07832 -178.01125 
L 351.484544 -178.01125 
L 351.890768 -178.01125 
L 352.296993 -178.01125 
L 352.703217 -178.01125 
L 353.109442 -178.01125 
L 353.515666 -178.01125 
L 353.92189 -178.01125 
L 354.328115 -178.01125 
L 354.734339 -178.01125 
L 355.140564 -178.01125 
L 355.546788 -178.01125 
L 355.953012 -178.01125 
L 356.359237 -178.01125 
L 356.765461 -178.01125 
L 357.171686 -178.01125 
L 357.57791 -178.01125 
L 357.984134 -178.01125 
L 358.390359 -178.01125 
L 358.796583 -178.01125 
L 359.202808 -178.01125 
L 359.609032 -178.01125 
L 360.015256 -178.01125 
L 360.421481 -178.01125 
L 360.827705 -178.01125 
L 361.23393 -178.01125 
L 361.640154 -178.01125 
L 362.046378 -178.01125 
L 362.452603 -178.01125 
L 362.858827 -178.01125 
L 363.265052 -178.01125 
L 363.671276 -178.01125 
L 364.077501 -178.01125 
L 364.483725 -178.01125 
L 364.889949 -178.01125 
L 365.296174 -178.01125 
L 365.702398 -178.01125 
L 366.108623 -178.01125 
L 366.514847 -178.01125 
L 366.921071 -178.01125 
L 367.327296 -178.01125 
L 367.73352 -178.01125 
L 368.139745 -178.01125 
L 368.545969 -178.01125 
L 368.952193 -178.01125 
L 369.358418 -178.01125 
L 369.764642 -178.01125 
L 370.170867 -178.01125 
L 370.577091 -178.01125 
L 370.983315 -178.01125 
L 371.38954 -178.01125 
L 371.795764 -178.01125 
L 372.201989 -178.01125 
L 372.608213 -178.01125 
L 373.014437 -178.01125 
L 373.420662 -178.01125 
L 373.826886 -178.01125 
L 374.233111 -178.01125 
L 374.639335 -178.01125 
L 375.045559 -178.01125 
L 375.451784 -178.01125 
L 375.858008 -178.01125 
L 376.264233 -178.01125 
L 376.670457 -178.01125 
L 377.076682 -178.01125 
L 377.482906 -178.01125 
L 377.88913 -178.01125 
L 378.295355 -178.01125 
L 378.701579 -178.01125 
L 379.107804 -178.01125 
L 379.514028 -178.01125 
L 379.920252 -178.01125 
L 380.326477 -178.01125 
L 380.732701 -178.01125 
L 381.138926 -178.01125 
L 381.54515 -178.01125 
L 381.951374 -178.01125 
L 382.357599 -178.01125 
L 382.763823 -178.01125 
L 383.170048 -178.01125 
L 383.576272 -178.01125 
L 383.982496 -178.01125 
L 384.388721 -178.01125 
L 384.794945 -178.01125 
L 385.20117 -178.01125 
L 385.607394 -178.01125 
L 386.013618 -178.01125 
L 386.419843 -178.01125 
L 386.826067 -178.01125 
L 387.232292 -178.01125 
L 387.638516 -178.01125 
L 388.04474 -178.01125 
L 388.450965 -178.01125 
L 388.857189 -178.01125 
L 389.263414 -178.01125 
L 389.669638 -178.01125 
L 390.075863 -178.01125 
L 390.482087 -178.01125 
L 390.888311 -178.01125 
L 391.294536 -178.01125 
L 391.70076 -178.01125 
L 392.106985 -178.01125 
L 392.513209 -178.01125 
L 392.919433 -178.01125 
L 393.325658 -178.01125 
L 393.731882 -178.01125 
L 394.138107 -178.01125 
L 394.544331 -178.01125 
L 394.950555 -142.73125 
L 395.35678 -142.73125 
L 395.763004 -142.73125 
L 396.169229 -142.73125 
L 396.575453 -142.73125 
L 396.981677 -142.73125 
L 397.387902 -142.73125 
L 397.794126 -142.73125 
L 398.200351 -142.73125 
L 398.606575 -142.73125 
L 399.012799 -142.73125 
L 399.419024 -142.73125 
L 399.825248 -142.73125 
L 400.231473 -142.73125 
L 400.637697 -142.73125 
L 401.043921 -142.73125 
L 401.450146 -142.73125 
L 401.85637 -142.73125 
L 402.262595 -142.73125 
L 402.668819 -142.73125 
L 403.075044 -142.73125 
L 403.481268 -142.73125 
L 403.887492 -142.73125 
L 404.293717 -142.73125 
L 404.699941 -142.73125 
L 405.106166 -142.73125 
L 405.51239 -142.73125 
L 405.918614 -142.73125 
L 406.324839 -142.73125 
L 406.731063 -142.73125 
L 407.137288 -142.73125 
L 407.543512 -142.73125 
L 407.949736 -142.73125 
L 408.355961 -142.73125 
L 408.762185 -142.73125 
L 409.16841 -142.73125 
L 409.574634 -142.73125 
L 409.980858 -142.73125 
L 410.387083 -142.73125 
L 410.793307 -142.73125 
L 411.199532 -142.73125 
L 411.605756 -142.73125 
L 412.01198 -142.73125 
L 412.418205 -142.73125 
L 412.824429 -142.73125 
L 413.230654 -142.73125 
L 413.636878 -142.73125 
L 414.043102 -142.73125 
L 414.449327 -142.73125 
L 414.855551 -142.73125 
L 415.261776 -142.73125 
L 415.668 -142.73125 
L 416.074225 -142.73125 
L 416.480449 -142.73125 
L 416.886673 -142.73125 
L 417.292898 -142.73125 
L 417.699122 -142.73125 
L 418.105347 -142.73125 
L 418.511571 -142.73125 
L 418.917795 -142.73125 
L 419.32402 -142.73125 
L 419.730244 -142.73125 
L 420.136469 -142.73125 
L 420.542693 -142.73125 
L 420.948917 -142.73125 
L 421.355142 -142.73125 
L 421.761366 -142.73125 
L 422.167591 -142.73125 
L 422.573815 -142.73125 
L 422.980039 -142.73125 
L 423.386264 -142.73125 
L 423.792488 -142.73125 
L 424.198713 -142.73125 
L 424.604937 -142.73125 
L 425.011161 -142.73125 
L 425.417386 -142.73125 
L 425.82361 -142.73125 
L 426.229835 -142.73125 
L 426.636059 -142.73125 
L 427.042283 -142.73125 
L 427.448508 -142.73125 
L 427.854732 -142.73125 
L 428.260957 -142.73125 
L 428.667181 -142.73125 
L 429.073406 -142.73125 
L 429.47963 -142.73125 
L 429.885854 -107.45125 
L 430.292079 -107.45125 
L 430.698303 -107.45125 
L 431.104528 -107.45125 
L 431.510752 -107.45125 
L 431.916976 -107.45125 
L 432.323201 -107.45125 
L 432.729425 -107.45125 
L 433.13565 -107.45125 
L 433.541874 -107.45125 
L 433.948098 -107.45125 
L 434.354323 -107.45125 
L 434.760547 -107.45125 
L 435.166772 -107.45125 
L 435.572996 -107.45125 
L 435.97922 -107.45125 
L 436.385445 -107.45125 
L 436.791669 -107.45125 
L 437.197894 -107.45125 
L 437.604118 -107.45125 
L 438.010342 -107.45125 
L 438.416567 -107.45125 
L 438.822791 -107.45125 
L 439.229016 -107.45125 
L 439.63524 -107.45125 
L 440.041464 -107.45125 
L 440.447689 -107.45125 
L 440.853913 -107.45125 
L 441.260138 -107.45125 
L 441.666362 -107.45125 
L 442.072587 -107.45125 
L 442.478811 -107.45125 
L 442.885035 -107.45125 
L 443.29126 -107.45125 
L 443.697484 -107.45125 
L 444.103709 -107.45125 
L 444.509933 -107.45125 
L 444.916157 -107.45125 
L 445.322382 -107.45125 
L 445.728606 -107.45125 
L 446.134831 -107.45125 
L 446.541055 -72.17125 
L 446.947279 -72.17125 
L 447.353504 -72.17125 
L 447.759728 -72.17125 
L 448.165953 -72.17125 
L 448.572177 -72.17125 
L 448.978401 -72.17125 
L 449.384626 -72.17125 
L 449.79085 -72.17125 
L 450.197075 -72.17125 
L 450.603299 -72.17125 
L 451.009523 -72.17125 
L 451.415748 -72.17125 
L 451.821972 -72.17125 
L 452.228197 -72.17125 
L 452.634421 -72.17125 
L 453.040645 -72.17125 
L 453.44687 -72.17125 
L 453.853094 -72.17125 
L 454.259319 -72.17125 
L 454.665543 -72.17125 
L 455.071768 -72.17125 
L 455.477992 -72.17125 
L 455.884216 -72.17125 
L 456.290441 -72.17125 
L 456.696665 -72.17125 
L 457.10289 -72.17125 
L 457.509114 -72.17125 
L 457.915338 -72.17125 
L 458.321563 -72.17125 
L 458.727787 -72.17125 
L 459.134012 -72.17125 
L 459.540236 -72.17125 
L 459.94646 -72.17125 
L 460.352685 -72.17125 
L 460.758909 -72.17125 
L 461.165134 -72.17125 
L 461.571358 -72.17125 
L 461.977582 -72.17125 
L 462.383807 -72.17125 
L 462.790031 -72.17125 
L 463.196256 -72.17125 
L 463.60248 -72.17125 
L 464.008704 -72.17125 
L 464.414929 -72.17125 
L 464.821153 -72.17125 
L 465.227378 -72.17125 
L 465.633602 -72.17125 
L 466.039826 -72.17125 
L 466.446051 -72.17125 
L 466.852275 -72.17125 
L 467.2585 -72.17125 
L 467.664724 -72.17125 
L 468.070949 -72.17125 
L 468.477173 -72.17125 
L 468.883397 -72.17125 
L 469.289622 -72.17125 
L 469.695846 -72.17125 
L 470.102071 -72.17125 
L 470.508295 -72.17125 
L 470.914519 -72.17125 
L 471.320744 -72.17125 
L 471.726968 -72.17125 
L 472.133193 -72.17125 
L 472.539417 -72.17125 
L 472.945641 -72.17125 
L 473.351866 -72.17125 
L 473.75809 -72.17125 
L 474.164315 -72.17125 
L 474.570539 -72.17125 
L 474.976763 -72.17125 
L 475.382988 -72.17125 
L 475.789212 -72.17125 
L 476.195437 -72.17125 
L 476.601661 -72.17125 
L 477.007885 -72.17125 
L 477.41411 -72.17125 
L 477.820334 -72.17125 
L 478.226559 -72.17125 
L 478.632783 -72.17125 
L 479.039007 -72.17125 
L 479.445232 -72.17125 
L 479.851456 -72.17125 
L 480.257681 -72.17125 
L 480.663905 -72.17125 
L 481.07013 -72.17125 
L 481.476354 -72.17125 
L 481.882578 -72.17125 
L 482.288803 -72.17125 
L 482.695027 -72.17125 
L 483.101252 -72.17125 
L 483.507476 -72.17125 
L 483.9137 -72.17125 
L 484.319925 -72.17125 
L 484.726149 -72.17125 
L 485.132374 -72.17125 
L 485.538598 -72.17125 
L 485.944822 -72.17125 
L 486.351047 -72.17125 
L 486.757271 -72.17125 
L 487.163496 -72.17125 
L 487.56972 -72.17125 
L 487.975944 -72.17125 
L 488.382169 -72.17125 
L 488.788393 -72.17125 
L 489.194618 -72.17125 
L 489.600842 -72.17125 
L 490.007066 -72.17125 
L 490.413291 -72.17125 
L 490.819515 -72.17125 
L 491.22574 -72.17125 
L 491.631964 -72.17125 
L 492.038188 -72.17125 
L 492.444413 -72.17125 
L 492.850637 -72.17125 
L 493.256862 -72.17125 
L 493.663086 -72.17125 
L 494.069311 -72.17125 
L 494.475535 -72.17125 
L 494.881759 -72.17125 
L 495.287984 -72.17125 
L 495.694208 -72.17125 
L 496.100433 -72.17125 
L 496.506657 -72.17125 
L 496.912881 -72.17125 
L 497.319106 -72.17125 
L 497.72533 -72.17125 
L 498.131555 -72.17125 
L 498.537779 -72.17125 
L 498.944003 -72.17125 
L 499.350228 -72.17125 
L 499.756452 -72.17125 
L 500.162677 -72.17125 
L 500.568901 -72.17125 
L 500.975125 -72.17125 
L 501.38135 -72.17125 
L 501.787574 -72.17125 
L 502.193799 -72.17125 
L 502.600023 -72.17125 
L 503.006247 -72.17125 
L 503.412472 -72.17125 
L 503.818696 -72.17125 
L 504.224921 -72.17125 
L 504.631145 -72.17125 
L 505.037369 -72.17125 
L 505.443594 -72.17125 
L 505.849818 -72.17125 
L 506.256043 -72.17125 
L 506.662267 -72.17125 
L 507.068492 -72.17125 
L 507.474716 -72.17125 
L 507.474716 -354.41125 
L 507.474716 -354.41125 
L 507.068492 -354.41125 
L 506.662267 -354.41125 
L 506.256043 -354.41125 
L 505.849818 -354.41125 
L 505.443594 -354.41125 
L 505.037369 -354.41125 
L 504.631145 -354.41125 
L 504.224921 -354.41125 
L 503.818696 -354.41125 
L 503.412472 -354.41125 
L 503.006247 -354.41125 
L 502.600023 -354.41125 
L 502.193799 -354.41125 
L 501.787574 -354.41125 
L 501.38135 -354.41125 
L 500.975125 -354.41125 
L 500.568901 -354.41125 
L 500.162677 -354.41125 
L 499.756452 -354.41125 
L 499.350228 -354.41125 
L 498.944003 -354.41125 
L 498.537779 -354.41125 
L 498.131555 -354.41125 
L 497.72533 -354.41125 
L 497.319106 -354.41125 
L 496.912881 -354.41125 
L 496.506657 -354.41125 
L 496.100433 -354.41125 
L 495.694208 -354.41125 
L 495.287984 -354.41125 
L 494.881759 -354.41125 
L 494.475535 -354.41125 
L 494.069311 -354.41125 
L 493.663086 -354.41125 
L 493.256862 -354.41125 
L 492.850637 -354.41125 
L 492.444413 -354.41125 
L 492.038188 -354.41125 
L 491.631964 -354.41125 
L 491.22574 -354.41125 
L 490.819515 -354.41125 
L 490.413291 -354.41125 
L 490.007066 -354.41125 
L 489.600842 -354.41125 
L 489.194618 -354.41125 
L 488.788393 -354.41125 
L 488.382169 -354.41125 
L 487.975944 -354.41125 
L 487.56972 -354.41125 
L 487.163496 -354.41125 
L 486.757271 -354.41125 
L 486.351047 -354.41125 
L 485.944822 -354.41125 
L 485.538598 -354.41125 
L 485.132374 -354.41125 
L 484.726149 -354.41125 
L 484.319925 -354.41125 
L 483.9137 -354.41125 
L 483.507476 -354.41125 
L 483.101252 -354.41125 
L 482.695027 -354.41125 
L 482.288803 -354.41125 
L 481.882578 -354.41125 
L 481.476354 -354.41125 
L 481.07013 -354.41125 
L 480.663905 -354.41125 
L 480.257681 -354.41125 
L 479.851456 -354.41125 
L 479.445232 -354.41125 
L 479.039007 -354.41125 
L 478.632783 -354.41125 
L 478.226559 -354.41125 
L 477.820334 -354.41125 
L 477.41411 -354.41125 
L 477.007885 -354.41125 
L 476.601661 -354.41125 
L 476.195437 -354.41125 
L 475.789212 -354.41125 
L 475.382988 -354.41125 
L 474.976763 -354.41125 
L 474.570539 -354.41125 
L 474.164315 -354.41125 
L 473.75809 -354.41125 
L 473.351866 -354.41125 
L 472.945641 -354.41125 
L 472.539417 -354.41125 
L 472.133193 -354.41125 
L 471.726968 -354.41125 
L 471.320744 -354.41125 
L 470.914519 -354.41125 
L 470.508295 -354.41125 
L 470.102071 -354.41125 
L 469.695846 -354.41125 
L 469.289622 -354.41125 
L 468.883397 -354.41125 
L 468.477173 -354.41125 
L 468.070949 -354.41125 
L 467.664724 -354.41125 
L 467.2585 -354.41125 
L 466.852275 -354.41125 
L 466.446051 -354.41125 
L 466.039826 -354.41125 
L 465.633602 -354.41125 
L 465.227378 -354.41125 
L 464.821153 -354.41125 
L 464.414929 -354.41125 
L 464.008704 -354.41125 
L 463.60248 -354.41125 
L 463.196256 -354.41125 
L 462.790031 -354.41125 
L 462.383807 -354.41125 
L 461.977582 -354.41125 
L 461.571358 -354.41125 
L 461.165134 -354.41125 
L 460.758909 -354.41125 
L 460.352685 -354.41125 
L 459.94646 -354.41125 
L 459.540236 -354.41125 
L 459.134012 -354.41125 
L 458.727787 -354.41125 
L 458.321563 -354.41125 
L 457.915338 -354.41125 
L 457.509114 -354.41125 
L 457.10289 -354.41125 
L 456.696665 -354.41125 
L 456.290441 -354.41125 
L 455.884216 -354.41125 
L 455.477992 -354.41125 
L 455.071768 -354.41125 
L 454.665543 -354.41125 
L 454.259319 -354.41125 
L 453.853094 -354.41125 
L 453.44687 -354.41125 
L 453.040645 -354.41125 
L 452.634421 -354.41125 
L 452.228197 -354.41125 
L 451.821972 -354.41125 
L 451.415748 -354.41125 
L 451.009523 -354.41125 
L 450.603299 -354.41125 
L 450.197075 -354.41125 
L 449.79085 -354.41125 
L 449.384626 -354.41125 
L 448.978401 -354.41125 
L 448.572177 -354.41125 
L 448.165953 -354.41125 
L 447.759728 -354.41125 
L 447.353504 -354.41125 
L 446.947279 -354.41125 
L 446.541055 -354.41125 
L 446.134831 -354.41125 
L 445.728606 -354.41125 
L 445.322382 -354.41125 
L 444.916157 -354.41125 
L 444.509933 -354.41125 
L 444.103709 -354.41125 
L 443.697484 -354.41125 
L 443.29126 -354.41125 
L 442.885035 -354.41125 
L 442.478811 -354.41125 
L 442.072587 -354.41125 
L 441.666362 -354.41125 
L 441.260138 -354.41125 
L 440.853913 -354.41125 
L 440.447689 -354.41125 
L 440.041464 -354.41125 
L 439.63524 -354.41125 
L 439.229016 -354.41125 
L 438.822791 -354.41125 
L 438.416567 -354.41125 
L 438.010342 -354.41125 
L 437.604118 -354.41125 
L 437.197894 -354.41125 
L 436.791669 -354.41125 
L 436.385445 -354.41125 
L 435.97922 -354.41125 
L 435.572996 -354.41125 
L 435.166772 -354.41125 
L 434.760547 -354.41125 
L 434.354323 -354.41125 
L 433.948098 -354.41125 
L 433.541874 -354.41125 
L 433.13565 -354.41125 
L 432.729425 -354.41125 
L 432.323201 -354.41125 
L 431.916976 -354.41125 
L 431.510752 -354.41125 
L 431.104528 -354.41125 
L 430.698303 -354.41125 
L 430.292079 -354.41125 
L 429.885854 -354.41125 
L 429.47963 -354.41125 
L 429.073406 -354.41125 
L 428.667181 -354.41125 
L 428.260957 -354.41125 
L 427.854732 -354.41125 
L 427.448508 -354.41125 
L 427.042283 -354.41125 
L 426.636059 -354.41125 
L 426.229835 -354.41125 
L 425.82361 -354.41125 
L 425.417386 -354.41125 
L 425.011161 -354.41125 
L 424.604937 -354.41125 
L 424.198713 -354.41125 
L 423.792488 -354.41125 
L 423.386264 -354.41125 
L 422.980039 -354.41125 
L 422.573815 -354.41125 
L 422.167591 -354.41125 
L 421.761366 -354.41125 
L 421.355142 -354.41125 
L 420.948917 -354.41125 
L 420.542693 -354.41125 
L 420.136469 -354.41125 
L 419.730244 -354.41125 
L 419.32402 -354.41125 
L 418.917795 -354.41125 
L 418.511571 -354.41125 
L 418.105347 -354.41125 
L 417.699122 -354.41125 
L 417.292898 -354.41125 
L 416.886673 -354.41125 
L 416.480449 -354.41125 
L 416.074225 -354.41125 
L 415.668 -354.41125 
L 415.261776 -354.41125 
L 414.855551 -354.41125 
L 414.449327 -354.41125 
L 414.043102 -354.41125 
L 413.636878 -354.41125 
L 413.230654 -354.41125 
L 412.824429 -354.41125 
L 412.418205 -354.41125 
L 412.01198 -354.41125 
L 411.605756 -354.41125 
L 411.199532 -354.41125 
L 410.793307 -354.41125 
L 410.387083 -354.41125 
L 409.980858 -354.41125 
L 409.574634 -354.41125 
L 409.16841 -354.41125 
L 408.762185 -354.41125 
L 408.355961 -354.41125 
L 407.949736 -354.41125 
L 407.543512 -354.41125 
L 407.137288 -354.41125 
L 406.731063 -354.41125 
L 406.324839 -354.41125 
L 405.918614 -354.41125 
L 405.51239 -354.41125 
L 405.106166 -354.41125 
L 404.699941 -354.41125 
L 404.293717 -354.41125 
L 403.887492 -354.41125 
L 403.481268 -354.41125 
L 403.075044 -354.41125 
L 402.668819 -354.41125 
L 402.262595 -354.41125 
L 401.85637 -354.41125 
L 401.450146 -354.41125 
L 401.043921 -354.41125 
L 400.637697 -354.41125 
L 400.231473 -354.41125 
L 399.825248 -354.41125 
L 399.419024 -354.41125 
L 399.012799 -354.41125 
L 398.606575 -354.41125 
L 398.200351 -354.41125 
L 397.794126 -354.41125 
L 397.387902 -354.41125 
L 396.981677 -354.41125 
L 396.575453 -354.41125 
L 396.169229 -354.41125 
L 395.763004 -354.41125 
L 395.35678 -354.41125 
L 394.950555 -354.41125 
L 394.544331 -354.41125 
L 394.138107 -354.41125 
L 393.731882 -354.41125 
L 393.325658 -354.41125 
L 392.919433 -354.41125 
L 392.513209 -354.41125 
L 392.106985 -354.41125 
L 391.70076 -354.41125 
L 391.294536 -354.41125 
L 390.888311 -354.41125 
L 390.482087 -354.41125 
L 390.075863 -354.41125 
L 389.669638 -354.41125 
L 389.263414 -354.41125 
L 388.857189 -354.41125 
L 388.450965 -354.41125 
L 388.04474 -354.41125 
L 387.638516 -354.41125 
L 387.232292 -354.41125 
L 386.826067 -354.41125 
L 386.419843 -389.69125 
L 386.013618 -389.69125 
L 385.607394 -389.69125 
L 385.20117 -389.69125 
L 384.794945 -389.69125 
L 384.388721 -389.69125 
L 383.982496 -389.69125 
L 383.576272 -389.69125 
L 383.170048 -389.69125 
L 382.763823 -389.69125 
L 382.357599 -389.69125 
L 381.951374 -389.69125 
L 381.54515 -389.69125 
L 381.138926 -389.69125 
L 380.732701 -389.69125 
L 380.326477 -389.69125 
L 379.920252 -389.69125 
L 379.514028 -389.69125 
L 379.107804 -389.69125 
L 378.701579 -389.69125 
L 378.295355 -389.69125 
L 377.88913 -389.69125 
L 377.482906 -389.69125 
L 377.076682 -389.69125 
L 376.670457 -389.69125 
L 376.264233 -389.69125 
L 375.858008 -389.69125 
L 375.451784 -389.69125 
L 375.045559 -389.69125 
L 374.639335 -389.69125 
L 374.233111 -389.69125 
L 373.826886 -389.69125 
L 373.420662 -389.69125 
L 373.014437 -389.69125 
L 372.608213 -389.69125 
L 372.201989 -389.69125 
L 371.795764 -389.69125 
L 371.38954 -389.69125 
L 370.983315 -389.69125 
L 370.577091 -389.69125 
L 370.170867 -389.69125 
L 369.764642 -389.69125 
L 369.358418 -389.69125 
L 368.952193 -389.69125 
L 368.545969 -389.69125 
L 368.139745 -389.69125 
L 367.73352 -389.69125 
L 367.327296 -389.69125 
L 366.921071 -389.69125 
L 366.514847 -389.69125 
L 366.108623 -389.69125 
L 365.702398 -389.69125 
L 365.296174 -389.69125 
L 364.889949 -389.69125 
L 364.483725 -389.69125 
L 364.077501 -389.69125 
L 363.671276 -389.69125 
L 363.265052 -389.69125 
L 362.858827 -389.69125 
L 362.452603 -389.69125 
L 362.046378 -389.69125 
L 361.640154 -389.69125 
L 361.23393 -389.69125 
L 360.827705 -389.69125 
L 360.421481 -389.69125 
L 360.015256 -389.69125 
L 359.609032 -389.69125 
L 359.202808 -389.69125 
L 358.796583 -389.69125 
L 358.390359 -389.69125 
L 357.984134 -389.69125 
L 357.57791 -389.69125 
L 357.171686 -389.69125 
L 356.765461 -389.69125 
L 356.359237 -389.69125 
L 355.953012 -389.69125 
L 355.546788 -389.69125 
L 355.140564 -389.69125 
L 354.734339 -389.69125 
L 354.328115 -389.69125 
L 353.92189 -389.69125 
L 353.515666 -389.69125 
L 353.109442 -389.69125 
L 352.703217 -389.69125 
L 352.296993 -389.69125 
L 351.890768 -389.69125 
L 351.484544 -389.69125 
L 351.07832 -389.69125 
L 350.672095 -389.69125 
L 350.265871 -389.69125 
L 349.859646 -389.69125 
L 349.453422 -389.69125 
L 349.047197 -389.69125 
L 348.640973 -389.69125 
L 348.234749 -389.69125 
L 347.828524 -389.69125 
L 347.4223 -389.69125 
L 347.016075 -389.69125 
L 346.609851 -389.69125 
L 346.203627 -389.69125 
L 345.797402 -389.69125 
L 345.391178 -389.69125 
L 344.984953 -389.69125 
L 344.578729 -389.69125 
L 344.172505 -389.69125 
L 343.76628 -389.69125 
L 343.360056 -389.69125 
L 342.953831 -389.69125 
L 342.547607 -389.69125 
L 342.141383 -389.69125 
L 341.735158 -389.69125 
L 341.328934 -389.69125 
L 340.922709 -389.69125 
L 340.516485 -389.69125 
L 340.110261 -389.69125 
L 339.704036 -389.69125 
L 339.297812 -389.69125 
L 338.891587 -389.69125 
L 338.485363 -389.69125 
L 338.079139 -389.69125 
L 337.672914 -389.69125 
L 337.26669 -389.69125 
L 336.860465 -389.69125 
L 336.454241 -389.69125 
L 336.048016 -389.69125 
L 335.641792 -389.69125 
L 335.235568 -389.69125 
L 334.829343 -389.69125 
L 334.423119 -389.69125 
L 334.016894 -389.69125 
L 333.61067 -389.69125 
L 333.204446 -389.69125 
L 332.798221 -389.69125 
L 332.391997 -389.69125 
L 331.985772 -389.69125 
L 331.579548 -389.69125 
L 331.173324 -389.69125 
L 330.767099 -389.69125 
L 330.360875 -389.69125 
L 329.95465 -389.69125 
L 329.548426 -389.69125 
L 329.142202 -389.69125 
L 328.735977 -389.69125 
L 328.329753 -389.69125 
L 327.923528 -389.69125 
L 327.517304 -389.69125 
L 327.11108 -389.69125 
L 326.704855 -389.69125 
L 326.298631 -389.69125 
L 325.892406 -389.69125 
L 325.486182 -389.69125 
L 325.079958 -389.69125 
L 324.673733 -389.69125 
L 324.267509 -389.69125 
L 323.861284 -389.69125 
L 323.45506 -389.69125 
L 323.048835 -389.69125 
L 322.642611 -389.69125 
L 322.236387 -389.69125 
L 321.830162 -389.69125 
L 321.423938 -389.69125 
L 321.017713 -389.69125 
L 320.611489 -389.69125 
L 320.205265 -389.69125 
L 319.79904 -389.69125 
L 319.392816 -389.69125 
L 318.986591 -389.69125 
L 318.580367 -389.69125 
L 318.174143 -389.69125 
L 317.767918 -389.69125 
L 317.361694 -389.69125 
L 316.955469 -389.69125 
L 316.549245 -389.69125 
L 316.143021 -389.69125 
L 315.736796 -389.69125 
L 315.330572 -389.69125 
L 314.924347 -389.69125 
L 314.518123 -389.69125 
L 314.111899 -389.69125 
L 313.705674 -389.69125 
L 313.29945 -389.69125 
L 312.893225 -389.69125 
L 312.487001 -389.69125 
L 312.080777 -389.69125 
L 311.674552 -389.69125 
L 311.268328 -389.69125 
L 310.862103 -389.69125 
L 310.455879 -389.69125 
L 310.049654 -389.69125 
L 309.64343 -389.69125 
L 309.237206 -389.69125 
L 308.830981 -389.69125 
L 308.424757 -389.69125 
L 308.018532 -389.69125 
L 307.612308 -389.69125 
L 307.206084 -389.69125 
L 306.799859 -389.69125 
L 306.393635 -389.69125 
L 305.98741 -389.69125 
L 305.581186 -389.69125 
L 305.174962 -389.69125 
L 304.768737 -389.69125 
L 304.362513 -389.69125 
L 303.956288 -389.69125 
L 303.550064 -389.69125 
L 303.14384 -389.69125 
L 302.737615 -389.69125 
L 302.331391 -389.69125 
L 301.925166 -389.69125 
L 301.518942 -389.69125 
L 301.112718 -389.69125 
L 300.706493 -389.69125 
L 300.300269 -389.69125 
L 299.894044 -389.69125 
L 299.48782 -389.69125 
L 299.081596 -389.69125 
L 298.675371 -389.69125 
L 298.269147 -389.69125 
L 297.862922 -389.69125 
L 297.456698 -389.69125 
L 297.050473 -389.69125 
L 296.644249 -389.69125 
L 296.238025 -389.69125 
L 295.8318 -389.69125 
L 295.425576 -389.69125 
L 295.019351 -389.69125 
L 294.613127 -389.69125 
L 294.206903 -389.69125 
L 293.800678 -389.69125 
L 293.394454 -389.69125 
L 292.988229 -389.69125 
L 292.582005 -389.69125 
L 292.175781 -389.69125 
L 291.769556 -389.69125 
L 291.363332 -389.69125 
L 290.957107 -389.69125 
L 290.550883 -389.69125 
L 290.144659 -389.69125 
L 289.738434 -389.69125 
L 289.33221 -389.69125 
L 288.925985 -389.69125 
L 288.519761 -389.69125 
L 288.113537 -389.69125 
L 287.707312 -389.69125 
L 287.301088 -389.69125 
L 286.894863 -389.69125 
L 286.488639 -389.69125 
L 286.082415 -389.69125 
L 285.67619 -389.69125 
L 285.269966 -389.69125 
L 284.863741 -389.69125 
L 284.457517 -389.69125 
L 284.051292 -389.69125 
L 283.645068 -389.69125 
L 283.238844 -389.69125 
L 282.832619 -389.69125 
L 282.426395 -389.69125 
L 282.02017 -389.69125 
L 281.613946 -389.69125 
L 281.207722 -389.69125 
L 280.801497 -389.69125 
L 280.395273 -389.69125 
L 279.989048 -389.69125 
L 279.582824 -389.69125 
L 279.1766 -389.69125 
L 278.770375 -389.69125 
L 278.364151 -389.69125 
L 277.957926 -389.69125 
L 277.551702 -389.69125 
L 277.145478 -389.69125 
L 276.739253 -389.69125 
L 276.333029 -389.69125 
L 275.926804 -389.69125 
L 275.52058 -389.69125 
L 275.114356 -389.69125 
L 274.708131 -389.69125 
L 274.301907 -389.69125 
L 273.895682 -389.69125 
L 273.489458 -389.69125 
L 273.083234 -389.69125 
L 272.677009 -389.69125 
L 272.270785 -389.69125 
L 271.86456 -389.69125 
L 271.458336 -389.69125 
L 271.052111 -389.69125 
L 270.645887 -389.69125 
L 270.239663 -389.69125 
L 269.833438 -389.69125 
L 269.427214 -389.69125 
L 269.020989 -389.69125 
L 268.614765 -389.69125 
L 268.208541 -389.69125 
L 267.802316 -389.69125 
L 267.396092 -389.69125 
L 266.989867 -389.69125 
L 266.583643 -389.69125 
L 266.177419 -389.69125 
L 265.771194 -389.69125 
L 265.36497 -389.69125 
L 264.958745 -389.69125 
L 264.552521 -389.69125 
L 264.146297 -389.69125 
L 263.740072 -389.69125 
L 263.333848 -389.69125 
L 262.927623 -389.69125 
L 262.521399 -389.69125 
L 262.115175 -389.69125 
L 261.70895 -389.69125 
L 261.302726 -389.69125 
L 260.896501 -389.69125 
L 260.490277 -389.69125 
L 260.084053 -389.69125 
L 259.677828 -389.69125 
L 259.271604 -389.69125 
L 258.865379 -389.69125 
L 258.459155 -389.69125 
L 258.05293 -389.69125 
L 257.646706 -389.69125 
L 257.240482 -389.69125 
L 256.834257 -389.69125 
L 256.428033 -389.69125 
L 256.021808 -389.69125 
L 255.615584 -389.69125 
L 255.20936 -389.69125 
L 254.803135 -389.69125 
L 254.396911 -389.69125 
L 253.990686 -389.69125 
L 253.584462 -389.69125 
L 253.178238 -389.69125 
L 252.772013 -389.69125 
L 252.365789 -389.69125 
L 251.959564 -389.69125 
L 251.55334 -389.69125 
L 251.147116 -389.69125 
L 250.740891 -389.69125 
L 250.334667 -389.69125 
L 249.928442 -389.69125 
L 249.522218 -389.69125 
L 249.115994 -389.69125 
L 248.709769 -389.69125 
L 248.303545 -389.69125 
L 247.89732 -389.69125 
L 247.491096 -389.69125 
L 247.084872 -389.69125 
L 246.678647 -389.69125 
L 246.272423 -389.69125 
L 245.866198 -389.69125 
L 245.459974 -389.69125 
L 245.053749 -424.97125 
L 244.647525 -424.97125 
L 244.241301 -424.97125 
L 243.835076 -424.97125 
L 243.428852 -424.97125 
L 243.022627 -424.97125 
L 242.616403 -424.97125 
L 242.210179 -424.97125 
L 241.803954 -424.97125 
L 241.39773 -424.97125 
L 240.991505 -424.97125 
L 240.585281 -424.97125 
L 240.179057 -424.97125 
L 239.772832 -424.97125 
L 239.366608 -424.97125 
L 238.960383 -424.97125 
L 238.554159 -424.97125 
L 238.147935 -424.97125 
L 237.74171 -424.97125 
L 237.335486 -424.97125 
L 236.929261 -424.97125 
L 236.523037 -424.97125 
L 236.116813 -424.97125 
L 235.710588 -424.97125 
L 235.304364 -424.97125 
L 234.898139 -424.97125 
L 234.491915 -424.97125 
L 234.085691 -424.97125 
L 233.679466 -424.97125 
L 233.273242 -424.97125 
L 232.867017 -424.97125 
L 232.460793 -424.97125 
L 232.054568 -424.97125 
L 231.648344 -424.97125 
L 231.24212 -424.97125 
L 230.835895 -424.97125 
L 230.429671 -424.97125 
L 230.023446 -424.97125 
L 229.617222 -424.97125 
L 229.210998 -424.97125 
L 228.804773 -424.97125 
L 228.398549 -424.97125 
L 227.992324 -424.97125 
L 227.5861 -424.97125 
L 227.179876 -424.97125 
L 226.773651 -424.97125 
L 226.367427 -424.97125 
L 225.961202 -424.97125 
L 225.554978 -424.97125 
L 225.148754 -424.97125 
L 224.742529 -424.97125 
L 224.336305 -424.97125 
L 223.93008 -424.97125 
L 223.523856 -424.97125 
L 223.117632 -424.97125 
L 222.711407 -424.97125 
L 222.305183 -424.97125 
L 221.898958 -424.97125 
L 221.492734 -424.97125 
L 221.08651 -424.97125 
L 220.680285 -424.97125 
L 220.274061 -424.97125 
L 219.867836 -424.97125 
L 219.461612 -424.97125 
L 219.055387 -424.97125 
L 218.649163 -424.97125 
L 218.242939 -424.97125 
L 217.836714 -424.97125 
L 217.43049 -424.97125 
L 217.024265 -424.97125 
L 216.618041 -424.97125 
L 216.211817 -424.97125 
L 215.805592 -424.97125 
L 215.399368 -424.97125 
L 214.993143 -424.97125 
L 214.586919 -424.97125 
L 214.180695 -424.97125 
L 213.77447 -424.97125 
L 213.368246 -424.97125 
L 212.962021 -424.97125 
L 212.555797 -424.97125 
L 212.149573 -424.97125 
L 211.743348 -424.97125 
L 211.337124 -424.97125 
L 210.930899 -424.97125 
L 210.524675 -424.97125 
L 210.118451 -424.97125 
L 209.712226 -424.97125 
L 209.306002 -424.97125 
L 208.899777 -424.97125 
L 208.493553 -424.97125 
L 208.087329 -424.97125 
L 207.681104 -424.97125 
L 207.27488 -424.97125 
L 206.868655 -424.97125 
L 206.462431 -424.97125 
L 206.056206 -424.97125 
L 205.649982 -424.97125 
L 205.243758 -424.97125 
L 204.837533 -424.97125 
L 204.431309 -424.97125 
L 204.025084 -424.97125 
L 203.61886 -424.97125 
L 203.212636 -424.97125 
L 202.806411 -424.97125 
L 202.400187 -424.97125 
L 201.993962 -424.97125 
L 201.587738 -424.97125 
L 201.181514 -424.97125 
L 200.775289 -424.97125 
L 200.369065 -424.97125 
L 199.96284 -424.97125 
L 199.556616 -424.97125 
L 199.150392 -424.97125 
L 198.744167 -424.97125 
L 198.337943 -424.97125 
L 197.931718 -424.97125 
L 197.525494 -424.97125 
L 197.11927 -424.97125 
L 196.713045 -424.97125 
L 196.306821 -424.97125 
L 195.900596 -424.97125 
L 195.494372 -424.97125 
L 195.088148 -424.97125 
L 194.681923 -424.97125 
L 194.275699 -424.97125 
L 193.869474 -424.97125 
L 193.46325 -424.97125 
L 193.057025 -424.97125 
L 192.650801 -424.97125 
L 192.244577 -424.97125 
L 191.838352 -424.97125 
L 191.432128 -424.97125 
L 191.025903 -424.97125 
L 190.619679 -424.97125 
L 190.213455 -424.97125 
L 189.80723 -424.97125 
L 189.401006 -424.97125 
L 188.994781 -424.97125 
L 188.588557 -424.97125 
L 188.182333 -424.97125 
L 187.776108 -424.97125 
L 187.369884 -424.97125 
L 186.963659 -424.97125 
L 186.557435 -424.97125 
L 186.151211 -424.97125 
L 185.744986 -424.97125 
L 185.338762 -424.97125 
L 184.932537 -424.97125 
L 184.526313 -424.97125 
L 184.120089 -424.97125 
L 183.713864 -424.97125 
L 183.30764 -424.97125 
L 182.901415 -424.97125 
L 182.495191 -424.97125 
L 182.088967 -424.97125 
L 181.682742 -424.97125 
L 181.276518 -424.97125 
L 180.870293 -424.97125 
L 180.464069 -424.97125 
L 180.057844 -424.97125 
L 179.65162 -424.97125 
L 179.245396 -424.97125 
L 178.839171 -424.97125 
L 178.432947 -424.97125 
L 178.026722 -424.97125 
L 177.620498 -424.97125 
L 177.214274 -424.97125 
L 176.808049 -424.97125 
L 176.401825 -424.97125 
L 175.9956 -424.97125 
L 175.589376 -424.97125 
L 175.183152 -424.97125 
L 174.776927 -424.97125 
L 174.370703 -424.97125 
L 173.964478 -424.97125 
L 173.558254 -424.97125 
L 173.15203 -424.97125 
L 172.745805 -424.97125 
L 172.339581 -424.97125 
L 171.933356 -424.97125 
L 171.527132 -424.97125 
L 171.120908 -424.97125 
L 170.714683 -424.97125 
L 170.308459 -424.97125 
L 169.902234 -424.97125 
L 169.49601 -424.97125 
L 169.089786 -424.97125 
L 168.683561 -424.97125 
L 168.277337 -424.97125 
L 167.871112 -424.97125 
L 167.464888 -424.97125 
L 167.058663 -424.97125 
L 166.652439 -424.97125 
L 166.246215 -424.97125 
L 165.83999 -424.97125 
L 165.433766 -424.97125 
L 165.027541 -424.97125 
L 164.621317 -424.97125 
L 164.215093 -424.97125 
L 163.808868 -424.97125 
L 163.402644 -424.97125 
L 162.996419 -424.97125 
L 162.590195 -424.97125 
L 162.183971 -424.97125 
L 161.777746 -424.97125 
L 161.371522 -424.97125 
L 160.965297 -424.97125 
L 160.559073 -424.97125 
L 160.152849 -424.97125 
L 159.746624 -424.97125 
L 159.3404 -424.97125 
L 158.934175 -424.97125 
L 158.527951 -424.97125 
L 158.121727 -424.97125 
L 157.715502 -424.97125 
L 157.309278 -424.97125 
L 156.903053 -424.97125 
L 156.496829 -424.97125 
L 156.090605 -424.97125 
L 155.68438 -424.97125 
L 155.278156 -424.97125 
L 154.871931 -424.97125 
L 154.465707 -424.97125 
L 154.059482 -424.97125 
L 153.653258 -424.97125 
L 153.247034 -424.97125 
L 152.840809 -424.97125 
L 152.434585 -424.97125 
L 152.02836 -424.97125 
L 151.622136 -424.97125 
L 151.215912 -424.97125 
L 150.809687 -424.97125 
L 150.403463 -424.97125 
L 149.997238 -424.97125 
L 149.591014 -424.97125 
L 149.18479 -424.97125 
L 148.778565 -424.97125 
L 148.372341 -424.97125 
L 147.966116 -424.97125 
L 147.559892 -424.97125 
L 147.153668 -424.97125 
L 146.747443 -424.97125 
L 146.341219 -424.97125 
L 145.934994 -424.97125 
L 145.52877 -424.97125 
L 145.122546 -424.97125 
L 144.716321 -424.97125 
L 144.310097 -424.97125 
L 143.903872 -424.97125 
L 143.497648 -424.97125 
L 143.091424 -424.97125 
L 142.685199 -424.97125 
L 142.278975 -424.97125 
L 141.87275 -424.97125 
L 141.466526 -424.97125 
L 141.060301 -424.97125 
L 140.654077 -424.97125 
L 140.247853 -424.97125 
L 139.841628 -424.97125 
L 139.435404 -424.97125 
L 139.029179 -424.97125 
L 138.622955 -424.97125 
L 138.216731 -424.97125 
L 137.810506 -424.97125 
L 137.404282 -424.97125 
L 136.998057 -424.97125 
L 136.591833 -424.97125 
L 136.185609 -424.97125 
L 135.779384 -424.97125 
L 135.37316 -424.97125 
L 134.966935 -424.97125 
L 134.560711 -424.97125 
L 134.154487 -424.97125 
L 133.748262 -424.97125 
L 133.342038 -424.97125 
L 132.935813 -424.97125 
L 132.529589 -424.97125 
L 132.123365 -424.97125 
L 131.71714 -424.97125 
L 131.310916 -424.97125 
L 130.904691 -424.97125 
L 130.498467 -424.97125 
L 130.092243 -424.97125 
L 129.686018 -424.97125 
L 129.279794 -424.97125 
L 128.873569 -424.97125 
L 128.467345 -424.97125 
L 128.06112 -424.97125 
L 127.654896 -424.97125 
L 127.248672 -424.97125 
L 126.842447 -424.97125 
L 126.436223 -424.97125 
L 126.029998 -424.97125 
L 125.623774 -424.97125 
L 125.21755 -424.97125 
L 124.811325 -424.97125 
L 124.405101 -424.97125 
L 123.998876 -424.97125 
L 123.592652 -424.97125 
L 123.186428 -424.97125 
L 122.780203 -424.97125 
L 122.373979 -424.97125 
L 121.967754 -424.97125 
L 121.56153 -424.97125 
L 121.155306 -424.97125 
L 120.749081 -424.97125 
L 120.342857 -424.97125 
L 119.936632 -424.97125 
L 119.530408 -424.97125 
L 119.124184 -424.97125 
L 118.717959 -424.97125 
L 118.311735 -424.97125 
L 117.90551 -424.97125 
L 117.499286 -424.97125 
L 117.093062 -424.97125 
L 116.686837 -424.97125 
L 116.280613 -424.97125 
L 115.874388 -424.97125 
L 115.468164 -424.97125 
L 115.061939 -424.97125 
L 114.655715 -424.97125 
L 114.249491 -424.97125 
L 113.843266 -424.97125 
L 113.437042 -424.97125 
L 113.030817 -424.97125 
L 112.624593 -424.97125 
L 112.218369 -424.97125 
L 111.812144 -424.97125 
L 111.40592 -424.97125 
L 110.999695 -424.97125 
L 110.593471 -424.97125 
L 110.187247 -424.97125 
L 109.781022 -424.97125 
L 109.374798 -424.97125 
L 108.968573 -424.97125 
L 108.562349 -424.97125 
L 108.156125 -424.97125 
L 107.7499 -424.97125 
L 107.343676 -424.97125 
L 106.937451 -424.97125 
L 106.531227 -424.97125 
L 106.125003 -424.97125 
L 105.718778 -424.97125 
L 105.312554 -424.97125 
L 104.906329 -424.97125 
L 104.500105 -424.97125 
L 104.093881 -424.97125 
L 103.687656 -424.97125 
L 103.281432 -424.97125 
L 102.875207 -424.97125 
L 102.468983 -424.97125 
L 102.062758 -424.97125 
L 101.656534 -424.97125 
z
" id="m190cc5f642" style="stroke:#008000;stroke-opacity:0.2;"/>
    </defs>
    <g clip-path="url(#p00b90ed5f5)">
     <use style="fill:#008000;fill-opacity:0.2;stroke:#008000;stroke-opacity:0.2;" x="0" xlink:href="#m190cc5f642" y="453.31125"/>
    </g>
   </g>
   <g id="matplotlib.axis_1">
    <g id="xtick_1">
     <g id="line2d_1">
      <defs>
       <path d="M 0 0 
L 0 3.5 
" id="m2750bbdff2" style="stroke:#000000;stroke-width:0.8;"/>
      </defs>
      <g>
       <use style="stroke:#000000;stroke-width:0.8;" x="101.656534" xlink:href="#m2750bbdff2" y="398.78"/>
      </g>
     </g>
     <g id="text_1">
      <!-- 0 -->
      <defs>
       <path d="M 3.609375 32.71875 
Q 3.609375 44.046875 7.03125 52.21875 
Q 10.453125 60.40625 16.109375 64.40625 
Q 20.515625 67.578125 25.203125 67.578125 
Q 32.8125 67.578125 38.875 59.8125 
Q 46.4375 50.203125 46.4375 33.734375 
Q 46.4375 22.21875 43.109375 14.15625 
Q 39.796875 6.109375 34.640625 2.46875 
Q 29.5 -1.171875 24.703125 -1.171875 
Q 15.234375 -1.171875 8.9375 10.015625 
Q 3.609375 19.4375 3.609375 32.71875 
z
M 13.1875 31.5 
Q 13.1875 17.828125 16.546875 9.1875 
Q 19.34375 1.90625 24.859375 1.90625 
Q 27.484375 1.90625 30.3125 4.265625 
Q 33.15625 6.640625 34.625 12.203125 
Q 36.859375 20.609375 36.859375 35.890625 
Q 36.859375 47.21875 34.515625 54.78125 
Q 32.765625 60.40625 29.984375 62.75 
Q 27.984375 64.359375 25.140625 64.359375 
Q 21.828125 64.359375 19.234375 61.375 
Q 15.71875 57.328125 14.453125 48.625 
Q 13.1875 39.9375 13.1875 31.5 
z
" id="TimesNewRomanPSMT-30"/>
      </defs>
      <g transform="translate(96.656534 419.6675)scale(0.2 -0.2)">
       <use xlink:href="#TimesNewRomanPSMT-30"/>
      </g>
     </g>
    </g>
    <g id="xtick_2">
     <g id="line2d_2">
      <g>
       <use style="stroke:#000000;stroke-width:0.8;" x="182.901415" xlink:href="#m2750bbdff2" y="398.78"/>
      </g>
     </g>
     <g id="text_2">
      <!-- 2 -->
      <defs>
       <path d="M 45.84375 12.75 
L 41.21875 0 
L 2.15625 0 
L 2.15625 1.8125 
Q 19.390625 17.53125 26.421875 27.484375 
Q 33.453125 37.453125 33.453125 45.703125 
Q 33.453125 52 29.59375 56.046875 
Q 25.734375 60.109375 20.359375 60.109375 
Q 15.484375 60.109375 11.59375 57.25 
Q 7.71875 54.390625 5.859375 48.875 
L 4.046875 48.875 
Q 5.28125 57.90625 10.328125 62.734375 
Q 15.375 67.578125 22.953125 67.578125 
Q 31 67.578125 36.390625 62.40625 
Q 41.796875 57.234375 41.796875 50.203125 
Q 41.796875 45.171875 39.453125 40.140625 
Q 35.84375 32.234375 27.734375 23.390625 
Q 15.578125 10.109375 12.546875 7.375 
L 29.828125 7.375 
Q 35.109375 7.375 37.234375 7.765625 
Q 39.359375 8.15625 41.0625 9.34375 
Q 42.78125 10.546875 44.046875 12.75 
z
" id="TimesNewRomanPSMT-32"/>
      </defs>
      <g transform="translate(177.901415 419.6675)scale(0.2 -0.2)">
       <use xlink:href="#TimesNewRomanPSMT-32"/>
      </g>
     </g>
    </g>
    <g id="xtick_3">
     <g id="line2d_3">
      <g>
       <use style="stroke:#000000;stroke-width:0.8;" x="264.146297" xlink:href="#m2750bbdff2" y="398.78"/>
      </g>
     </g>
     <g id="text_3">
      <!-- 4 -->
      <defs>
       <path d="M 46.53125 24.421875 
L 46.53125 17.484375 
L 37.640625 17.484375 
L 37.640625 0 
L 29.59375 0 
L 29.59375 17.484375 
L 1.5625 17.484375 
L 1.5625 23.734375 
L 32.28125 67.578125 
L 37.640625 67.578125 
L 37.640625 24.421875 
z
M 29.59375 24.421875 
L 29.59375 57.28125 
L 6.34375 24.421875 
z
" id="TimesNewRomanPSMT-34"/>
      </defs>
      <g transform="translate(259.146297 419.6675)scale(0.2 -0.2)">
       <use xlink:href="#TimesNewRomanPSMT-34"/>
      </g>
     </g>
    </g>
    <g id="xtick_4">
     <g id="line2d_4">
      <g>
       <use style="stroke:#000000;stroke-width:0.8;" x="345.391178" xlink:href="#m2750bbdff2" y="398.78"/>
      </g>
     </g>
     <g id="text_4">
      <!-- 6 -->
      <defs>
       <path d="M 44.828125 67.578125 
L 44.828125 65.765625 
Q 38.375 65.140625 34.296875 63.203125 
Q 30.21875 61.28125 26.234375 57.328125 
Q 22.265625 53.375 19.65625 48.515625 
Q 17.046875 43.65625 15.28125 36.96875 
Q 22.3125 41.796875 29.390625 41.796875 
Q 36.1875 41.796875 41.15625 36.328125 
Q 46.140625 30.859375 46.140625 22.265625 
Q 46.140625 13.96875 41.109375 7.125 
Q 35.0625 -1.171875 25.09375 -1.171875 
Q 18.3125 -1.171875 13.578125 3.328125 
Q 4.296875 12.0625 4.296875 25.984375 
Q 4.296875 34.859375 7.859375 42.859375 
Q 11.421875 50.875 18.03125 57.078125 
Q 24.65625 63.28125 30.703125 65.421875 
Q 36.765625 67.578125 42 67.578125 
z
M 14.453125 33.40625 
Q 13.578125 26.8125 13.578125 22.75 
Q 13.578125 18.0625 15.3125 12.5625 
Q 17.046875 7.078125 20.453125 3.859375 
Q 22.953125 1.5625 26.515625 1.5625 
Q 30.765625 1.5625 34.109375 5.5625 
Q 37.453125 9.578125 37.453125 17 
Q 37.453125 25.34375 34.125 31.4375 
Q 30.8125 37.546875 24.703125 37.546875 
Q 22.859375 37.546875 20.734375 36.765625 
Q 18.609375 35.984375 14.453125 33.40625 
z
" id="TimesNewRomanPSMT-36"/>
      </defs>
      <g transform="translate(340.391178 419.6675)scale(0.2 -0.2)">
       <use xlink:href="#TimesNewRomanPSMT-36"/>
      </g>
     </g>
    </g>
    <g id="xtick_5">
     <g id="line2d_5">
      <g>
       <use style="stroke:#000000;stroke-width:0.8;" x="426.636059" xlink:href="#m2750bbdff2" y="398.78"/>
      </g>
     </g>
     <g id="text_5">
      <!-- 8 -->
      <defs>
       <path d="M 19.1875 33.34375 
Q 11.328125 39.796875 9.046875 43.703125 
Q 6.78125 47.609375 6.78125 51.8125 
Q 6.78125 58.25 11.765625 62.90625 
Q 16.75 67.578125 25 67.578125 
Q 33.015625 67.578125 37.890625 63.234375 
Q 42.78125 58.890625 42.78125 53.328125 
Q 42.78125 49.609375 40.140625 45.75 
Q 37.5 41.890625 29.15625 36.671875 
Q 37.75 30.03125 40.53125 26.21875 
Q 44.234375 21.234375 44.234375 15.71875 
Q 44.234375 8.734375 38.90625 3.78125 
Q 33.59375 -1.171875 24.953125 -1.171875 
Q 15.53125 -1.171875 10.25 4.734375 
Q 6.0625 9.46875 6.0625 15.09375 
Q 6.0625 19.484375 9.015625 23.796875 
Q 11.96875 28.125 19.1875 33.34375 
z
M 26.859375 38.578125 
Q 32.71875 43.84375 34.28125 46.890625 
Q 35.84375 49.953125 35.84375 53.8125 
Q 35.84375 58.9375 32.953125 61.84375 
Q 30.078125 64.75 25.09375 64.75 
Q 20.125 64.75 17 61.859375 
Q 13.875 58.984375 13.875 55.125 
Q 13.875 52.59375 15.15625 50.046875 
Q 16.453125 47.515625 18.84375 45.21875 
z
M 21.484375 31.5 
Q 17.4375 28.078125 15.484375 24.046875 
Q 13.53125 20.015625 13.53125 15.328125 
Q 13.53125 9.03125 16.96875 5.25 
Q 20.40625 1.46875 25.734375 1.46875 
Q 31 1.46875 34.171875 4.4375 
Q 37.359375 7.421875 37.359375 11.671875 
Q 37.359375 15.1875 35.5 17.96875 
Q 32.03125 23.140625 21.484375 31.5 
z
" id="TimesNewRomanPSMT-38"/>
      </defs>
      <g transform="translate(421.636059 419.6675)scale(0.2 -0.2)">
       <use xlink:href="#TimesNewRomanPSMT-38"/>
      </g>
     </g>
    </g>
    <g id="xtick_6">
     <g id="line2d_6">
      <g>
       <use style="stroke:#000000;stroke-width:0.8;" x="507.88094" xlink:href="#m2750bbdff2" y="398.78"/>
      </g>
     </g>
     <g id="text_6">
      <!-- 10 -->
      <defs>
       <path d="M 11.71875 59.71875 
L 27.828125 67.578125 
L 29.4375 67.578125 
L 29.4375 11.671875 
Q 29.4375 6.109375 29.90625 4.734375 
Q 30.375 3.375 31.828125 2.640625 
Q 33.296875 1.90625 37.796875 1.8125 
L 37.796875 0 
L 12.890625 0 
L 12.890625 1.8125 
Q 17.578125 1.90625 18.9375 2.609375 
Q 20.3125 3.328125 20.84375 4.515625 
Q 21.390625 5.71875 21.390625 11.671875 
L 21.390625 47.40625 
Q 21.390625 54.640625 20.90625 56.6875 
Q 20.5625 58.25 19.65625 58.984375 
Q 18.75 59.71875 17.484375 59.71875 
Q 15.671875 59.71875 12.453125 58.203125 
z
" id="TimesNewRomanPSMT-31"/>
      </defs>
      <g transform="translate(497.88094 419.6675)scale(0.2 -0.2)">
       <use xlink:href="#TimesNewRomanPSMT-31"/>
       <use x="50" xlink:href="#TimesNewRomanPSMT-30"/>
      </g>
     </g>
    </g>
    <g id="text_7">
     <!-- Days -->
     <defs>
      <path d="M 1.703125 0 
L 1.703125 1.8125 
L 4.203125 1.8125 
Q 8.40625 1.8125 10.15625 4.5 
Q 11.234375 6.109375 11.234375 11.71875 
L 11.234375 54.5 
Q 11.234375 60.6875 9.859375 62.25 
Q 7.953125 64.40625 4.203125 64.40625 
L 1.703125 64.40625 
L 1.703125 66.21875 
L 28.65625 66.21875 
Q 43.5 66.21875 51.234375 62.84375 
Q 58.984375 59.46875 63.6875 51.609375 
Q 68.40625 43.75 68.40625 33.453125 
Q 68.40625 19.625 60.015625 10.359375 
Q 50.59375 0 31.296875 0 
z
M 20.609375 4.78125 
Q 26.8125 3.421875 31 3.421875 
Q 42.328125 3.421875 49.796875 11.375 
Q 57.28125 19.34375 57.28125 32.953125 
Q 57.28125 46.6875 49.796875 54.59375 
Q 42.328125 62.5 30.609375 62.5 
Q 26.21875 62.5 20.609375 61.078125 
z
" id="TimesNewRomanPSMT-44"/>
      <path d="M 28.46875 6.453125 
Q 21.578125 1.125 19.828125 0.296875 
Q 17.1875 -0.921875 14.203125 -0.921875 
Q 9.578125 -0.921875 6.5625 2.25 
Q 3.5625 5.421875 3.5625 10.59375 
Q 3.5625 13.875 5.03125 16.265625 
Q 7.03125 19.578125 11.984375 22.5 
Q 16.9375 25.4375 28.46875 29.640625 
L 28.46875 31.390625 
Q 28.46875 38.09375 26.34375 40.578125 
Q 24.21875 43.0625 20.171875 43.0625 
Q 17.09375 43.0625 15.28125 41.40625 
Q 13.421875 39.75 13.421875 37.59375 
L 13.53125 34.765625 
Q 13.53125 32.515625 12.375 31.296875 
Q 11.234375 30.078125 9.375 30.078125 
Q 7.5625 30.078125 6.421875 31.34375 
Q 5.28125 32.625 5.28125 34.8125 
Q 5.28125 39.015625 9.578125 42.53125 
Q 13.875 46.046875 21.625 46.046875 
Q 27.59375 46.046875 31.390625 44.046875 
Q 34.28125 42.53125 35.640625 39.3125 
Q 36.53125 37.203125 36.53125 30.71875 
L 36.53125 15.53125 
Q 36.53125 9.125 36.765625 7.6875 
Q 37.015625 6.25 37.578125 5.765625 
Q 38.140625 5.28125 38.875 5.28125 
Q 39.65625 5.28125 40.234375 5.609375 
Q 41.265625 6.25 44.1875 9.1875 
L 44.1875 6.453125 
Q 38.71875 -0.875 33.734375 -0.875 
Q 31.34375 -0.875 29.921875 0.78125 
Q 28.515625 2.4375 28.46875 6.453125 
z
M 28.46875 9.625 
L 28.46875 26.65625 
Q 21.09375 23.734375 18.953125 22.515625 
Q 15.09375 20.359375 13.421875 18.015625 
Q 11.765625 15.671875 11.765625 12.890625 
Q 11.765625 9.375 13.859375 7.046875 
Q 15.96875 4.734375 18.703125 4.734375 
Q 22.40625 4.734375 28.46875 9.625 
z
" id="TimesNewRomanPSMT-61"/>
      <path d="M 0.59375 44.734375 
L 21.4375 44.734375 
L 21.4375 42.921875 
L 20.40625 42.921875 
Q 18.21875 42.921875 17.109375 41.96875 
Q 16.015625 41.015625 16.015625 39.59375 
Q 16.015625 37.703125 17.625 34.328125 
L 28.515625 11.765625 
L 38.53125 36.46875 
Q 39.359375 38.484375 39.359375 40.4375 
Q 39.359375 41.3125 39.015625 41.75 
Q 38.625 42.28125 37.796875 42.59375 
Q 36.96875 42.921875 34.859375 42.921875 
L 34.859375 44.734375 
L 49.421875 44.734375 
L 49.421875 42.921875 
Q 47.609375 42.71875 46.625 42.125 
Q 45.65625 41.546875 44.484375 39.9375 
Q 44.046875 39.265625 42.828125 36.1875 
L 24.609375 -8.453125 
Q 21.96875 -14.9375 17.6875 -18.25 
Q 13.421875 -21.578125 9.46875 -21.578125 
Q 6.59375 -21.578125 4.734375 -19.921875 
Q 2.875 -18.265625 2.875 -16.109375 
Q 2.875 -14.0625 4.21875 -12.8125 
Q 5.5625 -11.578125 7.90625 -11.578125 
Q 9.515625 -11.578125 12.3125 -12.640625 
Q 14.265625 -13.375 14.75 -13.375 
Q 16.21875 -13.375 17.9375 -11.859375 
Q 19.671875 -10.359375 21.4375 -6 
L 24.609375 1.765625 
L 8.546875 35.5 
Q 7.8125 37.015625 6.203125 39.265625 
Q 4.984375 40.96875 4.203125 41.546875 
Q 3.078125 42.328125 0.59375 42.921875 
z
" id="TimesNewRomanPSMT-79"/>
      <path d="M 32.03125 46.046875 
L 32.03125 30.8125 
L 30.421875 30.8125 
Q 28.5625 37.984375 25.65625 40.578125 
Q 22.75 43.171875 18.265625 43.171875 
Q 14.84375 43.171875 12.734375 41.359375 
Q 10.640625 39.546875 10.640625 37.359375 
Q 10.640625 34.625 12.203125 32.671875 
Q 13.71875 30.671875 18.359375 28.421875 
L 25.484375 24.953125 
Q 35.40625 20.125 35.40625 12.203125 
Q 35.40625 6.109375 30.78125 2.359375 
Q 26.171875 -1.375 20.453125 -1.375 
Q 16.359375 -1.375 11.078125 0.09375 
Q 9.46875 0.59375 8.453125 0.59375 
Q 7.328125 0.59375 6.6875 -0.6875 
L 5.078125 -0.6875 
L 5.078125 15.28125 
L 6.6875 15.28125 
Q 8.0625 8.453125 11.90625 4.984375 
Q 15.765625 1.515625 20.5625 1.515625 
Q 23.921875 1.515625 26.046875 3.484375 
Q 28.171875 5.46875 28.171875 8.25 
Q 28.171875 11.625 25.796875 13.921875 
Q 23.4375 16.21875 16.359375 19.734375 
Q 9.28125 23.25 7.078125 26.078125 
Q 4.890625 28.859375 4.890625 33.109375 
Q 4.890625 38.625 8.671875 42.328125 
Q 12.453125 46.046875 18.453125 46.046875 
Q 21.09375 46.046875 24.859375 44.921875 
Q 27.34375 44.1875 28.171875 44.1875 
Q 28.953125 44.1875 29.390625 44.53125 
Q 29.828125 44.875 30.421875 46.046875 
z
" id="TimesNewRomanPSMT-73"/>
     </defs>
     <g transform="translate(284.0125 441.795625)scale(0.2 -0.2)">
      <use xlink:href="#TimesNewRomanPSMT-44"/>
      <use x="72.216797" xlink:href="#TimesNewRomanPSMT-61"/>
      <use x="116.601562" xlink:href="#TimesNewRomanPSMT-79"/>
      <use x="166.601562" xlink:href="#TimesNewRomanPSMT-73"/>
     </g>
    </g>
   </g>
   <g id="matplotlib.axis_2">
    <g id="ytick_1">
     <g id="line2d_7">
      <defs>
       <path d="M 0 0 
L -3.5 0 
" id="m200206b99f" style="stroke:#000000;stroke-width:0.8;"/>
      </defs>
      <g>
       <use style="stroke:#000000;stroke-width:0.8;" x="81.365625" xlink:href="#m200206b99f" y="381.14"/>
      </g>
     </g>
     <g id="text_8">
      <!-- 0.988 -->
      <defs>
       <path d="M 12.5 9.46875 
Q 14.796875 9.46875 16.359375 7.875 
Q 17.921875 6.296875 17.921875 4.046875 
Q 17.921875 1.8125 16.328125 0.21875 
Q 14.75 -1.375 12.5 -1.375 
Q 10.25 -1.375 8.65625 0.21875 
Q 7.078125 1.8125 7.078125 4.046875 
Q 7.078125 6.34375 8.65625 7.90625 
Q 10.25 9.46875 12.5 9.46875 
z
" id="TimesNewRomanPSMT-2e"/>
       <path d="M 5.28125 -1.375 
L 5.28125 0.4375 
Q 11.625 0.53125 17.09375 3.390625 
Q 22.5625 6.25 27.65625 13.375 
Q 32.765625 20.515625 34.765625 29.046875 
Q 27.09375 24.125 20.90625 24.125 
Q 13.921875 24.125 8.9375 29.515625 
Q 3.953125 34.90625 3.953125 43.84375 
Q 3.953125 52.546875 8.9375 59.328125 
Q 14.9375 67.578125 24.609375 67.578125 
Q 32.765625 67.578125 38.578125 60.84375 
Q 45.703125 52.484375 45.703125 40.234375 
Q 45.703125 29.203125 40.28125 19.65625 
Q 34.859375 10.109375 25.203125 3.8125 
Q 17.328125 -1.375 8.0625 -1.375 
z
M 35.546875 32.671875 
Q 36.421875 39.015625 36.421875 42.828125 
Q 36.421875 47.5625 34.8125 53.046875 
Q 33.203125 58.546875 30.25 61.46875 
Q 27.296875 64.40625 23.53125 64.40625 
Q 19.1875 64.40625 15.90625 60.5 
Q 12.640625 56.59375 12.640625 48.875 
Q 12.640625 38.578125 17 32.765625 
Q 20.171875 28.5625 24.8125 28.5625 
Q 27.046875 28.5625 30.125 29.640625 
Q 33.203125 30.71875 35.546875 32.671875 
z
" id="TimesNewRomanPSMT-39"/>
      </defs>
      <g transform="translate(29.365625 388.08375)scale(0.2 -0.2)">
       <use xlink:href="#TimesNewRomanPSMT-30"/>
       <use x="50" xlink:href="#TimesNewRomanPSMT-2e"/>
       <use x="75" xlink:href="#TimesNewRomanPSMT-39"/>
       <use x="125" xlink:href="#TimesNewRomanPSMT-38"/>
       <use x="175" xlink:href="#TimesNewRomanPSMT-38"/>
      </g>
     </g>
    </g>
    <g id="ytick_2">
     <g id="line2d_8">
      <g>
       <use style="stroke:#000000;stroke-width:0.8;" x="81.365625" xlink:href="#m200206b99f" y="310.58"/>
      </g>
     </g>
     <g id="text_9">
      <!-- 0.990 -->
      <g transform="translate(29.365625 317.52375)scale(0.2 -0.2)">
       <use xlink:href="#TimesNewRomanPSMT-30"/>
       <use x="50" xlink:href="#TimesNewRomanPSMT-2e"/>
       <use x="75" xlink:href="#TimesNewRomanPSMT-39"/>
       <use x="125" xlink:href="#TimesNewRomanPSMT-39"/>
       <use x="175" xlink:href="#TimesNewRomanPSMT-30"/>
      </g>
     </g>
    </g>
    <g id="ytick_3">
     <g id="line2d_9">
      <g>
       <use style="stroke:#000000;stroke-width:0.8;" x="81.365625" xlink:href="#m200206b99f" y="240.02"/>
      </g>
     </g>
     <g id="text_10">
      <!-- 0.992 -->
      <g transform="translate(29.365625 246.96375)scale(0.2 -0.2)">
       <use xlink:href="#TimesNewRomanPSMT-30"/>
       <use x="50" xlink:href="#TimesNewRomanPSMT-2e"/>
       <use x="75" xlink:href="#TimesNewRomanPSMT-39"/>
       <use x="125" xlink:href="#TimesNewRomanPSMT-39"/>
       <use x="175" xlink:href="#TimesNewRomanPSMT-32"/>
      </g>
     </g>
    </g>
    <g id="ytick_4">
     <g id="line2d_10">
      <g>
       <use style="stroke:#000000;stroke-width:0.8;" x="81.365625" xlink:href="#m200206b99f" y="169.46"/>
      </g>
     </g>
     <g id="text_11">
      <!-- 0.994 -->
      <g transform="translate(29.365625 176.40375)scale(0.2 -0.2)">
       <use xlink:href="#TimesNewRomanPSMT-30"/>
       <use x="50" xlink:href="#TimesNewRomanPSMT-2e"/>
       <use x="75" xlink:href="#TimesNewRomanPSMT-39"/>
       <use x="125" xlink:href="#TimesNewRomanPSMT-39"/>
       <use x="175" xlink:href="#TimesNewRomanPSMT-34"/>
      </g>
     </g>
    </g>
    <g id="ytick_5">
     <g id="line2d_11">
      <g>
       <use style="stroke:#000000;stroke-width:0.8;" x="81.365625" xlink:href="#m200206b99f" y="98.9"/>
      </g>
     </g>
     <g id="text_12">
      <!-- 0.996 -->
      <g transform="translate(29.365625 105.84375)scale(0.2 -0.2)">
       <use xlink:href="#TimesNewRomanPSMT-30"/>
       <use x="50" xlink:href="#TimesNewRomanPSMT-2e"/>
       <use x="75" xlink:href="#TimesNewRomanPSMT-39"/>
       <use x="125" xlink:href="#TimesNewRomanPSMT-39"/>
       <use x="175" xlink:href="#TimesNewRomanPSMT-36"/>
      </g>
     </g>
    </g>
    <g id="ytick_6">
     <g id="line2d_12">
      <g>
       <use style="stroke:#000000;stroke-width:0.8;" x="81.365625" xlink:href="#m200206b99f" y="28.34"/>
      </g>
     </g>
     <g id="text_13">
      <!-- 0.998 -->
      <g transform="translate(29.365625 35.28375)scale(0.2 -0.2)">
       <use xlink:href="#TimesNewRomanPSMT-30"/>
       <use x="50" xlink:href="#TimesNewRomanPSMT-2e"/>
       <use x="75" xlink:href="#TimesNewRomanPSMT-39"/>
       <use x="125" xlink:href="#TimesNewRomanPSMT-39"/>
       <use x="175" xlink:href="#TimesNewRomanPSMT-38"/>
      </g>
     </g>
    </g>
    <g id="text_14">
     <!-- Active cases (fraction of population) -->
     <defs>
      <path d="M 45.75 22.171875 
L 20.125 22.171875 
L 15.625 11.71875 
Q 13.96875 7.859375 13.96875 5.953125 
Q 13.96875 4.4375 15.40625 3.296875 
Q 16.84375 2.15625 21.625 1.8125 
L 21.625 0 
L 0.78125 0 
L 0.78125 1.8125 
Q 4.9375 2.546875 6.15625 3.71875 
Q 8.640625 6.0625 11.671875 13.234375 
L 34.96875 67.71875 
L 36.671875 67.71875 
L 59.71875 12.640625 
Q 62.5 6 64.765625 4.015625 
Q 67.046875 2.046875 71.09375 1.8125 
L 71.09375 0 
L 44.96875 0 
L 44.96875 1.8125 
Q 48.921875 2 50.3125 3.125 
Q 51.703125 4.25 51.703125 5.859375 
Q 51.703125 8.015625 49.75 12.640625 
z
M 44.390625 25.78125 
L 33.15625 52.546875 
L 21.625 25.78125 
z
" id="TimesNewRomanPSMT-41"/>
      <path d="M 41.109375 17 
Q 39.3125 8.15625 34.03125 3.390625 
Q 28.765625 -1.375 22.359375 -1.375 
Q 14.75 -1.375 9.078125 5.015625 
Q 3.421875 11.421875 3.421875 22.3125 
Q 3.421875 32.859375 9.6875 39.453125 
Q 15.96875 46.046875 24.75 46.046875 
Q 31.34375 46.046875 35.59375 42.546875 
Q 39.84375 39.0625 39.84375 35.296875 
Q 39.84375 33.453125 38.640625 32.296875 
Q 37.453125 31.15625 35.296875 31.15625 
Q 32.421875 31.15625 30.953125 33.015625 
Q 30.125 34.03125 29.859375 36.90625 
Q 29.59375 39.796875 27.875 41.3125 
Q 26.171875 42.78125 23.140625 42.78125 
Q 18.265625 42.78125 15.28125 39.15625 
Q 11.328125 34.375 11.328125 26.515625 
Q 11.328125 18.5 15.25 12.375 
Q 19.1875 6.25 25.875 6.25 
Q 30.671875 6.25 34.46875 9.515625 
Q 37.15625 11.765625 39.703125 17.671875 
z
" id="TimesNewRomanPSMT-63"/>
      <path d="M 16.109375 59.421875 
L 16.109375 44.734375 
L 26.5625 44.734375 
L 26.5625 41.3125 
L 16.109375 41.3125 
L 16.109375 12.3125 
Q 16.109375 7.953125 17.359375 6.4375 
Q 18.609375 4.9375 20.5625 4.9375 
Q 22.171875 4.9375 23.6875 5.9375 
Q 25.203125 6.9375 26.03125 8.890625 
L 27.9375 8.890625 
Q 26.21875 4.109375 23.09375 1.6875 
Q 19.96875 -0.734375 16.65625 -0.734375 
Q 14.40625 -0.734375 12.25 0.515625 
Q 10.109375 1.765625 9.078125 4.078125 
Q 8.0625 6.390625 8.0625 11.234375 
L 8.0625 41.3125 
L 0.984375 41.3125 
L 0.984375 42.921875 
Q 3.65625 44 6.46875 46.5625 
Q 9.28125 49.125 11.46875 52.640625 
Q 12.59375 54.5 14.59375 59.421875 
z
" id="TimesNewRomanPSMT-74"/>
      <path d="M 14.5 69.4375 
Q 16.546875 69.4375 17.984375 67.984375 
Q 19.4375 66.546875 19.4375 64.5 
Q 19.4375 62.453125 17.984375 60.984375 
Q 16.546875 59.515625 14.5 59.515625 
Q 12.453125 59.515625 10.984375 60.984375 
Q 9.515625 62.453125 9.515625 64.5 
Q 9.515625 66.546875 10.953125 67.984375 
Q 12.40625 69.4375 14.5 69.4375 
z
M 18.5625 46.046875 
L 18.5625 10.109375 
Q 18.5625 5.90625 19.171875 4.515625 
Q 19.78125 3.125 20.96875 2.4375 
Q 22.171875 1.765625 25.34375 1.765625 
L 25.34375 0 
L 3.609375 0 
L 3.609375 1.765625 
Q 6.890625 1.765625 8 2.390625 
Q 9.125 3.03125 9.78125 4.484375 
Q 10.453125 5.953125 10.453125 10.109375 
L 10.453125 27.34375 
Q 10.453125 34.625 10.015625 36.765625 
Q 9.671875 38.328125 8.9375 38.9375 
Q 8.203125 39.546875 6.9375 39.546875 
Q 5.5625 39.546875 3.609375 38.8125 
L 2.9375 40.578125 
L 16.40625 46.046875 
z
" id="TimesNewRomanPSMT-69"/>
      <path d="M 0.828125 44.734375 
L 21.875 44.734375 
L 21.875 42.921875 
L 20.515625 42.921875 
Q 18.609375 42.921875 17.609375 41.984375 
Q 16.609375 41.0625 16.609375 39.5 
Q 16.609375 37.796875 17.625 35.453125 
L 28.03125 10.75 
L 38.484375 36.375 
Q 39.59375 39.109375 39.59375 40.53125 
Q 39.59375 41.21875 39.203125 41.65625 
Q 38.671875 42.390625 37.84375 42.65625 
Q 37.015625 42.921875 34.46875 42.921875 
L 34.46875 44.734375 
L 49.078125 44.734375 
L 49.078125 42.921875 
Q 46.53125 42.71875 45.5625 41.890625 
Q 43.84375 40.4375 42.484375 37.015625 
L 26.609375 -1.375 
L 24.609375 -1.375 
L 8.640625 36.375 
Q 7.5625 39.015625 6.578125 40.15625 
Q 5.609375 41.3125 4.109375 42.09375 
Q 3.265625 42.53125 0.828125 42.921875 
z
" id="TimesNewRomanPSMT-76"/>
      <path d="M 10.640625 27.875 
Q 10.59375 17.921875 15.484375 12.25 
Q 20.359375 6.59375 26.953125 6.59375 
Q 31.34375 6.59375 34.59375 9 
Q 37.84375 11.421875 40.046875 17.28125 
L 41.546875 16.3125 
Q 40.53125 9.625 35.59375 4.125 
Q 30.671875 -1.375 23.25 -1.375 
Q 15.1875 -1.375 9.453125 4.90625 
Q 3.71875 11.1875 3.71875 21.78125 
Q 3.71875 33.25 9.59375 39.671875 
Q 15.484375 46.09375 24.359375 46.09375 
Q 31.890625 46.09375 36.71875 41.140625 
Q 41.546875 36.1875 41.546875 27.875 
z
M 10.640625 30.71875 
L 31.34375 30.71875 
Q 31.109375 35.015625 30.328125 36.765625 
Q 29.109375 39.5 26.6875 41.0625 
Q 24.265625 42.625 21.625 42.625 
Q 17.578125 42.625 14.375 39.46875 
Q 11.1875 36.328125 10.640625 30.71875 
z
" id="TimesNewRomanPSMT-65"/>
      <path id="TimesNewRomanPSMT-20"/>
      <path d="M 31.0625 -19.578125 
L 31.0625 -21.390625 
Q 23.6875 -17.671875 18.75 -12.703125 
Q 11.71875 -5.609375 7.90625 4 
Q 4.109375 13.625 4.109375 23.96875 
Q 4.109375 39.109375 11.578125 51.578125 
Q 19.046875 64.0625 31.0625 69.4375 
L 31.0625 67.390625 
Q 25.046875 64.0625 21.1875 58.296875 
Q 17.328125 52.546875 15.421875 43.703125 
Q 13.53125 34.859375 13.53125 25.25 
Q 13.53125 14.796875 15.140625 6.25 
Q 16.40625 -0.484375 18.203125 -4.5625 
Q 20.015625 -8.640625 23.0625 -12.390625 
Q 26.125 -16.15625 31.0625 -19.578125 
z
" id="TimesNewRomanPSMT-28"/>
      <path d="M 20.609375 41.21875 
L 20.609375 11.8125 
Q 20.609375 5.5625 21.96875 3.90625 
Q 23.78125 1.765625 26.8125 1.765625 
L 30.859375 1.765625 
L 30.859375 0 
L 4.15625 0 
L 4.15625 1.765625 
L 6.15625 1.765625 
Q 8.109375 1.765625 9.71875 2.734375 
Q 11.328125 3.71875 11.9375 5.375 
Q 12.546875 7.03125 12.546875 11.8125 
L 12.546875 41.21875 
L 3.859375 41.21875 
L 3.859375 44.734375 
L 12.546875 44.734375 
L 12.546875 47.65625 
Q 12.546875 54.34375 14.6875 58.984375 
Q 16.84375 63.625 21.265625 66.484375 
Q 25.6875 69.34375 31.203125 69.34375 
Q 36.328125 69.34375 40.625 66.015625 
Q 43.453125 63.8125 43.453125 61.078125 
Q 43.453125 59.625 42.1875 58.328125 
Q 40.921875 57.03125 39.453125 57.03125 
Q 38.328125 57.03125 37.078125 57.828125 
Q 35.84375 58.640625 34.03125 61.296875 
Q 32.234375 63.96875 30.71875 64.890625 
Q 29.203125 65.828125 27.34375 65.828125 
Q 25.09375 65.828125 23.53125 64.625 
Q 21.96875 63.421875 21.28125 60.90625 
Q 20.609375 58.40625 20.609375 47.953125 
L 20.609375 44.734375 
L 32.125 44.734375 
L 32.125 41.21875 
z
" id="TimesNewRomanPSMT-66"/>
      <path d="M 16.21875 46.046875 
L 16.21875 35.984375 
Q 21.828125 46.046875 27.734375 46.046875 
Q 30.421875 46.046875 32.171875 44.40625 
Q 33.9375 42.78125 33.9375 40.625 
Q 33.9375 38.71875 32.65625 37.390625 
Q 31.390625 36.078125 29.640625 36.078125 
Q 27.9375 36.078125 25.8125 37.765625 
Q 23.6875 39.453125 22.65625 39.453125 
Q 21.78125 39.453125 20.75 38.484375 
Q 18.5625 36.46875 16.21875 31.890625 
L 16.21875 10.453125 
Q 16.21875 6.734375 17.140625 4.828125 
Q 17.78125 3.515625 19.390625 2.640625 
Q 21 1.765625 24.03125 1.765625 
L 24.03125 0 
L 1.125 0 
L 1.125 1.765625 
Q 4.546875 1.765625 6.203125 2.828125 
Q 7.421875 3.609375 7.90625 5.328125 
Q 8.15625 6.15625 8.15625 10.0625 
L 8.15625 27.390625 
Q 8.15625 35.203125 7.828125 36.6875 
Q 7.515625 38.1875 6.65625 38.859375 
Q 5.8125 39.546875 4.546875 39.546875 
Q 3.03125 39.546875 1.125 38.8125 
L 0.640625 40.578125 
L 14.15625 46.046875 
z
" id="TimesNewRomanPSMT-72"/>
      <path d="M 25 46.046875 
Q 35.15625 46.046875 41.3125 38.328125 
Q 46.53125 31.734375 46.53125 23.1875 
Q 46.53125 17.1875 43.640625 11.03125 
Q 40.765625 4.890625 35.71875 1.75 
Q 30.671875 -1.375 24.46875 -1.375 
Q 14.359375 -1.375 8.40625 6.6875 
Q 3.375 13.484375 3.375 21.921875 
Q 3.375 28.078125 6.421875 34.15625 
Q 9.46875 40.234375 14.453125 43.140625 
Q 19.4375 46.046875 25 46.046875 
z
M 23.484375 42.875 
Q 20.90625 42.875 18.28125 41.328125 
Q 15.671875 39.796875 14.0625 35.9375 
Q 12.453125 32.078125 12.453125 26.03125 
Q 12.453125 16.265625 16.328125 9.171875 
Q 20.21875 2.09375 26.5625 2.09375 
Q 31.296875 2.09375 34.375 6 
Q 37.453125 9.90625 37.453125 19.4375 
Q 37.453125 31.34375 32.328125 38.1875 
Q 28.859375 42.875 23.484375 42.875 
z
" id="TimesNewRomanPSMT-6f"/>
      <path d="M 16.15625 36.578125 
Q 24.03125 46.046875 31.15625 46.046875 
Q 34.8125 46.046875 37.453125 44.21875 
Q 40.09375 42.390625 41.65625 38.1875 
Q 42.71875 35.25 42.71875 29.203125 
L 42.71875 10.109375 
Q 42.71875 5.859375 43.40625 4.34375 
Q 43.953125 3.125 45.140625 2.4375 
Q 46.34375 1.765625 49.5625 1.765625 
L 49.5625 0 
L 27.4375 0 
L 27.4375 1.765625 
L 28.375 1.765625 
Q 31.5 1.765625 32.734375 2.703125 
Q 33.984375 3.65625 34.46875 5.515625 
Q 34.671875 6.25 34.671875 10.109375 
L 34.671875 28.421875 
Q 34.671875 34.515625 33.078125 37.28125 
Q 31.5 40.046875 27.734375 40.046875 
Q 21.921875 40.046875 16.15625 33.6875 
L 16.15625 10.109375 
Q 16.15625 5.5625 16.703125 4.5 
Q 17.390625 3.078125 18.578125 2.421875 
Q 19.78125 1.765625 23.4375 1.765625 
L 23.4375 0 
L 1.3125 0 
L 1.3125 1.765625 
L 2.296875 1.765625 
Q 5.71875 1.765625 6.90625 3.484375 
Q 8.109375 5.21875 8.109375 10.109375 
L 8.109375 26.703125 
Q 8.109375 34.765625 7.734375 36.515625 
Q 7.375 38.28125 6.609375 38.90625 
Q 5.859375 39.546875 4.59375 39.546875 
Q 3.21875 39.546875 1.3125 38.8125 
L 0.59375 40.578125 
L 14.0625 46.046875 
L 16.15625 46.046875 
z
" id="TimesNewRomanPSMT-6e"/>
      <path d="M -0.09375 40.28125 
L 13.671875 45.84375 
L 15.53125 45.84375 
L 15.53125 35.40625 
Q 19 41.3125 22.484375 43.671875 
Q 25.984375 46.046875 29.828125 46.046875 
Q 36.578125 46.046875 41.0625 40.765625 
Q 46.578125 34.328125 46.578125 23.96875 
Q 46.578125 12.40625 39.9375 4.828125 
Q 34.46875 -1.375 26.171875 -1.375 
Q 22.5625 -1.375 19.921875 -0.34375 
Q 17.96875 0.390625 15.53125 2.59375 
L 15.53125 -11.03125 
Q 15.53125 -15.625 16.09375 -16.859375 
Q 16.65625 -18.109375 18.046875 -18.84375 
Q 19.4375 -19.578125 23.09375 -19.578125 
L 23.09375 -21.390625 
L -0.34375 -21.390625 
L -0.34375 -19.578125 
L 0.875 -19.578125 
Q 3.5625 -19.625 5.46875 -18.5625 
Q 6.390625 -18.015625 6.90625 -16.8125 
Q 7.421875 -15.625 7.421875 -10.75 
L 7.421875 31.546875 
Q 7.421875 35.890625 7.03125 37.0625 
Q 6.640625 38.234375 5.78125 38.8125 
Q 4.9375 39.40625 3.46875 39.40625 
Q 2.296875 39.40625 0.484375 38.71875 
z
M 15.53125 32.515625 
L 15.53125 15.828125 
Q 15.53125 10.40625 15.96875 8.6875 
Q 16.65625 5.859375 19.3125 3.703125 
Q 21.96875 1.5625 26.03125 1.5625 
Q 30.90625 1.5625 33.9375 5.375 
Q 37.890625 10.359375 37.890625 19.390625 
Q 37.890625 29.640625 33.40625 35.15625 
Q 30.28125 38.96875 25.984375 38.96875 
Q 23.640625 38.96875 21.34375 37.796875 
Q 19.578125 36.921875 15.53125 32.515625 
z
" id="TimesNewRomanPSMT-70"/>
      <path d="M 42.328125 44.734375 
L 42.328125 17.625 
Q 42.328125 9.859375 42.6875 8.125 
Q 43.0625 6.390625 43.859375 5.703125 
Q 44.671875 5.03125 45.75 5.03125 
Q 47.265625 5.03125 49.171875 5.859375 
L 49.859375 4.15625 
L 36.46875 -1.375 
L 34.28125 -1.375 
L 34.28125 8.109375 
Q 28.515625 1.859375 25.484375 0.234375 
Q 22.46875 -1.375 19.09375 -1.375 
Q 15.328125 -1.375 12.5625 0.796875 
Q 9.8125 2.984375 8.734375 6.390625 
Q 7.671875 9.8125 7.671875 16.0625 
L 7.671875 36.03125 
Q 7.671875 39.203125 6.984375 40.421875 
Q 6.296875 41.65625 4.953125 42.3125 
Q 3.609375 42.96875 0.09375 42.921875 
L 0.09375 44.734375 
L 15.765625 44.734375 
L 15.765625 14.796875 
Q 15.765625 8.546875 17.9375 6.59375 
Q 20.125 4.640625 23.1875 4.640625 
Q 25.296875 4.640625 27.953125 5.953125 
Q 30.609375 7.28125 34.28125 10.984375 
L 34.28125 36.328125 
Q 34.28125 40.140625 32.890625 41.484375 
Q 31.5 42.828125 27.09375 42.921875 
L 27.09375 44.734375 
z
" id="TimesNewRomanPSMT-75"/>
      <path d="M 18.5 69.4375 
L 18.5 10.109375 
Q 18.5 5.90625 19.109375 4.53125 
Q 19.734375 3.171875 21 2.46875 
Q 22.265625 1.765625 25.734375 1.765625 
L 25.734375 0 
L 3.8125 0 
L 3.8125 1.765625 
Q 6.890625 1.765625 8 2.390625 
Q 9.125 3.03125 9.765625 4.484375 
Q 10.40625 5.953125 10.40625 10.109375 
L 10.40625 50.734375 
Q 10.40625 58.296875 10.0625 60.03125 
Q 9.71875 61.765625 8.953125 62.390625 
Q 8.203125 63.03125 7.03125 63.03125 
Q 5.765625 63.03125 3.8125 62.25 
L 2.984375 63.96875 
L 16.3125 69.4375 
z
" id="TimesNewRomanPSMT-6c"/>
      <path d="M 2.25 67.390625 
L 2.25 69.4375 
Q 9.671875 65.765625 14.59375 60.796875 
Q 21.578125 53.65625 25.390625 44.0625 
Q 29.203125 34.46875 29.203125 24.078125 
Q 29.203125 8.9375 21.75 -3.53125 
Q 14.3125 -16.015625 2.25 -21.390625 
L 2.25 -19.578125 
Q 8.25 -16.21875 12.125 -10.46875 
Q 16.015625 -4.734375 17.890625 4.125 
Q 19.78125 12.984375 19.78125 22.609375 
Q 19.78125 33.015625 18.171875 41.609375 
Q 16.9375 48.34375 15.109375 52.390625 
Q 13.28125 56.453125 10.25 60.203125 
Q 7.234375 63.96875 2.25 67.390625 
z
" id="TimesNewRomanPSMT-29"/>
     </defs>
     <g transform="translate(21.0875 351.354062)rotate(-90)scale(0.2 -0.2)">
      <use xlink:href="#TimesNewRomanPSMT-41"/>
      <use x="72.216797" xlink:href="#TimesNewRomanPSMT-63"/>
      <use x="116.601562" xlink:href="#TimesNewRomanPSMT-74"/>
      <use x="144.384766" xlink:href="#TimesNewRomanPSMT-69"/>
      <use x="172.167969" xlink:href="#TimesNewRomanPSMT-76"/>
      <use x="222.167969" xlink:href="#TimesNewRomanPSMT-65"/>
      <use x="266.552734" xlink:href="#TimesNewRomanPSMT-20"/>
      <use x="291.552734" xlink:href="#TimesNewRomanPSMT-63"/>
      <use x="335.9375" xlink:href="#TimesNewRomanPSMT-61"/>
      <use x="380.322266" xlink:href="#TimesNewRomanPSMT-73"/>
      <use x="419.238281" xlink:href="#TimesNewRomanPSMT-65"/>
      <use x="463.623047" xlink:href="#TimesNewRomanPSMT-73"/>
      <use x="502.539062" xlink:href="#TimesNewRomanPSMT-20"/>
      <use x="527.539062" xlink:href="#TimesNewRomanPSMT-28"/>
      <use x="560.839844" xlink:href="#TimesNewRomanPSMT-66"/>
      <use x="594.140625" xlink:href="#TimesNewRomanPSMT-72"/>
      <use x="627.441406" xlink:href="#TimesNewRomanPSMT-61"/>
      <use x="671.826172" xlink:href="#TimesNewRomanPSMT-63"/>
      <use x="716.210938" xlink:href="#TimesNewRomanPSMT-74"/>
      <use x="743.994141" xlink:href="#TimesNewRomanPSMT-69"/>
      <use x="771.777344" xlink:href="#TimesNewRomanPSMT-6f"/>
      <use x="821.777344" xlink:href="#TimesNewRomanPSMT-6e"/>
      <use x="871.777344" xlink:href="#TimesNewRomanPSMT-20"/>
      <use x="896.777344" xlink:href="#TimesNewRomanPSMT-6f"/>
      <use x="946.777344" xlink:href="#TimesNewRomanPSMT-66"/>
      <use x="980.078125" xlink:href="#TimesNewRomanPSMT-20"/>
      <use x="1005.078125" xlink:href="#TimesNewRomanPSMT-70"/>
      <use x="1055.078125" xlink:href="#TimesNewRomanPSMT-6f"/>
      <use x="1105.078125" xlink:href="#TimesNewRomanPSMT-70"/>
      <use x="1155.078125" xlink:href="#TimesNewRomanPSMT-75"/>
      <use x="1205.078125" xlink:href="#TimesNewRomanPSMT-6c"/>
      <use x="1232.861328" xlink:href="#TimesNewRomanPSMT-61"/>
      <use x="1277.246094" xlink:href="#TimesNewRomanPSMT-74"/>
      <use x="1305.029297" xlink:href="#TimesNewRomanPSMT-69"/>
      <use x="1332.8125" xlink:href="#TimesNewRomanPSMT-6f"/>
      <use x="1382.8125" xlink:href="#TimesNewRomanPSMT-6e"/>
      <use x="1432.8125" xlink:href="#TimesNewRomanPSMT-29"/>
     </g>
    </g>
   </g>
   <g id="line2d_13">
    <path clip-path="url(#p00b90ed5f5)" d="M 101.656534 28.34 
L 160.965297 28.34 
L 161.371522 31.868 
L 164.621317 31.868 
L 165.027541 35.396 
L 175.183152 35.396 
L 175.589376 38.924 
L 179.245396 38.924 
L 179.65162 42.452 
L 183.713864 42.452 
L 184.120089 45.98 
L 187.369884 45.98 
L 187.776108 53.036 
L 199.96284 53.036 
L 200.369065 60.092 
L 206.868655 60.092 
L 207.27488 63.62 
L 218.649163 63.62 
L 219.055387 67.148 
L 227.5861 67.148 
L 227.992324 70.676 
L 229.210998 70.676 
L 229.617222 74.204 
L 245.053749 74.204 
L 245.459974 77.732 
L 258.459155 77.732 
L 258.865379 81.26 
L 275.926804 81.26 
L 276.333029 84.788 
L 302.331391 84.788 
L 302.737615 88.316 
L 303.956288 88.316 
L 304.362513 91.844 
L 310.455879 91.844 
L 311.268328 98.9 
L 318.174143 98.9 
L 318.580367 102.428 
L 325.486182 102.428 
L 326.298631 109.484 
L 333.61067 109.484 
L 334.016894 113.012 
L 337.26669 113.012 
L 337.672914 116.54 
L 358.796583 116.54 
L 359.202808 120.068 
L 368.952193 120.068 
L 369.358418 123.596 
L 378.701579 123.596 
L 379.107804 127.124 
L 384.388721 127.124 
L 384.794945 130.652 
L 385.20117 130.652 
L 385.607394 134.18 
L 386.419843 134.18 
L 386.826067 137.708 
L 394.544331 137.708 
L 394.950555 141.236 
L 397.387902 141.236 
L 397.794126 144.764 
L 405.106166 144.764 
L 405.51239 148.292 
L 421.355142 148.292 
L 421.761366 151.82 
L 422.573815 151.82 
L 422.980039 155.348 
L 429.47963 155.348 
L 429.885854 158.876 
L 446.134831 158.876 
L 446.541055 162.404 
L 447.353504 162.404 
L 447.759728 165.932 
L 448.165953 165.932 
L 448.572177 169.46 
L 507.474716 169.46 
L 507.474716 169.46 
" style="fill:none;stroke:#1f77b4;stroke-linecap:square;stroke-width:1.5;"/>
   </g>
   <g id="patch_3">
    <path d="M 81.365625 398.78 
L 81.365625 10.7 
" style="fill:none;stroke:#000000;stroke-linecap:square;stroke-linejoin:miter;stroke-width:0.8;"/>
   </g>
   <g id="patch_4">
    <path d="M 527.765625 398.78 
L 527.765625 10.7 
" style="fill:none;stroke:#000000;stroke-linecap:square;stroke-linejoin:miter;stroke-width:0.8;"/>
   </g>
   <g id="patch_5">
    <path d="M 81.365625 398.78 
L 527.765625 398.78 
" style="fill:none;stroke:#000000;stroke-linecap:square;stroke-linejoin:miter;stroke-width:0.8;"/>
   </g>
   <g id="patch_6">
    <path d="M 81.365625 10.7 
L 527.765625 10.7 
" style="fill:none;stroke:#000000;stroke-linecap:square;stroke-linejoin:miter;stroke-width:0.8;"/>
   </g>
   <g id="legend_1">
    <g id="patch_7">
     <path d="M 107.53875 60.954313 
L 345.605625 60.954313 
Q 349.205625 60.954313 349.205625 57.354312 
L 349.205625 33.704 
Q 349.205625 30.104 345.605625 30.104 
L 107.53875 30.104 
Q 103.93875 30.104 103.93875 33.704 
L 103.93875 57.354312 
Q 103.93875 60.954313 107.53875 60.954313 
z
" style="fill:#ffffff;opacity:0.8;stroke:#cccccc;stroke-linejoin:miter;"/>
    </g>
    <g id="line2d_14">
     <path d="M 111.13875 43.604 
L 147.13875 43.604 
" style="fill:none;stroke:#1f77b4;stroke-linecap:square;stroke-width:1.5;"/>
    </g>
    <g id="line2d_15"/>
    <g id="text_15">
     <!-- 25% of population tested -->
     <defs>
      <path d="M 43.40625 66.21875 
L 39.59375 57.90625 
L 19.671875 57.90625 
L 15.328125 49.03125 
Q 28.265625 47.125 35.84375 39.40625 
Q 42.328125 32.765625 42.328125 23.78125 
Q 42.328125 18.5625 40.203125 14.109375 
Q 38.09375 9.671875 34.859375 6.546875 
Q 31.640625 3.421875 27.6875 1.515625 
Q 22.078125 -1.171875 16.15625 -1.171875 
Q 10.203125 -1.171875 7.484375 0.84375 
Q 4.78125 2.875 4.78125 5.328125 
Q 4.78125 6.6875 5.90625 7.734375 
Q 7.03125 8.796875 8.734375 8.796875 
Q 10.015625 8.796875 10.96875 8.40625 
Q 11.921875 8.015625 14.203125 6.390625 
Q 17.875 3.859375 21.625 3.859375 
Q 27.34375 3.859375 31.65625 8.171875 
Q 35.984375 12.5 35.984375 18.703125 
Q 35.984375 24.703125 32.125 29.90625 
Q 28.265625 35.109375 21.484375 37.9375 
Q 16.15625 40.140625 6.984375 40.484375 
L 19.671875 66.21875 
z
" id="TimesNewRomanPSMT-35"/>
      <path d="M 67.96875 67.71875 
L 19.734375 -2.734375 
L 15.375 -2.734375 
L 63.625 67.71875 
z
M 17.78125 67.71875 
Q 24.359375 67.71875 28 62.25 
Q 31.640625 56.78125 31.640625 49.703125 
Q 31.640625 41.21875 27.53125 36.578125 
Q 23.4375 31.9375 17.671875 31.9375 
Q 13.8125 31.9375 10.59375 34.0625 
Q 7.375 36.1875 5.4375 40.375 
Q 3.515625 44.578125 3.515625 49.703125 
Q 3.515625 54.828125 5.46875 59.15625 
Q 7.421875 63.484375 10.8125 65.59375 
Q 14.203125 67.71875 17.78125 67.71875 
z
M 17.625 64.984375 
Q 15.140625 64.984375 13.203125 62.046875 
Q 11.28125 59.125 11.28125 49.75 
Q 11.28125 42.96875 12.359375 39.40625 
Q 13.1875 36.71875 14.9375 35.25 
Q 15.96875 34.375 17.484375 34.375 
Q 19.828125 34.375 21.484375 36.921875 
Q 23.921875 40.671875 23.921875 49.46875 
Q 23.921875 58.734375 21.53125 62.5 
Q 19.96875 64.984375 17.625 64.984375 
z
M 65.71875 32.859375 
Q 69.1875 32.859375 72.625 30.65625 
Q 76.078125 28.46875 77.953125 24.265625 
Q 79.828125 20.0625 79.828125 15.046875 
Q 79.828125 6.390625 75.671875 1.828125 
Q 71.53125 -2.734375 65.875 -2.734375 
Q 62.3125 -2.734375 58.953125 -0.53125 
Q 55.609375 1.65625 53.6875 5.734375 
Q 51.765625 9.8125 51.765625 15.046875 
Q 51.765625 20.171875 53.6875 24.40625 
Q 55.609375 28.65625 58.953125 30.75 
Q 62.3125 32.859375 65.71875 32.859375 
z
M 65.765625 30.28125 
Q 63.421875 30.28125 61.71875 27.640625 
Q 59.515625 24.21875 59.515625 14.703125 
Q 59.515625 5.953125 61.765625 2.484375 
Q 63.421875 0 65.765625 0 
Q 68.015625 0 69.78125 2.6875 
Q 72.125 6.25 72.125 14.9375 
Q 72.125 24.125 69.78125 27.78125 
Q 68.171875 30.28125 65.765625 30.28125 
z
" id="TimesNewRomanPSMT-25"/>
      <path d="M 34.71875 5.03125 
Q 31.453125 1.609375 28.328125 0.109375 
Q 25.203125 -1.375 21.578125 -1.375 
Q 14.265625 -1.375 8.796875 4.75 
Q 3.328125 10.890625 3.328125 20.515625 
Q 3.328125 30.125 9.375 38.109375 
Q 15.4375 46.09375 24.953125 46.09375 
Q 30.859375 46.09375 34.71875 42.328125 
L 34.71875 50.59375 
Q 34.71875 58.25 34.34375 60 
Q 33.984375 61.765625 33.203125 62.390625 
Q 32.421875 63.03125 31.25 63.03125 
Q 29.984375 63.03125 27.875 62.25 
L 27.25 63.96875 
L 40.578125 69.4375 
L 42.78125 69.4375 
L 42.78125 17.71875 
Q 42.78125 9.859375 43.140625 8.125 
Q 43.5 6.390625 44.3125 5.703125 
Q 45.125 5.03125 46.1875 5.03125 
Q 47.515625 5.03125 49.703125 5.859375 
L 50.25 4.15625 
L 36.96875 -1.375 
L 34.71875 -1.375 
z
M 34.71875 8.453125 
L 34.71875 31.5 
Q 34.421875 34.8125 32.953125 37.546875 
Q 31.5 40.28125 29.078125 41.671875 
Q 26.65625 43.0625 24.359375 43.0625 
Q 20.0625 43.0625 16.703125 39.203125 
Q 12.25 34.125 12.25 24.359375 
Q 12.25 14.5 16.546875 9.25 
Q 20.84375 4 26.125 4 
Q 30.5625 4 34.71875 8.453125 
z
" id="TimesNewRomanPSMT-64"/>
     </defs>
     <g transform="translate(161.53875 49.904)scale(0.18 -0.18)">
      <use xlink:href="#TimesNewRomanPSMT-32"/>
      <use x="50" xlink:href="#TimesNewRomanPSMT-35"/>
      <use x="100" xlink:href="#TimesNewRomanPSMT-25"/>
      <use x="183.300781" xlink:href="#TimesNewRomanPSMT-20"/>
      <use x="208.300781" xlink:href="#TimesNewRomanPSMT-6f"/>
      <use x="258.300781" xlink:href="#TimesNewRomanPSMT-66"/>
      <use x="291.601562" xlink:href="#TimesNewRomanPSMT-20"/>
      <use x="316.601562" xlink:href="#TimesNewRomanPSMT-70"/>
      <use x="366.601562" xlink:href="#TimesNewRomanPSMT-6f"/>
      <use x="416.601562" xlink:href="#TimesNewRomanPSMT-70"/>
      <use x="466.601562" xlink:href="#TimesNewRomanPSMT-75"/>
      <use x="516.601562" xlink:href="#TimesNewRomanPSMT-6c"/>
      <use x="544.384766" xlink:href="#TimesNewRomanPSMT-61"/>
      <use x="588.769531" xlink:href="#TimesNewRomanPSMT-74"/>
      <use x="616.552734" xlink:href="#TimesNewRomanPSMT-69"/>
      <use x="644.335938" xlink:href="#TimesNewRomanPSMT-6f"/>
      <use x="694.335938" xlink:href="#TimesNewRomanPSMT-6e"/>
      <use x="744.335938" xlink:href="#TimesNewRomanPSMT-20"/>
      <use x="769.335938" xlink:href="#TimesNewRomanPSMT-74"/>
      <use x="797.119141" xlink:href="#TimesNewRomanPSMT-65"/>
      <use x="841.503906" xlink:href="#TimesNewRomanPSMT-73"/>
      <use x="880.419922" xlink:href="#TimesNewRomanPSMT-74"/>
      <use x="908.203125" xlink:href="#TimesNewRomanPSMT-65"/>
      <use x="952.587891" xlink:href="#TimesNewRomanPSMT-64"/>
     </g>
    </g>
   </g>
  </g>
 </g>
 <defs>
  <clipPath id="p00b90ed5f5">
   <rect height="388.08" width="446.4" x="81.365625" y="10.7"/>
  </clipPath>
 </defs>
</svg>
